<?xml version="1.0" encoding="UTF-8" standalone="no"?>
<!-- Generator: Adobe Illustrator 19.0.0, SVG Export Plug-In . SVG Version: 6.00 Build 0)  -->

<svg
   xmlns:dc="http://purl.org/dc/elements/1.1/"
   xmlns:cc="http://creativecommons.org/ns#"
   xmlns:rdf="http://www.w3.org/1999/02/22-rdf-syntax-ns#"
   xmlns:svg="http://www.w3.org/2000/svg"
   xmlns="http://www.w3.org/2000/svg"
   xmlns:sodipodi="http://sodipodi.sourceforge.net/DTD/sodipodi-0.dtd"
   xmlns:inkscape="http://www.inkscape.org/namespaces/inkscape"
   version="1.1"
   id="Capa_1"
   x="0px"
   y="0px"
   viewBox="0 0 512 512"
   xml:space="preserve"
   sodipodi:docname="rules_config.svg"
   style="enable-background:new 0 0 512 512;"
   inkscape:version="0.92.5 (2060ec1f9f, 2020-04-08)"><metadata
   id="metadata2214"><rdf:RDF><cc:Work
       rdf:about=""><dc:format>image/svg+xml</dc:format><dc:type
         rdf:resource="http://purl.org/dc/dcmitype/StillImage" /><dc:title></dc:title></cc:Work></rdf:RDF></metadata><defs
   id="defs2212" /><sodipodi:namedview
   pagecolor="#ffffff"
   bordercolor="#666666"
   borderopacity="1"
   objecttolerance="10"
   gridtolerance="10"
   guidetolerance="10"
   inkscape:pageopacity="0"
   inkscape:pageshadow="2"
   inkscape:window-width="3840"
   inkscape:window-height="2051"
   id="namedview2210"
   showgrid="false"
   inkscape:zoom="1.84375"
   inkscape:cx="421.201"
   inkscape:cy="120.98719"
   inkscape:window-x="0"
   inkscape:window-y="0"
   inkscape:window-maximized="1"
   inkscape:current-layer="Capa_1" />
<path
   style="fill:#0b0b0b;fill-opacity:1;stroke-width:0.99999994"
   d="M 198.7168,145.66992 C 92.05392,145.66972 5.5862352,181.12582 5.5859375,224.86328 5.6751857,249.96411 34.778881,273.56141 84.03125,288.4668 72.658629,393.98471 40.535156,477.30273 40.535156,477.30273 h 0.216797 c -0.143,0.46753 -0.216797,0.93638 -0.216797,1.41016 0,14.80755 70.648824,26.8125 157.798824,26.8125 87.15,0 157.79688,-12.00389 157.79688,-26.81055 0,-0.47378 -0.0738,-0.94458 -0.2168,-1.41211 h 0.2168 c 0,0 -32.07691,-83.20096 -43.4707,-188.61328 11.43998,-3.4544 21.91547,-7.41587 31.23632,-11.8125 -3.34011,-4.43742 -5.71427,-9.44072 -6.76562,-14.53906 l -0.20703,-1.00195 -1.37305,-9.78711 -8.98047,3.64453 -1.13672,0.36523 c -12.82152,4.12125 -29.53898,0.34181 -39.875,-10.72265 -26.56242,5.81329 -56.61746,8.9414 -87.22461,8.9414 -41.671,0 -82.3453,-5.77924 -114.529292,-16.27148 -7.134001,-2.32537 -13.415922,-4.74193 -18.919922,-7.15234 -3.341,-1.46293 -3.341,-9.50217 0,-10.9668 5.504,-2.41043 11.78692,-4.82893 18.919922,-7.1543 32.183992,-10.49224 72.857292,-16.26953 114.529292,-16.26953 20.73906,0 41.22923,1.43306 60.55079,4.16406 l -1.5293,-2.67187 -0.16406,-0.30078 c -8.73403,-16.04331 -6.05416,-34.26528 8.15039,-46.5586 -21.32783,-3.23767 -43.88261,-4.90521 -66.625,-4.92578 z"
   id="path2143"
   inkscape:connector-curvature="0"
   sodipodi:nodetypes="cccccsssccccccccccsccccsccccc" />











<g
   id="g2179">
</g>
<g
   id="g2181">
</g>
<g
   id="g2183">
</g>
<g
   id="g2185">
</g>
<g
   id="g2187">
</g>
<g
   id="g2189">
</g>
<g
   id="g2191">
</g>
<g
   id="g2193">
</g>
<g
   id="g2195">
</g>
<g
   id="g2197">
</g>
<g
   id="g2199">
</g>
<g
   id="g2201">
</g>
<g
   id="g2203">
</g>
<g
   id="g2205">
</g>
<g
   id="g2207">
</g>
<path
   id="path1457-3"
   d="m 483.80347,155.10402 c 0.48356,-3.66444 0.72544,-7.45098 0.72544,-11.48193 0,-3.90863 -0.24188,-7.81727 -0.84616,-11.48171 l 24.54122,-19.29942 c 2.17608,-1.71024 2.78052,-5.00795 1.45066,-7.45098 L 486.46315,64.83714 c -1.45066,-2.68723 -4.47306,-3.542344 -7.1327,-2.68723 l -28.8934,11.726128 c -6.04464,-4.641656 -12.452,-8.550292 -19.58466,-11.481932 l -4.35214,-31.025332 c -0.48356,-2.93164 -2.90144,-5.008164 -5.80288,-5.008164 h -46.42286 c -2.90146,0 -5.19842,2.076092 -5.68198,5.008164 l -4.35214,31.025332 c -7.1327,2.93164 -13.66093,6.962374 -19.58467,11.481932 L 315.76228,62.14991 c -2.65962,-0.976346 -5.68196,0 -7.13268,2.68723 l -23.09056,40.55284 c -1.45066,2.56513 -0.9671,5.74096 1.45066,7.45098 l 24.54126,19.29942 c -0.60448,3.66444 -1.08804,7.69517 -1.08804,11.48171 0,3.78654 0.24188,7.81749 0.84616,11.48193 l -24.54126,19.29921 c -2.1761,1.71023 -2.78054,5.00816 -1.45066,7.45098 l 23.21146,40.55305 c 1.45066,2.68722 4.47302,3.54212 7.13268,2.68722 l 28.89342,-11.72612 c 6.04464,4.64144 12.45195,8.5503 19.58463,11.48172 l 4.35218,31.02554 c 0.6045,2.93142 2.90142,5.00796 5.80286,5.00796 h 46.42288 c 2.90142,0 5.31928,-2.0761 5.68198,-5.00796 l 4.35222,-31.02554 c 7.13268,-2.93142 13.66092,-6.84028 19.58466,-11.48172 l 28.89344,11.72612 c 2.65964,0.97636 5.68196,0 7.13268,-2.68722 l 23.21142,-40.55305 c 1.45066,-2.68723 0.84618,-5.74075 -1.45066,-7.45098 z m -86.3176,32.49115 c -23.9368,0 -43.52146,-19.78781 -43.52146,-43.97308 0,-24.18505 19.58466,-43.97308 43.52146,-43.97308 23.93682,0 43.5215,19.78803 43.5215,43.97308 0,24.18527 -19.58468,43.97308 -43.5215,43.97308 z"
   inkscape:connector-curvature="0"
   style="fill:#000000;stroke:none;stroke-width:6;stroke-miterlimit:4;stroke-dasharray:none;stroke-opacity:1" /></svg>