<?xml version="1.0" encoding="UTF-8" standalone="no"?>
<!-- Generator: Adobe Illustrator 19.0.0, SVG Export Plug-In . SVG Version: 6.00 Build 0)  -->

<svg
   xmlns:dc="http://purl.org/dc/elements/1.1/"
   xmlns:cc="http://creativecommons.org/ns#"
   xmlns:rdf="http://www.w3.org/1999/02/22-rdf-syntax-ns#"
   xmlns:svg="http://www.w3.org/2000/svg"
   xmlns="http://www.w3.org/2000/svg"
   xmlns:sodipodi="http://sodipodi.sourceforge.net/DTD/sodipodi-0.dtd"
   xmlns:inkscape="http://www.inkscape.org/namespaces/inkscape"
   version="1.1"
   id="Capa_1"
   x="0px"
   y="0px"
   viewBox="0 0 512 512"
   xml:space="preserve"
   sodipodi:docname="rules_config_draft.svg"
   style="enable-background:new 0 0 512 512;"
   inkscape:version="0.92.5 (2060ec1f9f, 2020-04-08)"><metadata
   id="metadata2214"><rdf:RDF><cc:Work
       rdf:about=""><dc:format>image/svg+xml</dc:format><dc:type
         rdf:resource="http://purl.org/dc/dcmitype/StillImage" /><dc:title></dc:title></cc:Work></rdf:RDF></metadata><defs
   id="defs2212" /><sodipodi:namedview
   pagecolor="#ffffff"
   bordercolor="#666666"
   borderopacity="1"
   objecttolerance="10"
   gridtolerance="10"
   guidetolerance="10"
   inkscape:pageopacity="0"
   inkscape:pageshadow="2"
   inkscape:window-width="3840"
   inkscape:window-height="2051"
   id="namedview2210"
   showgrid="false"
   inkscape:zoom="1.3037281"
   inkscape:cx="692.91628"
   inkscape:cy="85.005425"
   inkscape:window-x="0"
   inkscape:window-y="0"
   inkscape:window-maximized="1"
   inkscape:current-layer="Capa_1" />
<path
   style="fill:#0b0b0b;fill-opacity:1;stroke-width:0.99999994"
   d="m 356.13137,477.30221 c 0,0 -47.432,-122.99745 -47.432,-259.37844 H 87.967373 c 0,136.38099 -47.432,259.37844 -47.432,259.37844 h 0.217 c -0.143,0.46753 -0.217,0.93774 -0.217,1.41152 0,14.80755 70.647997,26.8117 157.797997,26.8117 87.15,0 157.798,-12.00415 157.798,-26.81081 0,-0.47378 -0.074,-0.94399 -0.217,-1.41152 z"
   id="path2143"
   inkscape:connector-curvature="0" />



<ellipse
   style="fill:#0b0b0b;fill-opacity:1;stroke-width:0.99999988"
   cx="198.33337"
   cy="224.86356"
   rx="193.13"
   ry="79.193581"
   id="ellipse2151" />
<path
   style="fill:#fbfbfb;fill-opacity:1;stroke-width:0.99999988"
   d="m 198.33337,253.77676 c -41.671,0 -82.345,-5.77855 -114.528997,-16.27079 -7.134,-2.32537 -13.415,-4.7426 -18.919,-7.15301 -3.341,-1.46293 -3.341,-9.50222 0,-10.96685 5.504,-2.41043 11.786,-4.82765 18.919,-7.15302 32.183997,-10.49224 72.856997,-16.27078 114.528997,-16.27078 41.671,0 82.345,5.77854 114.529,16.27078 7.134,2.32537 13.415,4.7409 18.919,7.15302 3.341,1.46293 3.341,9.50221 0,10.96685 -5.504,2.41041 -11.785,4.82764 -18.919,7.15301 -32.184,10.49393 -72.858,16.27079 -114.529,16.27079 z"
   id="path2153"
   inkscape:connector-curvature="0" />






<g
   id="g2179">
</g>
<g
   id="g2181">
</g>
<g
   id="g2183">
</g>
<g
   id="g2185">
</g>
<g
   id="g2187">
</g>
<g
   id="g2189">
</g>
<g
   id="g2191">
</g>
<g
   id="g2193">
</g>
<g
   id="g2195">
</g>
<g
   id="g2197">
</g>
<g
   id="g2199">
</g>
<g
   id="g2201">
</g>
<g
   id="g2203">
</g>
<g
   id="g2205">
</g>
<g
   id="g2207">
</g>
<path
   id="path1457"
   d="m 483.80349,155.10402 c 0.48356,-3.66444 0.72544,-7.45098 0.72544,-11.48193 0,-3.90863 -0.24188,-7.81727 -0.84616,-11.48171 l 24.5412,-19.29942 c 2.17608,-1.71024 2.78052,-5.00795 1.45066,-7.45098 L 486.46315,64.83714 c -1.45066,-2.68723 -4.47306,-3.542344 -7.1327,-2.68723 l -28.89342,11.726128 c -6.04462,-4.641656 -12.45198,-8.550292 -19.58464,-11.481932 l -4.35216,-31.025332 c -0.48356,-2.93164 -2.90142,-5.008164 -5.80286,-5.008164 h -46.42288 c -2.90144,0 -5.1984,2.076092 -5.68198,5.008164 l -4.35212,31.025332 c -7.1327,2.93164 -13.66093,6.962374 -19.58467,11.481932 L 315.76228,62.14991 c -2.65962,-0.976346 -5.68196,0 -7.13268,2.68723 l -23.09056,40.55284 c -1.45066,2.56513 -0.9671,5.74096 1.45066,7.45098 l 24.54126,19.29942 c -0.60448,3.66444 -1.08804,7.69517 -1.08804,11.48171 0,3.78654 0.24188,7.81749 0.84616,11.48193 l -24.54126,19.29921 c -2.1761,1.71023 -2.78054,5.00816 -1.45066,7.45098 l 23.21146,40.55305 c 1.45066,2.68722 4.47302,3.54212 7.13268,2.68722 l 28.89342,-11.72612 c 6.04464,4.64144 12.45195,8.5503 19.58463,11.48172 l 4.35218,31.02554 c 0.6045,2.93142 2.90142,5.00796 5.80282,5.00796 h 46.42292 c 2.90142,0 5.31928,-2.0761 5.68198,-5.00796 l 4.35212,-31.02554 c 7.1327,-2.93142 13.66092,-6.84028 19.58468,-11.48172 l 28.8934,11.72612 c 2.65966,0.97636 5.68198,0 7.1327,-2.68722 l 23.21144,-40.55305 c 1.45066,-2.68723 0.84616,-5.74075 -1.45066,-7.45098 z m -86.31758,32.49115 c -23.93678,0 -43.52146,-19.78781 -43.52146,-43.97308 0,-24.18505 19.58468,-43.97308 43.52146,-43.97308 23.93682,0 43.5215,19.78803 43.5215,43.97308 0,24.18527 -19.58468,43.97308 -43.5215,43.97308 z"
   inkscape:connector-curvature="0"
   style="fill:#000000;stroke:#ffffff;stroke-width:64;stroke-miterlimit:4;stroke-dasharray:none;stroke-opacity:1" /><path
   id="path1457-3"
   d="m 483.80347,155.10402 c 0.48356,-3.66444 0.72544,-7.45098 0.72544,-11.48193 0,-3.90863 -0.24188,-7.81727 -0.84616,-11.48171 l 24.54122,-19.29942 c 2.17608,-1.71024 2.78052,-5.00795 1.45066,-7.45098 L 486.46315,64.83714 c -1.45066,-2.68723 -4.47306,-3.542344 -7.1327,-2.68723 l -28.8934,11.726128 c -6.04464,-4.641656 -12.452,-8.550292 -19.58466,-11.481932 l -4.35214,-31.025332 c -0.48356,-2.93164 -2.90144,-5.008164 -5.80288,-5.008164 h -46.42286 c -2.90146,0 -5.19842,2.076092 -5.68198,5.008164 l -4.35214,31.025332 c -7.1327,2.93164 -13.66093,6.962374 -19.58467,11.481932 L 315.76228,62.14991 c -2.65962,-0.976346 -5.68196,0 -7.13268,2.68723 l -23.09056,40.55284 c -1.45066,2.56513 -0.9671,5.74096 1.45066,7.45098 l 24.54126,19.29942 c -0.60448,3.66444 -1.08804,7.69517 -1.08804,11.48171 0,3.78654 0.24188,7.81749 0.84616,11.48193 l -24.54126,19.29921 c -2.1761,1.71023 -2.78054,5.00816 -1.45066,7.45098 l 23.21146,40.55305 c 1.45066,2.68722 4.47302,3.54212 7.13268,2.68722 l 28.89342,-11.72612 c 6.04464,4.64144 12.45195,8.5503 19.58463,11.48172 l 4.35218,31.02554 c 0.6045,2.93142 2.90142,5.00796 5.80286,5.00796 h 46.42288 c 2.90142,0 5.31928,-2.0761 5.68198,-5.00796 l 4.35222,-31.02554 c 7.13268,-2.93142 13.66092,-6.84028 19.58466,-11.48172 l 28.89344,11.72612 c 2.65964,0.97636 5.68196,0 7.13268,-2.68722 l 23.21142,-40.55305 c 1.45066,-2.68723 0.84618,-5.74075 -1.45066,-7.45098 z m -86.3176,32.49115 c -23.9368,0 -43.52146,-19.78781 -43.52146,-43.97308 0,-24.18505 19.58466,-43.97308 43.52146,-43.97308 23.93682,0 43.5215,19.78803 43.5215,43.97308 0,24.18527 -19.58468,43.97308 -43.5215,43.97308 z"
   inkscape:connector-curvature="0"
   style="fill:#000000;stroke:none;stroke-width:6;stroke-miterlimit:4;stroke-dasharray:none;stroke-opacity:1" /></svg>