<?xml version="1.0" encoding="UTF-8" standalone="no"?>
<svg
   xmlns:dc="http://purl.org/dc/elements/1.1/"
   xmlns:cc="http://creativecommons.org/ns#"
   xmlns:rdf="http://www.w3.org/1999/02/22-rdf-syntax-ns#"
   xmlns:svg="http://www.w3.org/2000/svg"
   xmlns="http://www.w3.org/2000/svg"
   xmlns:sodipodi="http://sodipodi.sourceforge.net/DTD/sodipodi-0.dtd"
   xmlns:inkscape="http://www.inkscape.org/namespaces/inkscape"
   viewBox="0 0 256 256"
   width="512"
   height="512"
   version="1.1"
   id="svg904"
   sodipodi:docname="team_settings_draft.svg"
   inkscape:version="0.92.5 (2060ec1f9f, 2020-04-08)"
   style="fill:#000000">
  <metadata
     id="metadata910">
    <rdf:RDF>
      <cc:Work
         rdf:about="">
        <dc:format>image/svg+xml</dc:format>
        <dc:type
           rdf:resource="http://purl.org/dc/dcmitype/StillImage" />
        <dc:title></dc:title>
      </cc:Work>
    </rdf:RDF>
  </metadata>
  <defs
     id="defs908" />
  <sodipodi:namedview
     pagecolor="#ffffff"
     bordercolor="#666666"
     borderopacity="1"
     objecttolerance="10"
     gridtolerance="10"
     guidetolerance="10"
     inkscape:pageopacity="0"
     inkscape:pageshadow="2"
     inkscape:window-width="3840"
     inkscape:window-height="2051"
     id="namedview906"
     showgrid="false"
     inkscape:zoom="2.2877604"
     inkscape:cx="354.65512"
     inkscape:cy="216.89465"
     inkscape:window-x="0"
     inkscape:window-y="0"
     inkscape:window-maximized="1"
     inkscape:current-layer="svg904" />
  <path
     d="m 135.21331,155.65634 c 16.73653,0 30.14591,-13.63932 30.14591,-30.53576 0,-16.89643 -13.40938,-30.535746 -30.14591,-30.535746 -16.73654,0 -30.24675,13.639316 -30.24675,30.535746 0,16.89644 13.51021,30.53576 30.24675,30.53576 z"
     id="path1501"
     inkscape:connector-curvature="0"
     style="stroke-width:0.99999994" />
  <path
     d="m 60.841574,155.65634 c 16.736532,0 30.145923,-13.63932 30.145923,-30.53576 0,-16.89643 -13.409391,-30.535746 -30.145923,-30.535746 -16.736531,0 -30.246743,13.639316 -30.246743,30.535746 0,16.89644 13.510212,30.53576 30.246743,30.53576 z"
     id="path1499"
     inkscape:connector-curvature="0"
     style="stroke-width:0.99999994" />
  <path
     d="m 62.113463,167.70676 c -20.189448,0 -60.6549965,12.3811 -60.6549965,37.03744 v 26.45544 H 122.76847 V 204.7442 c 0,-24.65634 -40.465557,-37.03744 -60.655007,-37.03744 z"
     id="path1497"
     inkscape:connector-curvature="0"
     style="stroke-width:0.99999994" />
  <path
     d="m 131.43346,167.70676 c -2.51285,0 -5.3723,0.21107 -8.40504,0.5293 10.05139,8.88898 17.07004,20.84686 17.07004,36.50836 v 26.45533 h 51.99 v -26.45533 c 0,-24.65635 -40.46555,-37.03745 -60.655,-37.03745 z"
     id="path902"
     inkscape:connector-curvature="0"
     style="stroke-width:0.99999994" />
  <path
     id="path1457"
     d="m 241.90175,77.552011 c 0.24178,-1.832221 0.36272,-3.725491 0.36272,-5.740966 0,-1.954318 -0.12094,-3.908637 -0.42308,-5.740857 l 12.2706,-9.649711 c 1.08804,-0.855116 1.39026,-2.503974 0.72533,-3.72549 L 243.23158,32.418569 c -0.72533,-1.343615 -2.23653,-1.771172 -3.56635,-1.343615 l -14.44671,5.863064 c -3.02231,-2.320828 -6.22599,-4.275146 -9.79232,-5.740966 l -2.17608,-15.512666 c -0.24178,-1.46582 -1.45071,-2.504082 -2.90143,-2.504082 h -23.21144 c -1.45072,0 -2.5992,1.038046 -2.84099,2.504082 l -2.17606,15.512666 c -3.56635,1.46582 -6.83047,3.481187 -9.79234,5.740966 l -14.44672,-5.863064 c -1.32981,-0.488173 -2.84098,0 -3.56634,1.343615 l -11.54528,20.276418 c -0.72533,1.282565 -0.48355,2.870483 0.72533,3.72549 l 12.27063,9.649711 c -0.30224,1.83222 -0.54402,3.847588 -0.54402,5.740857 0,1.89327 0.12094,3.908745 0.42308,5.740966 l -12.27063,9.649602 c -1.08805,0.855116 -1.39027,2.504082 -0.72533,3.725491 l 11.60573,20.276526 c 0.72533,1.34361 2.23651,1.77106 3.56634,1.34361 l 14.44671,-5.86306 c 3.02232,2.32072 6.22598,4.27515 9.79232,5.74086 l 2.17609,15.51277 c 0.30225,1.46571 1.45071,2.50398 2.90141,2.50398 h 23.21146 c 1.45071,0 2.65964,-1.03805 2.84099,-2.50398 l 2.17606,-15.51277 c 3.56635,-1.46571 6.83046,-3.42014 9.79234,-5.74086 l 14.4467,5.86306 c 1.32983,0.48818 2.84099,0 3.56635,-1.34361 L 254.7768,90.927104 c 0.72533,-1.343615 0.42308,-2.870375 -0.72533,-3.725491 z m -43.15879,16.245575 c -11.96839,0 -21.76073,-9.893905 -21.76073,-21.986541 0,-12.092527 9.79234,-21.986541 21.76073,-21.986541 11.96841,0 21.76075,9.894014 21.76075,21.986541 0,12.092636 -9.79234,21.986541 -21.76075,21.986541 z"
     inkscape:connector-curvature="0"
     style="fill:#000000;stroke:#ffffff;stroke-width:32;stroke-miterlimit:4;stroke-dasharray:none;stroke-opacity:1" />
  <path
     id="path1457-3"
     d="m 241.90174,77.552011 c 0.24178,-1.832221 0.36272,-3.725491 0.36272,-5.740966 0,-1.954318 -0.12094,-3.908637 -0.42308,-5.740857 l 12.27061,-9.649711 c 1.08804,-0.855116 1.39026,-2.503974 0.72533,-3.72549 L 243.23158,32.418569 c -0.72533,-1.343615 -2.23653,-1.771172 -3.56635,-1.343615 l -14.4467,5.863064 c -3.02232,-2.320828 -6.226,-4.275146 -9.79233,-5.740966 l -2.17607,-15.512666 c -0.24178,-1.46582 -1.45072,-2.504082 -2.90144,-2.504082 h -23.21143 c -1.45073,0 -2.59921,1.038046 -2.84099,2.504082 l -2.17607,15.512666 c -3.56635,1.46582 -6.83047,3.481187 -9.79234,5.740966 l -14.44672,-5.863064 c -1.32981,-0.488173 -2.84098,0 -3.56634,1.343615 l -11.54528,20.276418 c -0.72533,1.282565 -0.48355,2.870483 0.72533,3.72549 l 12.27063,9.649711 c -0.30224,1.83222 -0.54402,3.847588 -0.54402,5.740857 0,1.89327 0.12094,3.908745 0.42308,5.740966 l -12.27063,9.649602 c -1.08805,0.855116 -1.39027,2.504082 -0.72533,3.725491 l 11.60573,20.276526 c 0.72533,1.34361 2.23651,1.77106 3.56634,1.34361 l 14.44671,-5.86306 c 3.02232,2.32072 6.22598,4.27515 9.79232,5.74086 l 2.17609,15.51277 c 0.30225,1.46571 1.45071,2.50398 2.90143,2.50398 h 23.21144 c 1.45071,0 2.65964,-1.03805 2.84099,-2.50398 l 2.17611,-15.51277 c 3.56634,-1.46571 6.83046,-3.42014 9.79233,-5.74086 l 14.44672,5.86306 c 1.32982,0.48818 2.84098,0 3.56634,-1.34361 l 11.60571,-20.276526 c 0.72533,-1.343615 0.42309,-2.870375 -0.72533,-3.725491 z m -43.1588,16.245575 c -11.9684,0 -21.76073,-9.893905 -21.76073,-21.986541 0,-12.092527 9.79233,-21.986541 21.76073,-21.986541 11.96841,0 21.76075,9.894014 21.76075,21.986541 0,12.092636 -9.79234,21.986541 -21.76075,21.986541 z"
     inkscape:connector-curvature="0"
     style="fill:#000000;stroke:none;stroke-width:3;stroke-miterlimit:4;stroke-dasharray:none;stroke-opacity:1" />
</svg>
