<?xml version="1.0" encoding="UTF-8" standalone="no"?>
<svg
   xmlns:dc="http://purl.org/dc/elements/1.1/"
   xmlns:cc="http://creativecommons.org/ns#"
   xmlns:rdf="http://www.w3.org/1999/02/22-rdf-syntax-ns#"
   xmlns:svg="http://www.w3.org/2000/svg"
   xmlns="http://www.w3.org/2000/svg"
   xmlns:sodipodi="http://sodipodi.sourceforge.net/DTD/sodipodi-0.dtd"
   xmlns:inkscape="http://www.inkscape.org/namespaces/inkscape"
   height="512"
   viewBox="0 0 55 60"
   width="512"
   version="1.1"
   id="svg7"
   sodipodi:docname="too_hard_filled.svg"
   inkscape:version="0.92.5 (2060ec1f9f, 2020-04-08)"
   inkscape:export-filename="/home/andrei/Desktop/Coding/hatgame_warehouse/work/too_hard_outlined.png"
   inkscape:export-xdpi="96"
   inkscape:export-ydpi="96">
  <metadata
     id="metadata13">
    <rdf:RDF>
      <cc:Work
         rdf:about="">
        <dc:format>image/svg+xml</dc:format>
        <dc:type
           rdf:resource="http://purl.org/dc/dcmitype/StillImage" />
        <dc:title></dc:title>
      </cc:Work>
    </rdf:RDF>
  </metadata>
  <defs
     id="defs11" />
  <sodipodi:namedview
     pagecolor="#ffffff"
     bordercolor="#666666"
     borderopacity="1"
     objecttolerance="10"
     gridtolerance="10"
     guidetolerance="10"
     inkscape:pageopacity="0"
     inkscape:pageshadow="2"
     inkscape:window-width="3840"
     inkscape:window-height="2051"
     id="namedview9"
     showgrid="false"
     inkscape:zoom="1.84375"
     inkscape:cx="198.0282"
     inkscape:cy="294.36481"
     inkscape:window-x="0"
     inkscape:window-y="0"
     inkscape:window-maximized="1"
     inkscape:current-layer="svg7" />
  <path
     style="stroke:none;stroke-width:0;stroke-miterlimit:4;stroke-dasharray:none;stroke-opacity:1"
     d="M 256.98242 -0.484375 L 256.98242 -0.48242188 C 230.13385 -0.48242188 205.60279 8.2358876 187.15039 22.533203 C 173.70576 16.306343 158.52604 12.517578 142.58398 12.517578 C 120.16728 12.517578 99.677715 18.898127 84.267578 29.849609 C 69.939727 40.031945 60.639551 54.96863 59.283203 71.75 C 30.675619 80.059531 8.6992186 100.21582 8.6992188 126.4668 C 8.6992188 149.01884 25.490124 167.9951 49.099609 177.93359 L 84.833984 222.34961 C 89.03356 227.57238 95.245378 230.15039 101.59961 230.15039 C 102.50136 230.15039 103.42561 230.10219 104.38281 229.98242 C 111.72203 229.06959 118.44672 224.61105 121.2832 217.31641 L 128.31641 199.2168 C 139.22911 202.8961 150.81432 205.36719 163.09961 205.36719 C 170.1524 205.36719 176.83284 203.75909 183.59961 202.5 C 185.62425 209.77054 188.34604 222.02005 190.48242 237.58398 C 192.11186 249.45482 193.28865 258.31242 194.58398 268.15039 L 167.66602 257.23242 L 167.19922 257.09961 C 163.76663 256.08864 160.16441 255.91498 156.65039 256.58398 L 156.19922 256.66602 L 114.25 268.76758 L 80.115234 250.32617 C 74.845151 246.08811 66.729614 246.21339 61.865234 246.19531 C 56.388911 246.7772 51.371055 249.63386 47.833984 253.80078 L 41.775391 261.80859 L 92.275391 302.77148 C 97.405367 308.46023 105.02089 310.65482 112.43359 309.25 L 112.84961 309.18359 L 159.84961 296.05078 L 231.15039 321.56641 L 231.41602 321.65039 C 235.49543 322.85176 239.78509 322.88288 243.88281 321.7168 L 342.81641 293.65039 L 370.75 314.2168 L 371.75 314.66602 C 376.02933 316.56524 380.6107 316.99245 384.9668 316.16602 L 386.36719 315.90039 L 456.60547 278.80664 L 469.94922 266.83398 C 470.24823 266.0694 470.58719 265.25873 470.93359 264.0332 C 471.3379 262.60305 472.992 260.91889 470.55078 255.5332 L 470.5332 255.5332 L 470.5332 255.51562 C 467.6807 249.23191 461.89001 245.23702 455.44922 244.01562 C 449.54071 242.89447 443.49229 244.08652 438.56055 247.61133 L 380.15039 273.91602 L 355.84961 255.2832 L 354.76562 254.81641 C 349.95153 252.67932 344.64057 252.33348 339.59961 253.76562 L 339.59961 253.75 L 321.40039 258.91602 C 322.59257 250.36335 323.72819 242.90637 325.09961 232.40039 C 326.19823 223.98424 327.37417 215.69408 328.56641 208.93359 C 329.14172 205.6714 329.52064 204.81329 330.09961 202.4668 C 336.95206 203.75937 343.73635 205.36523 350.88281 205.36523 C 361.38014 205.36523 371.33066 203.2759 380.91602 200.56641 C 384.39845 202.95117 387.86576 205.59734 392.09961 205.69922 L 471.26562 207.59961 C 471.49577 207.60561 471.69174 207.59961 471.84961 207.59961 C 479.56167 207.59961 487.00972 203.77776 490.73242 196.5332 C 494.54281 189.11968 492.56141 179.69055 486.56641 174.18359 L 479.7168 167.88281 C 494.28022 157.28027 505.26566 143.47434 505.26562 126.4668 C 505.26562 100.21815 483.30195 80.06114 454.69922 71.75 C 453.34299 54.96791 444.04537 40.031441 429.7168 29.849609 C 414.30607 18.898811 393.81688 12.515625 371.40039 12.515625 C 355.4642 12.515625 340.27285 16.311581 326.83203 22.533203 C 308.37781 8.2320188 283.83589 -0.484375 256.98242 -0.484375 z M 306.86719 67.617188 L 361.43359 67.617188 C 366.85739 67.617188 372.15744 69.779512 375.7168 74.482422 C 379.27904 79.188591 379.86109 86.19667 376.93359 91.433594 L 358.18359 124.94922 C 355.30983 130.08574 350.28387 132.88049 345 133.5332 L 344.98242 133.5332 C 344.21897 133.62605 343.45424 133.68359 342.68359 133.68359 C 338.20999 133.68359 333.80325 132.19239 330.2832 128.90039 L 294.4668 95.382812 C 289.62707 90.850716 287.94414 82.753652 291.19922 76.632812 C 294.45209 70.516047 300.62333 67.617188 306.86719 67.617188 z M 210.85547 79.453125 C 214.6372 79.614515 218.30189 80.913835 221.44922 83.466797 L 261.7832 116.16602 C 267.01095 120.40563 269.34121 128.55233 266.30078 135.01758 C 263.26171 141.48579 256.95681 144.63881 250.56836 144.75 L 191.26758 145.7832 L 191.25 145.7832 C 191.19795 145.78383 191.09975 145.7832 190.9668 145.7832 C 185.60116 145.7832 180.35436 143.66605 176.76758 139.05078 L 176.75 139.05078 C 173.08977 134.33851 172.45562 127.22121 175.43359 121.91602 L 194.36719 88.183594 C 197.15163 83.223761 201.96699 80.443377 207.05078 79.666016 C 208.32237 79.471244 209.59489 79.399328 210.85547 79.453125 z "
     id="path2521"
     transform="matrix(0.1171875,0,0,0.1171875,-2.5,0)" />
  <path
     style="color:#000000;font-style:normal;font-variant:normal;font-weight:normal;font-stretch:normal;font-size:medium;line-height:normal;font-family:sans-serif;font-variant-ligatures:normal;font-variant-position:normal;font-variant-caps:normal;font-variant-numeric:normal;font-variant-alternates:normal;font-feature-settings:normal;text-indent:0;text-align:start;text-decoration:none;text-decoration-line:none;text-decoration-style:solid;text-decoration-color:#000000;letter-spacing:normal;word-spacing:normal;text-transform:none;writing-mode:lr-tb;direction:ltr;text-orientation:mixed;dominant-baseline:auto;baseline-shift:baseline;text-anchor:start;white-space:normal;shape-padding:0;clip-rule:nonzero;display:inline;overflow:visible;visibility:visible;opacity:1;isolation:auto;mix-blend-mode:normal;color-interpolation:sRGB;color-interpolation-filters:linearRGB;solid-color:#000000;solid-opacity:1;vector-effect:none;fill:#000000;fill-opacity:1;fill-rule:nonzero;stroke:none;stroke-width:24.00000191;stroke-linecap:butt;stroke-linejoin:miter;stroke-miterlimit:4;stroke-dasharray:none;stroke-dashoffset:0;stroke-opacity:1;color-rendering:auto;image-rendering:auto;shape-rendering:auto;text-rendering:auto;enable-background:accumulate"
     d="M 47.263672 255.31641 L 43.683594 259.34961 C 35.953826 268.05796 30.635831 274.57053 26.912109 280.93359 C 23.188388 287.29666 21.167735 294.34121 21.767578 300.92969 L 21.828125 301.58984 L 21.960938 302.24023 C 24.02458 312.35659 30.436303 321.04192 39.431641 326.07422 C 42.41937 328.10607 45.522608 329.96674 48.787109 331.52148 L 48.480469 331.36914 C 49.290564 331.78369 49.98991 332.20362 50.824219 332.65234 C 50.161401 333.92689 49.512657 335.20883 48.802734 336.46875 C 47.219624 339.26867 44.406032 343.68331 43.240234 350.11914 C 42.077537 356.53787 44.340502 366.11323 50.992188 371.78711 C 51.346593 372.09892 51.842458 372.45646 52.224609 372.7793 C 51.692769 375.60821 51.478707 378.50085 51.71875 381.40039 L 51.744141 381.70703 L 51.785156 382.01172 C 52.653034 388.4603 56.162199 394.27911 61.46875 398.05469 C 61.470666 398.05604 61.472694 398.05724 61.474609 398.05859 C 63.829163 399.73648 66.135424 401.08825 68.257812 402.26953 L 68.136719 402.20312 C 68.968727 402.67886 68.829481 402.61982 69.361328 402.95117 C 69.328304 403.06987 69.375371 403.1978 69.333984 403.31445 L 69.201172 403.68945 L 69.09375 404.07227 C 65.778518 415.83034 66.318087 428.31968 70.527344 439.77539 C 76.50752 460.94171 98.164474 474.0324 119.70703 469.3457 L 119.8418 469.31641 L 119.97656 469.2832 C 141.27257 464.13524 162.25465 457.80185 182.93945 450.58789 C 189.36493 456.68266 197.46692 469.10133 203.35352 486.22266 C 208.34397 500.87514 222.18034 510.82072 237.66211 510.875 L 237.68359 510.875 L 400.94141 510.875 L 400.94531 510.875 C 413.48579 510.86647 425.17138 504.34987 431.77148 493.68555 C 438.37198 483.02068 438.99019 469.65639 433.40625 458.42773 L 433.60742 458.85156 C 424.04521 437.5773 418.09302 414.85957 415.99609 391.62891 L 415.98047 391.46094 L 415.96094 391.29297 C 413.34832 369.26748 416.64114 346.95024 425.48633 326.61328 C 430.89374 315.42231 437.5425 304.87686 445.32031 295.18359 L 445.4668 295 L 445.60742 294.81055 C 450.35527 288.39337 455.46728 281.47205 460.36328 273.72852 L 468.61523 255.58789 L 424.55273 255.31641 L 420.9668 260.39258 C 418.53719 263.83134 415.9919 267.28775 413.37109 270.82812 C 403.76159 282.91319 395.55401 296.0497 388.91406 309.99023 L 388.83008 310.16602 L 388.75391 310.34375 C 388.56146 310.78391 388.38185 311.22836 388.19336 311.66992 C 387.50322 311.33332 386.81703 311.14585 386.33789 311.11328 C 384.94197 311.01839 384.51002 311.18495 384.23242 311.3418 C 384.05774 311.39214 383.87986 311.44927 383.70117 311.47266 C 383.17304 311.54178 382.44819 311.6149 381.74805 311.66602 C 379.71601 311.81433 376.26204 311.23126 374.42188 310.51758 C 374.31779 310.44415 373.66802 310.09581 373.10547 309.7168 C 372.25905 309.14651 371.08865 308.33323 369.70703 307.35742 C 366.94378 305.4058 363.32492 302.79349 359.55078 300.01172 L 343.76367 288.375 L 291.55469 303.19531 C 277.8563 307.08364 265.10009 310.65534 255.5957 313.27539 C 250.84352 314.58541 246.90431 315.65886 244.07812 316.41016 C 242.66504 316.78579 241.5271 317.08063 240.72656 317.28125 C 239.92605 317.48195 238.965 317.62515 239.77148 317.52539 C 238.07372 317.7354 237.83517 317.84012 237.15234 317.7832 C 236.46951 317.72603 234.84881 317.40295 231.39453 316.31055 C 224.486 314.1258 210.52236 309.07591 180.71289 298.375 C 175.52967 296.51434 170.7543 294.82901 167.2168 293.60547 C 165.44804 292.99371 163.99183 292.49952 162.92578 292.14844 C 162.39279 291.97291 161.96236 291.83418 161.59961 291.72461 C 161.41819 291.67 161.26109 291.62245 161.05859 291.57031 C 160.9573 291.54386 160.84925 291.51742 160.66016 291.48047 C 160.47106 291.44378 160.47183 291.29978 159.24609 291.40039 C 157.8674 291.51354 158.44779 291.52692 158.30078 291.5625 C 158.15375 291.59834 157.99829 291.63674 157.80859 291.68555 C 157.4292 291.78377 156.92385 291.91841 156.28711 292.08984 C 155.01362 292.4328 153.22829 292.92193 151.05078 293.52148 C 146.69576 294.72066 140.7773 296.36425 134.33789 298.16797 C 125.87764 300.53774 119.84795 302.18521 115.72852 303.24609 C 111.60907 304.30698 109.03476 304.76261 109.04688 304.76172 C 104.98718 305.06201 100.17908 303.42188 97.335938 300.85938 C 95.766276 299.44464 90.986953 295.51463 85.884766 291.37305 L 76.660156 283.88477 C 78.132939 282.2048 79.514274 280.62387 80.693359 279.24219 C 81.821593 277.9201 82.740605 276.8298 83.628906 275.63672 C 84.073058 275.04015 84.475813 274.59499 85.232422 273.125 C 85.61073 272.39002 86.332929 271.70113 86.605469 268.38867 C 86.741738 266.73245 86.71892 263.84223 84.623047 260.69336 C 82.527172 257.54415 78.513516 255.71322 76.074219 255.4082 L 75.333984 255.31641 L 47.263672 255.31641 z M 75.443359 325.31055 L 75.457031 325.38086 C 75.454583 325.36806 75.449694 325.36046 75.447266 325.34766 C 75.444918 325.33571 75.445725 325.32249 75.443359 325.31055 z M 392.09375 393.78516 C 392.09796 393.83124 392.10706 393.87732 392.11133 393.92383 C 392.11903 393.98953 392.12037 394.05539 392.12891 394.12109 L 392.09375 393.78516 z M 85.523438 433.60742 C 85.555522 433.7495 85.625775 433.87262 85.660156 434.01367 C 85.728802 434.20475 85.778182 434.40056 85.830078 434.5957 L 85.523438 433.60742 z "
     id="Shape"
     transform="matrix(0.1171875,0,0,0.1171875,-2.5,0)" />
</svg>
