<?xml version="1.0" encoding="UTF-8" standalone="no"?>
<svg
   xmlns:dc="http://purl.org/dc/elements/1.1/"
   xmlns:cc="http://creativecommons.org/ns#"
   xmlns:rdf="http://www.w3.org/1999/02/22-rdf-syntax-ns#"
   xmlns:svg="http://www.w3.org/2000/svg"
   xmlns="http://www.w3.org/2000/svg"
   xmlns:sodipodi="http://sodipodi.sourceforge.net/DTD/sodipodi-0.dtd"
   xmlns:inkscape="http://www.inkscape.org/namespaces/inkscape"
   height="512"
   viewBox="0 0 55 60"
   width="512"
   version="1.1"
   id="svg7"
   sodipodi:docname="too_hard_alt.svg"
   inkscape:version="0.92.5 (2060ec1f9f, 2020-04-08)">
  <metadata
     id="metadata13">
    <rdf:RDF>
      <cc:Work
         rdf:about="">
        <dc:format>image/svg+xml</dc:format>
        <dc:type
           rdf:resource="http://purl.org/dc/dcmitype/StillImage" />
        <dc:title></dc:title>
      </cc:Work>
    </rdf:RDF>
  </metadata>
  <defs
     id="defs11" />
  <sodipodi:namedview
     pagecolor="#ffffff"
     bordercolor="#666666"
     borderopacity="1"
     objecttolerance="10"
     gridtolerance="10"
     guidetolerance="10"
     inkscape:pageopacity="0"
     inkscape:pageshadow="2"
     inkscape:window-width="3840"
     inkscape:window-height="2051"
     id="namedview9"
     showgrid="false"
     inkscape:zoom="0.16296602"
     inkscape:cx="-2817.943"
     inkscape:cy="653.02721"
     inkscape:window-x="0"
     inkscape:window-y="0"
     inkscape:window-maximized="1"
     inkscape:current-layer="svg7" />
  <path
     style="fill:#000000;fill-rule:nonzero;stroke:#000000;stroke-width:4;stroke-miterlimit:4;stroke-dasharray:none;stroke-opacity:1"
     d="M 70.798828 222.0625 C 70.368747 223.25227 70.013225 224.4704 69.755859 225.71289 C 68.604418 235.81672 64.474342 245.34963 57.892578 253.10156 C 31.430322 281.61136 23.874055 291.44384 24.800781 301.62109 C 26.243749 308.69366 30.740118 314.76547 37.083984 318.20898 C 39.86144 320.14999 42.794194 321.85765 45.853516 323.31445 C 49.476174 325.16793 55.552029 328.26863 55.964844 330.48438 C 56.514416 333.3392 56.188047 336.29265 55.029297 338.95898 C 53.790853 341.60439 52.501356 343.87892 51.380859 345.86719 C 48.095192 351.68036 43.142505 360.46888 50.910156 367.02344 C 52.72991 368.63259 55.846393 371.08419 58.685547 373.25781 C 56.572189 376.96063 55.62866 381.21591 55.980469 385.46484 C 56.424202 388.76142 58.214774 391.72697 60.925781 393.6543 C 62.804509 394.99386 64.810694 396.18028 66.824219 397.30078 C 71.761144 400.12312 73.682098 401.43773 74.347656 404.04102 C 74.958114 407.19309 74.712464 410.4508 73.638672 413.47656 C 70.846244 423.37883 71.32295 433.91886 74.996094 443.5293 C 79.322594 459.53607 95.442389 469.33678 111.64453 465.8125 C 135.63729 460.01355 159.29715 452.91793 182.52148 444.55664 C 194.14769 451.49032 205.20008 468.34073 213.16992 491.51758 C 216.65075 501.78599 226.27111 508.70809 237.11328 508.74609 L 407.00781 508.74609 C 415.75476 508.73998 423.87672 504.21089 428.48047 496.77344 C 433.08422 489.33599 433.51641 480.04663 429.62109 472.21484 C 419.09995 448.81082 412.55135 423.81797 410.24414 398.26172 C 407.25479 373.06421 411.03422 347.52622 421.19531 324.27539 C 427.25301 311.69603 434.72423 299.84607 443.46289 288.95703 C 456.71255 271.0517 471.35832 251.25101 477.11719 222.0625 L 459.95898 222.0625 C 454.63185 245.54883 442.55201 261.88693 429.93164 278.93164 C 420.42854 290.83945 412.32171 303.7967 405.76953 317.55078 C 394.40119 343.54808 390.16791 372.10568 393.50391 400.2832 C 396.0294 427.7845 403.14736 454.66796 414.56445 479.81445 C 415.81958 482.41987 415.6508 485.48764 414.11719 487.93945 C 412.58353 490.39128 409.89974 491.88518 407.00781 491.89648 L 237.11328 491.89648 C 233.46933 491.86406 230.24836 489.52279 229.09375 486.06641 C 223.60622 468.18134 214.15202 451.76631 201.43555 438.04492 L 207.72852 435.83789 C 213.95443 433.64743 218.68062 431.9953 221.00586 431.25391 C 257.0471 419.91402 275.07519 403.45183 274.57812 382.45703 C 274.58837 380.20357 273.67148 378.04579 272.04102 376.49023 C 270.41057 374.93468 268.21142 374.11854 265.96094 374.23438 C 263.72635 374.28472 261.60233 375.22146 260.05859 376.83789 C 258.51486 378.45433 257.67652 380.61893 257.72852 382.85352 C 257.93067 391.53956 250.85495 404.20146 215.92578 415.1875 C 213.46574 415.96258 208.59596 417.67316 202.14258 419.93945 C 196.10201 422.06252 188.66339 424.69072 180.44922 427.52148 L 180.38086 427.52148 C 156.73691 436.10208 132.64686 443.39684 108.21484 449.375 C 100.33732 450.90158 92.671926 445.89693 90.902344 438.07031 C 88.271567 431.48539 87.972988 424.19727 90.058594 417.41992 C 91.798615 411.75527 92.022024 405.7332 90.707031 399.95508 C 88.29407 392.2282 82.639922 385.93299 75.214844 382.70898 C 74.608259 382.36356 74.002456 382.02767 73.404297 381.67383 C 74.300981 379.82305 75.381884 378.06745 76.630859 376.43359 C 78.026971 374.64475 78.64236 372.36779 78.337891 370.11914 C 78.033422 367.87049 76.833259 365.8395 75.011719 364.48633 C 72.98977 362.98671 68.188538 359.37273 64.734375 356.60938 C 65.164039 355.81743 65.643329 354.92426 66.089844 354.16602 C 67.378836 351.88288 68.862096 349.23681 70.302734 346.2207 C 72.99008 340.33037 73.783277 333.75235 72.570312 327.39258 C 70.607337 317.05525 60.775459 312.02542 53.572266 308.34375 C 51.364733 307.30075 49.236059 306.09821 47.203125 304.74609 C 45.228885 303.37385 43.36524 301.84684 41.632812 300.17969 C 41.776034 295.31011 60.310821 275.3179 70.277344 264.57617 C 79.13038 254.43197 84.746124 241.87164 86.402344 228.50977 C 86.760037 227.53912 87.18871 226.59591 87.683594 225.6875 C 88.369797 224.52632 88.946766 223.31061 89.433594 222.0625 L 70.798828 222.0625 z "
     transform="matrix(0.1171875,0,0,0.1171875,-2.5,0)"
     id="Shape" />
  <path
     style="stroke-width:0.1171875"
     d="m 27.501124,0.07343875 c -2.967318,0 -5.817716,0.77537367 -8.102076,2.19353005 -1.145386,-0.2791099 -2.337996,-0.4202803 -3.554604,-0.4202803 -4.734243,0 -8.9772097,2.1773743 -10.77059,5.4710972 -4.27334019,0.6776473 -7.4138317,3.5714103 -7.4138317,6.9416483 0,3.911079 4.1833494,7.092997 9.3253443,7.092997 2.4030242,0 4.7128974,-0.71028 6.4409994,-1.96512 0.006,9.82e-4 0.01204,0.0019 0.01798,0.0028 0.788341,0.1259 1.594615,0.188927 2.400092,0.188927 2.000404,0 3.949907,-0.386582 5.680811,-1.12248 0.0192,0.0077 0.03876,0.01471 0.05806,0.02234 0.3511,1.838417 0.530615,3.582364 0.529103,5.207015 0,0.980608 -0.06641,1.922189 -0.195795,2.800834 -0.0399,0.26805 0.08327,0.521683 0.308492,0.704797 h 1.70183 c 0.16557,-0.134986 0.276715,-0.310068 0.305759,-0.506172 0.139876,-0.945142 0.21105,-1.954129 0.21105,-2.999459 -9.93e-4,-1.411684 -0.128264,-2.905295 -0.377248,-4.462561 1.112276,0.234866 2.267675,0.355862 3.434851,0.355862 1.122542,0 2.233567,-0.11266 3.306444,-0.33006 -0.245254,1.538915 -0.372311,3.01694 -0.373834,4.413728 0,1.242925 0.100482,2.425201 0.298931,3.528662 h 2.356379 c -0.213897,-1.090991 -0.323973,-2.273163 -0.323973,-3.528662 -5.86e-4,-1.777239 0.217559,-3.542424 0.517721,-5.131167 0.06485,-0.02491 0.129854,-0.04918 0.194201,-0.07499 1.730905,0.735899 3.680181,1.122481 5.680585,1.122481 0.814686,0 1.625302,-0.06446 2.418073,-0.191871 1.728103,1.25484 4.037979,1.96512 6.441004,1.96512 5.141995,0 9.325344,-3.181918 9.325344,-7.092997 0,-3.370239 -3.140275,-6.2640014 -7.413602,-6.9416487 -1.793376,-3.2936889 -6.03657,-5.4710632 -10.770814,-5.4710632 -1.216619,0 -2.409215,0.1411713 -3.554612,0.4202803 C 33.318847,0.848841 30.468458,0.07346733 27.501127,0.07346733 Z m 0,1.77324975 c 2.62194,0 5.131834,0.7396427 7.067541,2.0827018 0.32732,0.2271526 0.795708,0.2932677 1.208471,0.1710909 1.077323,-0.3189194 2.214653,-0.4805438 3.380671,-0.4805438 3.975977,0 7.518897,1.9194616 8.816274,4.7763437 7.11e-4,0.00161 0.0022,0.00313 0.0032,0.00464 0.335957,0.7414828 0.506343,1.5193351 0.506343,2.3119779 0,0.489683 0.52187,0.886624 1.165668,0.886624 0.643798,0 1.165668,-0.396941 1.165668,-0.886624 0,-0.462376 -0.04854,-0.920621 -0.140929,-1.372711 2.562954,0.802307 4.337334,2.725611 4.337334,4.91921 0,2.933308 -3.137513,5.319747 -6.994009,5.319747 -1.36861,0 -2.696959,-0.307665 -3.824848,-0.867923 0.360296,-0.131397 0.712223,-0.276882 1.054114,-0.436385 0.548797,-0.256146 0.720616,-0.801948 0.383843,-1.219282 -0.33675,-0.417334 -1.054336,-0.54802 -1.603015,-0.291963 -0.742414,0.346493 -1.543228,0.61115 -2.380062,0.786879 -0.003,6.21e-4 -0.0059,7.34e-4 -0.0089,0.0013 -0.805127,0.168547 -1.639885,0.254039 -2.480682,0.254039 -1.792097,0 -3.532312,-0.387431 -5.032409,-1.120403 -0.373112,-0.182314 -0.849971,-0.187803 -1.230326,-0.01402 -1.624012,0.742193 -3.489249,1.13443 -5.393947,1.13443 -1.904697,0 -3.769706,-0.392237 -5.393718,-1.13443 -0.380236,-0.173778 -0.857422,-0.168267 -1.230554,0.01402 -1.500098,0.732972 -3.240309,1.120403 -5.032408,1.120403 -0.840795,0 -1.675332,-0.08549 -2.480459,-0.254039 -0.0026,-5.32e-4 -0.0053,-5.25e-4 -0.0078,-0.0011 -1.158091,-0.243201 -2.230688,-0.650206 -3.188284,-1.209931 -0.5104801,-0.298371 -1.2424206,-0.225474 -1.6346679,0.162778 -0.3922473,0.388253 -0.2964364,0.944831 0.2140097,1.243181 0.6472949,0.378411 1.3381842,0.699026 2.0642792,0.963684 -1.1282497,0.560613 -2.4570208,0.868616 -3.8262145,0.868616 -3.856495,0 -6.99400823,-2.38644 -6.99400823,-5.319749 0,-2.193599 1.77437873,-4.116902 4.33733303,-4.9192086 -0.092438,0.45209 -0.1409281,0.9103346 -0.1409281,1.3727096 0,0.489683 0.5218697,0.886625 1.1656681,0.886625 0.6437985,0 1.165668,-0.396942 1.165668,-0.886625 0,-0.7926423 0.1703927,-1.5704053 0.5063371,-2.3119765 6.993e-4,-0.00161 0.00194,-0.00313 0.00274,-0.00464 1.2973851,-2.8568911 4.8402996,-4.7763437 8.8162756,-4.7763437 1.166019,0 2.303583,0.1617128 3.380893,0.4805438 0.41288,0.1221768 0.881034,0.055711 1.208242,-0.1712641 1.935703,-1.3429707 4.445607,-2.0825286 7.067545,-2.0825286 z"
     id="path1895"
     inkscape:connector-curvature="0" />
  <rect
     style="opacity:1;fill:#000000;fill-opacity:1;fill-rule:evenodd;stroke:#000000;stroke-width:1.64062512;stroke-linecap:butt;stroke-linejoin:miter;stroke-miterlimit:4;stroke-dasharray:none;stroke-dashoffset:2.25;stroke-opacity:1;paint-order:normal"
     id="rect2473"
     width="45.156651"
     height="0.64018637"
     x="6.6044698"
     y="26.612209" />
</svg>
