<?xml version="1.0" encoding="UTF-8" standalone="no"?>
<svg
   xmlns:dc="http://purl.org/dc/elements/1.1/"
   xmlns:cc="http://creativecommons.org/ns#"
   xmlns:rdf="http://www.w3.org/1999/02/22-rdf-syntax-ns#"
   xmlns:svg="http://www.w3.org/2000/svg"
   xmlns="http://www.w3.org/2000/svg"
   xmlns:sodipodi="http://sodipodi.sourceforge.net/DTD/sodipodi-0.dtd"
   xmlns:inkscape="http://www.inkscape.org/namespaces/inkscape"
   height="512"
   viewBox="0 0 55 60"
   width="512"
   version="1.1"
   id="svg7"
   sodipodi:docname="too_hard_draft++.svg"
   inkscape:version="0.92.5 (2060ec1f9f, 2020-04-08)">
  <metadata
     id="metadata13">
    <rdf:RDF>
      <cc:Work
         rdf:about="">
        <dc:format>image/svg+xml</dc:format>
        <dc:type
           rdf:resource="http://purl.org/dc/dcmitype/StillImage" />
        <dc:title></dc:title>
      </cc:Work>
    </rdf:RDF>
  </metadata>
  <defs
     id="defs11" />
  <sodipodi:namedview
     pagecolor="#ffffff"
     bordercolor="#666666"
     borderopacity="1"
     objecttolerance="10"
     gridtolerance="10"
     guidetolerance="10"
     inkscape:pageopacity="0"
     inkscape:pageshadow="2"
     inkscape:window-width="3840"
     inkscape:window-height="2051"
     id="namedview9"
     showgrid="false"
     inkscape:zoom="0.92187498"
     inkscape:cx="720.79973"
     inkscape:cy="87.605017"
     inkscape:window-x="0"
     inkscape:window-y="0"
     inkscape:window-maximized="1"
     inkscape:current-layer="svg7" />
  <path
     style="stroke:#000000;stroke-width:2.34374976;stroke-miterlimit:4;stroke-dasharray:none;stroke-opacity:1"
     d="m 27.615396,1.1156667 c -3.195662,0 -6.180876,1.0513434 -8.099739,2.7998422 -1.509593,-0.8195493 -3.380275,-1.276101 -5.307476,-1.276101 -4.8022226,0 -8.7089408,2.776481 -8.7089408,6.1890565 0,0.1476508 0.00732,0.2949492 0.021794,0.4414849 -3.4060102,0.7027891 -5.82875604,2.9333567 -5.82875604,5.5500257 0,2.151526 1.68837974,4.129604 4.33305354,5.118996 l 4.3292957,5.384279 c 0.2420214,0.300988 0.6360382,0.476114 1.0508243,0.476114 0.060412,0 0.1210646,-0.0035 0.1818579,-0.01111 0.4787854,-0.05955 0.8786044,-0.348387 1.0335414,-0.746842 l 1.224667,-3.150285 c 1.401599,0.651825 3.041965,1.002759 4.76716,1.002759 1.143417,0 2.267145,-0.157655 3.311035,-0.460651 0.804945,1.785076 1.418387,8.602773 1.809572,10.83448 l -4.971264,-2.01532 c -0.220731,-0.06501 -0.457329,-0.07659 -0.684601,-0.03332 l -5.284672,1.523937 -4.675,-2.173464 C 5.8539222,30.202541 5.3690817,30.000381 4.8755456,30.053575 c -0.3563232,0.03762 -0.6695482,0.203382 -0.875728,0.446276 l 5.1268925,4.129979 c 0.2938857,0.372897 0.8197301,0.556336 1.3303759,0.459561 l 5.819227,-1.625216 8.674824,3.105418 c 0.262415,0.07728 0.54604,0.07875 0.809098,0.0039 l 12.146225,-3.444754 3.633417,2.674981 c 0.270434,0.120022 0.572907,0.149526 0.855936,0.09583 l 8.94782,-4.524577 c -0.06988,-0.164561 0.304986,-0.782518 0.230753,-0.946286 -0.157238,-0.346376 -0.502201,-0.601777 -0.920319,-0.681066 -0.417861,-0.07929 -0.854204,0.02803 -1.162538,0.285974 l -7.600213,3.422218 -3.293492,-2.524262 c -0.303715,-0.134826 -0.656583,-0.158868 -0.980435,-0.06686 l -3.859618,1.094672 c 0.384385,-1.731547 0.908625,-8.099941 1.55056,-9.525927 1.043503,0.302773 2.167135,0.460215 3.310034,0.460215 1.314899,0 2.585346,-0.205431 3.738379,-0.593292 0.03666,0.06647 0.07993,0.130691 0.132011,0.190577 0.234973,0.270097 0.59843,0.43277 0.987704,0.442137 l 9.283066,0.222812 c 0.01193,3.34e-4 0.02375,4.35e-4 0.03558,4.35e-4 0.504689,0 0.964053,-0.257799 1.17081,-0.660158 0.211618,-0.411726 0.117082,-0.893903 -0.239474,-1.221432 l -1.791043,-1.645711 c 2.211688,-1.053961 3.603363,-2.848229 3.603363,-4.809283 0,-2.616668 -2.422857,-4.8472363 -5.828747,-5.5500254 0.01444,-0.1465346 0.02179,-0.293833 0.02179,-0.4414838 0,-3.4126881 -3.906963,-6.188839 -8.709191,-6.188839 -1.927199,0 -3.797629,0.4564457 -5.307226,1.2758835 C 33.796394,2.1669042 30.811068,1.1156656 27.615396,1.1156656 Z m 0,2.2305081 c 2.875924,0 5.49061,1.0447395 6.823469,2.7266607 0.207645,0.2619577 0.534174,0.4343536 0.897271,0.4737193 0.363361,0.039139 0.728232,-0.058026 1.003481,-0.2674609 1.177013,-0.8956044 2.883789,-1.4093954 4.682994,-1.4093954 3.3878,0 6.143871,1.7760161 6.143871,3.9587659 0,0.3335522 -0.06572,0.6649533 -0.195124,0.9848996 -0.131729,0.3253 -0.08283,0.685156 0.132254,0.974881 0.215222,0.289725 0.572253,0.476619 0.967414,0.506171 2.749068,0.205864 4.902669,1.754317 4.902669,3.52534 0,1.291051 -1.135938,2.488293 -2.888197,3.10934 l -3.732115,-3.42929 c -0.321544,-0.295412 -0.802365,-0.415254 -1.254727,-0.312545 -0.452502,0.102485 -0.805147,0.410889 -0.920062,0.804995 l -1.332884,4.572531 c -1.149325,0.709815 -2.635414,1.098375 -4.227345,1.098375 -1.219608,0 -2.399519,-0.233041 -3.412235,-0.674097 -0.491869,-0.214004 -1.085999,-0.132153 -1.476665,0.204298 -1.472662,1.26685 -3.700902,1.99354 -6.113819,1.99354 -2.412909,0 -4.641414,-0.72669 -6.114068,-1.99354 -0.39093,-0.336339 -0.984797,-0.41819 -1.476664,-0.204298 -1.012723,0.441056 -2.192763,0.674097 -3.412236,0.674097 -1.43995,1.11e-4 -2.829312,-0.332683 -3.929506,-0.926965 l 1.073117,-2.759985 c 0.157629,-0.40559 0.03444,-0.853934 -0.317377,-1.153696 -0.351811,-0.299649 -0.869607,-0.397629 -1.333131,-0.252432 l -7.2119855,2.262961 c -1.614379,-0.647031 -2.6367041,-1.798963 -2.6367041,-3.013289 0,-1.771023 2.1536027,-3.319589 4.9026771,-3.52534 C 7.5549306,11.264861 7.9119617,11.07797 8.1271782,10.788245 8.3423947,10.498409 8.3912887,10.138664 8.2594393,9.813364 8.1298985,9.4934177 8.0643034,9.1620166 8.0643034,8.8284644 c 0,-2.1827498 2.7560806,-3.9587659 6.1438776,-3.9587659 1.799071,0 3.505974,0.5136795 4.682994,1.4093954 0.275241,0.2094321 0.640249,0.3070497 1.003732,0.2674609 0.363096,-0.039482 0.68937,-0.2117616 0.897021,-0.4737193 1.332853,-1.6819212 3.947551,-2.7266607 6.823468,-2.7266607 z m 18.476966,14.1588602 3.642697,3.347179 -4.586307,-0.110208 z m -35.618051,0.94831 -1.4711534,3.783871 -2.1332118,-2.652827 z m 21.630697,5.236391 c -0.461344,1.345358 -0.83522,7.544574 -1.10944,9.052861 l -5.625354,1.595398 -0.921318,-0.271163 c -0.279987,-1.995734 -0.727018,-8.644673 -1.321108,-10.376443 1.377873,0.472727 2.906325,0.727023 4.487608,0.727023 1.58194,0 3.111225,-0.254503 4.489612,-0.727676 z"
     id="path2521"
     inkscape:connector-curvature="0"
     sodipodi:nodetypes="scsscsccscccscccccccccccccccccccccccccsccccscccscsscsscccsscccscccccsccsccccccccscccsscccscccccccccccccscc" />
  <path
     inkscape:connector-curvature="0"
     id="path2531"
     d="m 37.005914,14.249532 c 0.167618,0.156759 0.405538,0.24441 0.652414,0.24441 0.04241,0 0.08512,-0.0026 0.127724,-0.0078 0.290793,-0.03592 0.540907,-0.191863 0.665915,-0.4153 l 2.197009,-3.927123 C 40.776446,9.9157207 40.756371,9.6488618 40.59549,9.4363179 40.434628,9.2237741 40.155406,9.0949074 39.855501,9.0949074 h -6.39448 c -0.345926,0 -0.659513,0.1708158 -0.800566,0.4360549 -0.141054,0.2652381 -0.08292,0.5752237 0.147981,0.7914477 z m 1.469288,-3.682724 -1.047793,1.873007 -2.002035,-1.873007 z"
     style="stroke:#000000;stroke-width:2.34375;stroke-miterlimit:4;stroke-dasharray:none;stroke-opacity:1" />
  <path
     inkscape:connector-curvature="0"
     id="path2533"
     d="m 27.646582,15.323943 c 0.130391,-0.277267 0.04874,-0.592856 -0.207108,-0.800346 l -4.725908,-3.832708 c -0.204636,-0.165991 -0.492788,-0.239165 -0.773348,-0.196191 -0.280559,0.0429 -0.519098,0.19656 -0.640308,0.412467 l -2.219494,3.952771 c -0.129774,0.23119 -0.107527,0.502034 0.0588,0.716168 0.163145,0.209926 0.44185,0.336117 0.740243,0.336117 0.0061,0 0.01228,-7.4e-5 0.01836,-1.47e-4 l 6.945392,-0.120063 c 0.356218,-0.0062 0.673061,-0.190727 0.803369,-0.468068 z m -6.363357,-0.912951 1.089221,-1.939761 2.319164,1.880837 z"
     style="stroke:#000000;stroke-width:2.34375;stroke-miterlimit:4;stroke-dasharray:none;stroke-opacity:1" />
  <path
     style="fill:#000000;fill-rule:nonzero;stroke:#000000;stroke-width:24.00000191;stroke-miterlimit:4;stroke-dasharray:none;stroke-opacity:1"
     d="m 52.658203,267.31641 c -15.070012,16.97786 -19.656198,24.6529 -18.939453,32.52539 1.386377,6.79627 5.707667,12.63046 11.802734,15.93945 2.668527,1.86518 5.486443,3.50636 8.425782,4.90625 3.480582,1.78106 9.316266,4.76145 9.71289,6.89062 0.528017,2.74331 0.214866,5.58041 -0.898437,8.14258 -1.189873,2.54206 -2.427354,4.72809 -3.503907,6.63868 -3.156806,5.58607 -7.916135,14.03159 -0.453124,20.33007 1.748386,1.54629 4.742897,3.90152 7.470703,5.99024 -2.030475,3.55816 -2.935668,7.64751 -2.597657,11.73047 0.426334,3.16778 2.145316,6.0171 4.75,7.86914 1.805047,1.28723 3.73146,2.42913 5.666016,3.50586 4.743305,2.71208 6.58906,3.97497 7.228516,6.47656 0.586513,3.02894 0.351992,6.15887 -0.679688,9.0664 -2.682913,9.51544 -2.226353,19.64197 1.302734,28.87696 4.156821,15.38143 19.644228,24.80067 35.210938,21.41406 23.05178,-5.57239 45.78415,-12.39114 68.09766,-20.42578 11.17024,6.66278 21.78998,22.85554 29.44726,45.12695 3.34432,9.86725 12.58694,16.51817 23.00391,16.55469 H 400.9375 c 8.4039,-0.006 16.20766,-4.357 20.63086,-11.50391 4.4232,-7.14688 4.83629,-16.07379 1.09375,-23.59961 -10.10852,-22.48972 -16.40046,-46.50659 -18.61719,-71.06445 -2.8721,-24.21312 0.76089,-48.75321 10.52344,-71.0957 5.82012,-12.08795 12.99662,-23.47386 21.39258,-33.9375 4.73885,-6.40501 9.65714,-13.07789 14.25976,-20.35742 h -19.45312 c -2.53842,3.59278 -5.15487,7.14331 -7.80469,10.72265 -9.13039,11.4426 -16.91964,23.89457 -23.21484,37.11133 -10.9225,24.98168 -14.99033,52.42329 -11.78516,79.5 2.42644,26.42692 9.26504,52.25972 20.23438,76.42383 1.20589,2.50363 1.04374,5.45062 -0.42969,7.80664 -1.47351,2.35604 -4.05157,3.79186 -6.83008,3.80273 H 237.70508 c -3.50104,-0.0316 -6.59576,-2.28021 -7.70508,-5.60156 -5.27232,-17.18635 -14.35647,-32.96114 -26.57422,-46.14648 l 6.04688,-2.1211 c 5.98173,-2.1049 10.52377,-3.69188 12.75781,-4.40429 34.62775,-10.89688 42.74514,-15.59297 42.26758,-35.76758 0.0102,-2.16542 -0.87294,-4.23959 -2.43946,-5.73438 -1.56649,-1.4948 -3.67958,-2.27927 -5.84179,-2.16797 -2.14696,0.0486 -4.18674,0.94867 -5.66992,2.50196 -1.48319,1.5533 -2.28825,3.63203 -2.23829,5.77929 0.19422,8.34672 2.6003,9.39432 -30.95898,19.95118 -2.36357,0.74479 -7.04386,2.38669 -13.24414,4.56445 -5.80366,2.04013 -12.94978,4.56694 -20.8418,7.28711 h -0.0644 c -22.71662,8.24539 -45.86407,15.25538 -69.33789,21 -7.56858,1.46694 -14.932633,-3.34243 -16.632814,-10.86328 -2.527601,-6.32768 -2.814358,-13.33117 -0.810547,-19.84375 1.671779,-5.44335 1.886467,-11.23081 0.623047,-16.78321 -2.318328,-7.425 -7.750891,-13.47225 -14.884766,-16.57031 -0.582793,-0.33193 -1.165533,-0.65607 -1.740234,-0.99609 0.861517,-1.77847 1.899616,-3.46513 3.099609,-5.03516 1.341356,-1.71896 1.933154,-3.90755 1.640625,-6.06836 -0.292528,-2.16081 -1.443257,-4.1118 -3.193359,-5.41211 -1.94265,-1.44104 -6.556306,-4.91491 -9.875,-7.57031 0.412817,-0.76101 0.873731,-1.61902 1.302734,-2.34766 1.238439,-2.19393 2.662736,-4.73648 4.046875,-7.63476 2.58195,-5.66022 3.343127,-11.98243 2.177734,-18.09375 -1.885989,-9.93349 -11.333212,-14.76684 -18.253906,-18.30469 -2.120956,-1.00225 -4.165936,-2.15577 -6.11914,-3.45508 -1.896812,-1.31863 -3.685127,-2.78664 -5.34961,-4.38867 1.673398,-5.71887 26.12332,-30.96182 24.69336,-31.14062 z"
     transform="matrix(0.1171875,0,0,0.1171875,-2.5,0)"
     id="Shape"
     inkscape:connector-curvature="0"
     sodipodi:nodetypes="cccccccccccccccccccccccccccccccccccccccccsccccccccccccscccccccccc" />
</svg>
