<?xml version="1.0" encoding="UTF-8" standalone="no"?>
<svg
   xmlns:dc="http://purl.org/dc/elements/1.1/"
   xmlns:cc="http://creativecommons.org/ns#"
   xmlns:rdf="http://www.w3.org/1999/02/22-rdf-syntax-ns#"
   xmlns:svg="http://www.w3.org/2000/svg"
   xmlns="http://www.w3.org/2000/svg"
   xmlns:sodipodi="http://sodipodi.sourceforge.net/DTD/sodipodi-0.dtd"
   xmlns:inkscape="http://www.inkscape.org/namespaces/inkscape"
   height="512"
   viewBox="0 0 55 60"
   width="512"
   version="1.1"
   id="svg7"
   sodipodi:docname="too_hard_draft+.svg"
   inkscape:version="0.92.5 (2060ec1f9f, 2020-04-08)">
  <metadata
     id="metadata13">
    <rdf:RDF>
      <cc:Work
         rdf:about="">
        <dc:format>image/svg+xml</dc:format>
        <dc:type
           rdf:resource="http://purl.org/dc/dcmitype/StillImage" />
        <dc:title></dc:title>
      </cc:Work>
    </rdf:RDF>
  </metadata>
  <defs
     id="defs11" />
  <sodipodi:namedview
     pagecolor="#ffffff"
     bordercolor="#666666"
     borderopacity="1"
     objecttolerance="10"
     gridtolerance="10"
     guidetolerance="10"
     inkscape:pageopacity="0"
     inkscape:pageshadow="2"
     inkscape:window-width="3840"
     inkscape:window-height="2051"
     id="namedview9"
     showgrid="false"
     inkscape:zoom="2.6074562"
     inkscape:cx="408.64229"
     inkscape:cy="253.44118"
     inkscape:window-x="0"
     inkscape:window-y="0"
     inkscape:window-maximized="1"
     inkscape:current-layer="svg7" />
  <path
     style="stroke:#000000;stroke-width:2.34374976;stroke-miterlimit:4;stroke-dasharray:none;stroke-opacity:1"
     d="m 27.615396,1.1156667 c -3.195662,0 -6.180876,1.0513434 -8.099739,2.7998422 -1.509593,-0.8195493 -3.380275,-1.276101 -5.307476,-1.276101 -4.8022226,0 -8.7089408,2.776481 -8.7089408,6.1890565 0,0.1476508 0.00732,0.2949492 0.021794,0.4414849 -3.4060102,0.7027891 -5.82875604,2.9333567 -5.82875604,5.5500257 0,2.151526 1.68837974,4.129604 4.33305354,5.118996 l 4.3292957,5.384279 c 0.2420214,0.300988 0.6360382,0.476114 1.0508243,0.476114 0.060412,0 0.1210646,-0.0035 0.1818579,-0.01111 0.4787854,-0.05955 0.8786044,-0.348387 1.0335414,-0.746842 l 1.224667,-3.150285 c 1.401599,0.651825 3.041965,1.002759 4.76716,1.002759 1.143417,0 2.267145,-0.157655 3.311035,-0.460651 0.804945,1.785076 1.418387,8.602773 1.809572,10.83448 l -6.846264,-2.01532 c -0.220731,-0.06501 -0.457329,-0.07659 -0.684601,-0.03332 L 4.9333731,32.977387 3.539623,31.038298 C 3.2757972,30.671291 2.7909567,30.469131 2.2974206,30.522325 c -0.3563232,0.03762 -0.6695482,0.203382 -0.875728,0.446276 l 1.8456425,3.895604 c 0.2938857,0.372897 0.8197301,0.556336 1.3303764,0.459561 l 9.8036015,-1.859591 10.549824,3.105418 c 0.262415,0.07728 0.54604,0.07875 0.809098,0.0039 l 12.146225,-3.444754 7.617792,3.378106 c 0.270434,0.120022 0.572907,0.149526 0.855936,0.09583 l 6.838445,-5.696452 c -0.06988,-0.164561 0.304986,-0.782518 0.230753,-0.946286 -0.157238,-0.346376 -0.502201,-0.601777 -0.920319,-0.681066 -0.417861,-0.07929 -0.854204,0.02803 -1.162538,0.285974 l -5.490838,4.594093 -7.277867,-3.227387 c -0.303715,-0.134826 -0.656583,-0.158868 -0.980435,-0.06686 l -3.859618,1.094672 c 0.384385,-1.731547 0.908625,-8.099941 1.55056,-9.525927 1.043503,0.302773 2.167135,0.460215 3.310034,0.460215 1.314899,0 2.585346,-0.205431 3.738379,-0.593292 0.03666,0.06647 0.07993,0.130691 0.132011,0.190577 0.234973,0.270097 0.59843,0.43277 0.987704,0.442137 l 9.283066,0.222812 c 0.01193,3.34e-4 0.02375,4.35e-4 0.03558,4.35e-4 0.504689,0 0.964053,-0.257799 1.17081,-0.660158 0.211618,-0.411726 0.117082,-0.893903 -0.239474,-1.221432 l -1.791043,-1.645711 c 2.211688,-1.053961 3.603363,-2.848229 3.603363,-4.809283 0,-2.616668 -2.422857,-4.8472363 -5.828747,-5.5500254 0.01444,-0.1465346 0.02179,-0.293833 0.02179,-0.4414838 0,-3.4126881 -3.906963,-6.188839 -8.709191,-6.188839 -1.927199,0 -3.797629,0.4564457 -5.307226,1.2758835 C 33.796394,2.1669042 30.811068,1.1156656 27.615396,1.1156656 Z m 0,2.2305081 c 2.875924,0 5.49061,1.0447395 6.823469,2.7266607 0.207645,0.2619577 0.534174,0.4343536 0.897271,0.4737193 0.363361,0.039139 0.728232,-0.058026 1.003481,-0.2674609 1.177013,-0.8956044 2.883789,-1.4093954 4.682994,-1.4093954 3.3878,0 6.143871,1.7760161 6.143871,3.9587659 0,0.3335522 -0.06572,0.6649533 -0.195124,0.9848996 -0.131729,0.3253 -0.08283,0.685156 0.132254,0.974881 0.215222,0.289725 0.572253,0.476619 0.967414,0.506171 2.749068,0.205864 4.902669,1.754317 4.902669,3.52534 0,1.291051 -1.135938,2.488293 -2.888197,3.10934 l -3.732115,-3.42929 c -0.321544,-0.295412 -0.802365,-0.415254 -1.254727,-0.312545 -0.452502,0.102485 -0.805147,0.410889 -0.920062,0.804995 l -1.332884,4.572531 c -1.149325,0.709815 -2.635414,1.098375 -4.227345,1.098375 -1.219608,0 -2.399519,-0.233041 -3.412235,-0.674097 -0.491869,-0.214004 -1.085999,-0.132153 -1.476665,0.204298 -1.472662,1.26685 -3.700902,1.99354 -6.113819,1.99354 -2.412909,0 -4.641414,-0.72669 -6.114068,-1.99354 -0.39093,-0.336339 -0.984797,-0.41819 -1.476664,-0.204298 -1.012723,0.441056 -2.192763,0.674097 -3.412236,0.674097 -1.43995,1.11e-4 -2.829312,-0.332683 -3.929506,-0.926965 l 1.073117,-2.759985 c 0.157629,-0.40559 0.03444,-0.853934 -0.317377,-1.153696 -0.351811,-0.299649 -0.869607,-0.397629 -1.333131,-0.252432 l -7.2119855,2.262961 c -1.614379,-0.647031 -2.6367041,-1.798963 -2.6367041,-3.013289 0,-1.771023 2.1536027,-3.319589 4.9026771,-3.52534 C 7.5549306,11.264861 7.9119617,11.07797 8.1271782,10.788245 8.3423947,10.498409 8.3912887,10.138664 8.2594393,9.813364 8.1298985,9.4934177 8.0643034,9.1620166 8.0643034,8.8284644 c 0,-2.1827498 2.7560806,-3.9587659 6.1438776,-3.9587659 1.799071,0 3.505974,0.5136795 4.682994,1.4093954 0.275241,0.2094321 0.640249,0.3070497 1.003732,0.2674609 0.363096,-0.039482 0.68937,-0.2117616 0.897021,-0.4737193 1.332853,-1.6819212 3.947551,-2.7266607 6.823468,-2.7266607 z m 18.476966,14.1588602 3.642697,3.347179 -4.586307,-0.110208 z m -35.618051,0.94831 -1.4711534,3.783871 -2.1332118,-2.652827 z m 21.630697,5.236391 c -0.461344,1.345358 -0.83522,7.544574 -1.10944,9.052861 l -5.625354,1.595398 -0.921318,-0.271163 c -0.279987,-1.995734 -0.727018,-8.644673 -1.321108,-10.376443 1.377873,0.472727 2.906325,0.727023 4.487608,0.727023 1.58194,0 3.111225,-0.254503 4.489612,-0.727676 z"
     id="path2521"
     inkscape:connector-curvature="0"
     sodipodi:nodetypes="scsscsccscccscccccccccccccccccccccccccsccccscccscsscsscccsscccscccccsccsccccccccscccsscccscccccccccccccscc" />
  <path
     inkscape:connector-curvature="0"
     id="path2531"
     d="m 37.005914,14.249532 c 0.167618,0.156759 0.405538,0.24441 0.652414,0.24441 0.04241,0 0.08512,-0.0026 0.127724,-0.0078 0.290793,-0.03592 0.540907,-0.191863 0.665915,-0.4153 l 2.197009,-3.927123 C 40.776446,9.9157207 40.756371,9.6488618 40.59549,9.4363179 40.434628,9.2237741 40.155406,9.0949074 39.855501,9.0949074 h -6.39448 c -0.345926,0 -0.659513,0.1708158 -0.800566,0.4360549 -0.141054,0.2652381 -0.08292,0.5752237 0.147981,0.7914477 z m 1.469288,-3.682724 -1.047793,1.873007 -2.002035,-1.873007 z"
     style="stroke:#000000;stroke-width:2.34375;stroke-miterlimit:4;stroke-dasharray:none;stroke-opacity:1" />
  <path
     inkscape:connector-curvature="0"
     id="path2533"
     d="m 27.646582,15.323943 c 0.130391,-0.277267 0.04874,-0.592856 -0.207108,-0.800346 l -4.725908,-3.832708 c -0.204636,-0.165991 -0.492788,-0.239165 -0.773348,-0.196191 -0.280559,0.0429 -0.519098,0.19656 -0.640308,0.412467 l -2.219494,3.952771 c -0.129774,0.23119 -0.107527,0.502034 0.0588,0.716168 0.163145,0.209926 0.44185,0.336117 0.740243,0.336117 0.0061,0 0.01228,-7.4e-5 0.01836,-1.47e-4 l 6.945392,-0.120063 c 0.356218,-0.0062 0.673061,-0.190727 0.803369,-0.468068 z m -6.363357,-0.912951 1.089221,-1.939761 2.319164,1.880837 z"
     style="stroke:#000000;stroke-width:2.34375;stroke-miterlimit:4;stroke-dasharray:none;stroke-opacity:1" />
  <path
     style="fill:#000000;fill-rule:nonzero;stroke:#000000;stroke-width:24.00000191;stroke-miterlimit:4;stroke-dasharray:none;stroke-opacity:1"
     d="M 52.658203 267.31641 C 37.588191 284.29427 33.002005 291.96931 33.71875 299.8418 C 35.105127 306.63807 39.426417 312.47226 45.521484 315.78125 C 48.190011 317.64643 51.007927 319.28761 53.947266 320.6875 C 57.427848 322.46856 63.263532 325.44895 63.660156 327.57812 C 64.188173 330.32143 63.875022 333.15853 62.761719 335.7207 C 61.571846 338.26276 60.334365 340.44879 59.257812 342.35938 C 56.101006 347.94545 51.341677 356.39097 58.804688 362.68945 C 60.553074 364.23574 63.547585 366.59097 66.275391 368.67969 C 64.244916 372.23785 63.339723 376.3272 63.677734 380.41016 C 64.104068 383.57794 65.82305 386.42726 68.427734 388.2793 C 70.232781 389.56653 72.159194 390.70843 74.09375 391.78516 C 78.837055 394.49724 80.68281 395.76013 81.322266 398.26172 C 81.908779 401.29066 81.674258 404.42059 80.642578 407.32812 C 77.959665 416.84356 78.416225 426.97009 81.945312 436.20508 C 86.102133 451.58651 101.58954 461.00575 117.15625 457.61914 C 140.20803 452.04675 162.9404 445.228 185.25391 437.19336 C 196.42415 443.85614 207.04389 460.0489 214.70117 482.32031 C 218.04549 492.18756 227.28811 498.83848 237.70508 498.875 L 400.9375 498.875 C 409.3414 498.869 417.14516 494.518 421.56836 487.37109 C 425.99156 480.22421 426.40465 471.2973 422.66211 463.77148 C 412.55359 441.28176 406.26165 417.26489 404.04492 392.70703 C 401.17282 368.49391 404.80581 343.95382 414.56836 321.61133 C 420.38848 309.52338 427.56498 298.13747 435.96094 287.67383 C 440.69979 281.26882 445.61808 274.59594 450.2207 267.31641 L 430.76758 267.31641 C 428.22916 270.90919 425.61271 274.45972 422.96289 278.03906 C 413.8325 289.48166 406.04325 301.93363 399.74805 315.15039 C 388.82555 340.13207 384.75772 367.57368 387.96289 394.65039 C 390.38933 421.07731 397.22793 446.91011 408.19727 471.07422 C 409.40316 473.57785 409.24101 476.52484 407.76758 478.88086 C 406.29407 481.2369 403.71601 482.67272 400.9375 482.68359 L 237.70508 482.68359 C 234.20404 482.65202 231.10932 480.40338 230 477.08203 C 224.72768 459.89568 215.64353 444.12089 203.42578 430.93555 L 209.47266 428.81445 C 215.45439 426.70955 219.99643 425.12257 222.23047 424.41016 C 256.85822 413.51328 264.97561 408.81719 264.49805 388.64258 C 264.50829 386.47716 263.62511 384.40299 262.05859 382.9082 C 260.4921 381.4134 258.37901 380.62893 256.2168 380.74023 C 254.06984 380.78887 252.03006 381.6889 250.54688 383.24219 C 249.06369 384.79549 248.25863 386.87422 248.30859 389.02148 C 248.50281 397.3682 250.90889 398.4158 217.34961 408.97266 C 214.98604 409.71745 210.30575 411.35935 204.10547 413.53711 C 198.30181 415.57724 191.15569 418.10405 183.26367 420.82422 L 183.19922 420.82422 C 160.4826 429.06961 137.33515 436.0796 113.86133 441.82422 C 106.29275 443.29116 98.928697 438.48179 97.228516 430.96094 C 94.700915 424.63326 94.414158 417.62977 96.417969 411.11719 C 98.089748 405.67384 98.304436 399.88638 97.041016 394.33398 C 94.722688 386.90898 89.290125 380.86173 82.15625 377.76367 C 81.573457 377.43174 80.990717 377.1076 80.416016 376.76758 C 81.277533 374.98911 82.315632 373.30245 83.515625 371.73242 C 84.856981 370.01346 85.448779 367.82487 85.15625 365.66406 C 84.863722 363.50325 83.712993 361.55226 81.962891 360.25195 C 80.020241 358.81091 75.406585 355.33704 72.087891 352.68164 C 72.500708 351.92063 72.961622 351.06262 73.390625 350.33398 C 74.629064 348.14005 76.053361 345.5975 77.4375 342.69922 C 80.01945 337.039 80.780627 330.71679 79.615234 324.60547 C 77.729245 314.67198 68.282022 309.83863 61.361328 306.30078 C 59.240372 305.29853 57.195392 304.14501 55.242188 302.8457 C 53.345376 301.52707 51.557061 300.05906 49.892578 298.45703 C 50.0185 294.1751 64.714988 277.98891 74.585938 267.31641 L 52.658203 267.31641 z "
     transform="matrix(0.1171875,0,0,0.1171875,-2.5,0)"
     id="Shape" />
</svg>
