<?xml version="1.0" encoding="UTF-8" standalone="no"?>
<svg
   xmlns:dc="http://purl.org/dc/elements/1.1/"
   xmlns:cc="http://creativecommons.org/ns#"
   xmlns:rdf="http://www.w3.org/1999/02/22-rdf-syntax-ns#"
   xmlns:svg="http://www.w3.org/2000/svg"
   xmlns="http://www.w3.org/2000/svg"
   xmlns:sodipodi="http://sodipodi.sourceforge.net/DTD/sodipodi-0.dtd"
   xmlns:inkscape="http://www.inkscape.org/namespaces/inkscape"
   height="512"
   viewBox="0 0 55 60"
   width="512"
   version="1.1"
   id="svg7"
   sodipodi:docname="too_hard_outlined.svg"
   inkscape:version="0.92.5 (2060ec1f9f, 2020-04-08)">
  <metadata
     id="metadata13">
    <rdf:RDF>
      <cc:Work
         rdf:about="">
        <dc:format>image/svg+xml</dc:format>
        <dc:type
           rdf:resource="http://purl.org/dc/dcmitype/StillImage" />
        <dc:title></dc:title>
      </cc:Work>
    </rdf:RDF>
  </metadata>
  <defs
     id="defs11" />
  <sodipodi:namedview
     pagecolor="#ffffff"
     bordercolor="#666666"
     borderopacity="1"
     objecttolerance="10"
     gridtolerance="10"
     guidetolerance="10"
     inkscape:pageopacity="0"
     inkscape:pageshadow="2"
     inkscape:window-width="3840"
     inkscape:window-height="2051"
     id="namedview9"
     showgrid="false"
     inkscape:zoom="0.32593203"
     inkscape:cx="840.03131"
     inkscape:cy="874.87903"
     inkscape:window-x="0"
     inkscape:window-y="0"
     inkscape:window-maximized="1"
     inkscape:current-layer="svg7" />
  <path
     style="stroke:#000000;stroke-width:0;stroke-miterlimit:4;stroke-dasharray:none;stroke-opacity:1"
     d="m 256.98242,-0.484375 v 0.001953 c -26.84857,0 -51.37963,8.7183092 -69.83203,23.015625 -13.44463,-6.22686 -28.62435,-10.015625 -44.56641,-10.015625 -22.4167,0 -42.906265,6.380549 -58.316402,17.332031 C 69.939727,40.031945 60.639551,54.96863 59.283203,71.75 30.675619,80.059531 8.6992187,100.21582 8.6992188,126.4668 c 0,22.55204 16.7909052,41.5283 40.4003902,51.46679 l 35.734375,44.41602 c 4.199576,5.22277 10.411398,7.80078 16.765626,7.80078 0.90175,0 1.826,-0.0482 2.7832,-0.16797 7.33922,-0.91283 14.06391,-5.37137 16.90039,-12.66601 l 7.03321,-18.09961 c 10.9127,3.6793 22.49791,6.15039 34.7832,6.15039 7.05279,0 13.73323,-1.6081 20.5,-2.86719 2.02464,7.27054 4.74643,19.52005 6.88281,35.08398 1.62944,11.87084 2.80623,20.72844 4.10156,30.56641 l -26.91796,-10.91797 -0.4668,-0.13281 c -3.43259,-1.01097 -7.03481,-1.18463 -10.54883,-0.51563 l -0.45117,0.082 -41.94922,12.1016 -34.134062,-18.44189 c -5.270083,-4.23806 -13.385695,-4.11206 -18.250075,-4.13014 -5.476323,0.58189 -10.494804,3.43831 -14.031875,7.60523 l -6.059492,8.00817 50.500899,40.96253 c 5.129976,5.68875 12.745495,7.88334 20.158195,6.47852 l 0.41602,-0.0664 47,-13.13281 71.30078,25.51563 0.26563,0.084 c 4.07941,1.20137 8.36907,1.23248 12.46679,0.0664 l 98.9336,-28.06641 27.93359,20.56641 1,0.44922 c 4.27933,1.89922 8.8607,2.32643 13.2168,1.5 l 1.40039,-0.26563 70.23798,-37.09392 13.34405,-11.97249 c 0.29901,-0.76458 0.63797,-1.57525 0.98437,-2.80078 0.40431,-1.43015 2.05841,-3.11431 -0.38281,-8.5 h -0.0176 v -0.0176 c -2.8525,-6.28371 -8.64319,-10.27861 -15.08398,-11.5 -5.90851,-1.12115 -11.95693,0.0709 -16.88867,3.59571 l -58.41016,26.30469 -24.30078,-18.63282 -1.08399,-0.46679 c -4.81409,-2.13709 -10.12505,-2.48294 -15.16601,-1.05079 V 253.75 l -18.19922,5.16602 c 1.19218,-8.55267 2.3278,-16.00965 3.69922,-26.51563 1.09862,-8.41615 2.27456,-16.70631 3.4668,-23.4668 0.57531,-3.26219 0.95423,-4.1203 1.5332,-6.46679 6.85245,1.29257 13.63674,2.89843 20.7832,2.89843 10.49733,0 20.44785,-2.08933 30.03321,-4.79882 3.48243,2.38476 6.94974,5.03093 11.18359,5.13281 l 79.16601,1.90039 c 0.23015,0.006 0.42612,0 0.58399,0 7.71206,0 15.16011,-3.82185 18.88281,-11.06641 3.81039,-7.41352 1.82899,-16.84265 -4.16601,-22.34961 l -6.84961,-6.30078 C 494.2802,157.28027 505.2656,143.47434 505.2656,126.4668 505.2656,100.21815 483.30193,80.06114 454.6992,71.75 453.34297,54.96791 444.04537,40.031441 429.7168,29.849609 414.30607,18.898811 393.81688,12.515625 371.40039,12.515625 c -15.93619,0 -31.12754,3.795956 -44.56836,10.017578 C 308.37781,8.2320184 283.83589,-0.484375 256.98242,-0.484375 Z m 0,39.035156 c 22.11942,0 41.71295,8.539534 50.38477,19.482422 h 0.0156 c 3.61535,4.560997 8.83037,7.163696 14.40039,7.767578 h 0.0176 c 5.56151,0.599049 11.1318,-0.804154 15.6836,-4.267578 7.80315,-5.937517 20.46656,-9.982422 33.91601,-9.982422 12.70715,0 24.08199,3.450946 31.63281,8.316407 7.55083,4.86546 10.78516,10.362597 10.78516,15.466796 0,1.532775 -0.28809,3.052361 -0.93359,4.648438 -2.41025,5.952009 -1.40003,12.963233 2.36523,18.035156 3.7659,5.069532 9.49867,7.879422 15.55078,8.332032 10.06141,0.75341 18.88141,4.0593 24.61719,8.18359 5.73576,4.1243 7.9668,8.43064 7.9668,11.9336 0,4.25583 -4.925,9.82878 -13.25,14.23242 l -26.48438,-24.33203 c -5.40903,-4.96945 -12.6935,-6.63789 -19.68359,-5.05078 -6.98495,1.58198 -13.12284,6.52121 -15.25,13.8164 l -10.08203,34.58399 c -7.61629,3.96625 -17.11091,6.61718 -27.75,6.61718 -9.13347,0 -17.91763,-1.79039 -25.13477,-4.93359 -7.75397,-3.37362 -16.59049,-2.28724 -23.11523,3.33203 -10.2194,8.79118 -27.06794,14.60156 -45.65039,14.60156 -18.58237,0 -35.43153,-5.81079 -45.6504,-14.60156 -6.52344,-5.61248 -15.36494,-6.70315 -23.11718,-3.33203 -7.21695,3.14309 -15.98306,4.93359 -25.11524,4.93359 -7.52877,5.8e-4 -13.81024,-2.52241 -20.16797,-4.70117 l 5.09961,-13.15039 c 2.8837,-7.41994 0.33856,-16.07906 -5.5332,-21.08203 -5.87023,-4.99988 -13.64236,-6.34162 -20.84961,-4.08398 L 64.382812,141.2832 c -9.078239,-4.51038 -13.783203,-10.53516 -13.783203,-14.8164 0,-3.50296 2.215429,-7.80924 7.951172,-11.9336 5.735743,-4.12435 14.571634,-7.43058 24.632813,-8.18359 6.052015,-0.45264 11.767297,-3.26236 15.533203,-8.332032 3.765483,-5.071044 4.779683,-12.083019 2.367183,-18.035156 -0.64463,-1.592159 -0.93359,-3.113166 -0.93359,-4.648438 0,-5.104184 3.23236,-10.601331 10.7832,-15.466796 7.55084,-4.865466 18.94326,-8.316407 31.65039,-8.316407 13.44858,0 26.09595,4.044709 33.89844,9.982422 4.54755,3.460251 10.12408,4.875009 15.70117,4.267578 5.56629,-0.605261 10.80225,-3.208701 14.41602,-7.767578 8.67174,-10.94284 28.26346,-19.482422 50.38281,-19.482422 z M 230.51758,214.06641 c 8.70709,1.82896 17.18308,4.30078 26.46484,4.30078 9.09159,0 17.38861,-2.46059 25.9336,-4.2168 -0.0941,0.70332 -0.25259,1.06012 -0.34961,1.79883 -0.91711,6.9869 -1.75347,15.1558 -2.54883,23.33398 -1.34172,13.79614 -2.49361,25.27261 -3.40039,32.33399 l -37.4668,10.65039 c -1.04668,-9.19363 -2.26666,-22.30527 -3.86719,-37.7168 -1.26901,-12.21925 -3.0698,-21.01591 -4.76562,-30.48437 z"
     transform="matrix(0.1171875,0,0,0.1171875,-2.5,0)"
     id="path2521"
     inkscape:connector-curvature="0"
     sodipodi:nodetypes="cccsscsccscccscsccccccccccccccccccccccccccccccccccccsccscccscccscssccscccccsssccccscscccsccsccccccccsccccssscccscsccsccsc" />
  <path
     style="color:#000000;font-style:normal;font-variant:normal;font-weight:normal;font-stretch:normal;font-size:medium;line-height:normal;font-family:sans-serif;font-variant-ligatures:normal;font-variant-position:normal;font-variant-caps:normal;font-variant-numeric:normal;font-variant-alternates:normal;font-feature-settings:normal;text-indent:0;text-align:start;text-decoration:none;text-decoration-line:none;text-decoration-style:solid;text-decoration-color:#000000;letter-spacing:normal;word-spacing:normal;text-transform:none;writing-mode:lr-tb;direction:ltr;text-orientation:mixed;dominant-baseline:auto;baseline-shift:baseline;text-anchor:start;white-space:normal;shape-padding:0;clip-rule:nonzero;display:inline;overflow:visible;visibility:visible;opacity:1;isolation:auto;mix-blend-mode:normal;color-interpolation:sRGB;color-interpolation-filters:linearRGB;solid-color:#000000;solid-opacity:1;vector-effect:none;fill:#000000;fill-opacity:1;fill-rule:nonzero;stroke:none;stroke-width:2.34375;stroke-linecap:butt;stroke-linejoin:miter;stroke-miterlimit:4;stroke-dasharray:none;stroke-dashoffset:0;stroke-opacity:1;color-rendering:auto;image-rendering:auto;shape-rendering:auto;text-rendering:auto;enable-background:accumulate"
     d="m 33.460938,7.9238281 c -0.731702,0 -1.454742,0.3398323 -1.835938,1.0566407 -0.381454,0.7172859 -0.184343,1.6661602 0.382812,2.1972652 l 4.197266,3.927735 c 0.412505,0.385781 0.928874,0.560547 1.453125,0.560547 0.09031,0 0.180064,-0.0067 0.269531,-0.01758 h 0.002 c 0.619203,-0.07649 1.208152,-0.403924 1.544921,-1.00586 l 2.197266,-3.927734 C 42.014987,10.10114 41.946747,9.2800198 41.529297,8.7285156 41.112185,8.1773934 40.49107,7.9238281 39.855469,7.9238281 Z"
     id="path2531"
     inkscape:connector-curvature="0" />
  <path
     style="color:#000000;font-style:normal;font-variant:normal;font-weight:normal;font-stretch:normal;font-size:medium;line-height:normal;font-family:sans-serif;font-variant-ligatures:normal;font-variant-position:normal;font-variant-caps:normal;font-variant-numeric:normal;font-variant-alternates:normal;font-feature-settings:normal;text-indent:0;text-align:start;text-decoration:none;text-decoration-line:none;text-decoration-style:solid;text-decoration-color:#000000;letter-spacing:normal;word-spacing:normal;text-transform:none;writing-mode:lr-tb;direction:ltr;text-orientation:mixed;dominant-baseline:auto;baseline-shift:baseline;text-anchor:start;white-space:normal;shape-padding:0;clip-rule:nonzero;display:inline;overflow:visible;visibility:visible;opacity:1;isolation:auto;mix-blend-mode:normal;color-interpolation:sRGB;color-interpolation-filters:linearRGB;solid-color:#000000;solid-opacity:1;vector-effect:none;fill:#000000;fill-opacity:1;fill-rule:nonzero;stroke:none;stroke-width:2.34375;stroke-linecap:butt;stroke-linejoin:miter;stroke-miterlimit:4;stroke-dasharray:none;stroke-dashoffset:0;stroke-opacity:1;color-rendering:auto;image-rendering:auto;shape-rendering:auto;text-rendering:auto;enable-background:accumulate"
     d="m 21.763672,9.3359375 c -0.595757,0.091097 -1.160026,0.4168161 -1.486328,0.9980465 l -2.21875,3.953125 c -0.348981,0.621702 -0.274636,1.455594 0.154297,2.007813 h 0.002 c 0.420326,0.540852 1.035277,0.789062 1.664062,0.789062 0.01558,0 0.0271,7.4e-5 0.0332,0 h 0.002 l 6.949219,-0.121093 c 0.748646,-0.01303 1.487609,-0.382632 1.84375,-1.140625 0.3563,-0.757646 0.08333,-1.712155 -0.529297,-2.208985 L 23.451172,9.78125 c -0.49177,-0.3989003 -1.091443,-0.5366119 -1.6875,-0.4453125 z"
     id="path2533"
     inkscape:connector-curvature="0" />
  <path
     style="color:#000000;font-style:normal;font-variant:normal;font-weight:normal;font-stretch:normal;font-size:medium;line-height:normal;font-family:sans-serif;font-variant-ligatures:normal;font-variant-position:normal;font-variant-caps:normal;font-variant-numeric:normal;font-variant-alternates:normal;font-feature-settings:normal;text-indent:0;text-align:start;text-decoration:none;text-decoration-line:none;text-decoration-style:solid;text-decoration-color:#000000;letter-spacing:normal;word-spacing:normal;text-transform:none;writing-mode:lr-tb;direction:ltr;text-orientation:mixed;dominant-baseline:auto;baseline-shift:baseline;text-anchor:start;white-space:normal;shape-padding:0;clip-rule:nonzero;display:inline;overflow:visible;visibility:visible;opacity:1;isolation:auto;mix-blend-mode:normal;color-interpolation:sRGB;color-interpolation-filters:linearRGB;solid-color:#000000;solid-opacity:1;vector-effect:none;fill:#000000;fill-opacity:1;fill-rule:nonzero;stroke:none;stroke-width:2.81250024;stroke-linecap:butt;stroke-linejoin:miter;stroke-miterlimit:4;stroke-dasharray:none;stroke-dashoffset:0;stroke-opacity:1;color-rendering:auto;image-rendering:auto;shape-rendering:auto;text-rendering:auto;enable-background:accumulate"
     d="m 3.0387116,29.919892 -0.4195404,0.47264 c -0.9058321,1.02051 -1.5290348,1.783702 -1.96540843,2.529373 -0.43637355,0.745672 -0.67316882,1.571206 -0.60287472,2.343293 l 0.0070954,0.07736 0.01556402,0.07622 c 0.24183305,1.18551 0.99320693,2.203324 2.04734803,2.793046 0.3501245,0.238107 0.7137851,0.456153 1.0963439,0.63835 l -0.035934,-0.01785 c 0.094933,0.04858 0.1768876,0.09779 0.2746582,0.150375 -0.077674,0.149361 -0.1536988,0.299589 -0.2368928,0.447236 -0.1855207,0.328116 -0.5152386,0.845456 -0.6518555,1.599655 -0.1362536,0.752195 0.1289378,1.874307 0.9084321,2.539215 0.041532,0.03654 0.099641,0.07844 0.1444244,0.116272 -0.062325,0.331513 -0.08741,0.670494 -0.05928,1.010284 l 0.00298,0.03594 0.00481,0.03571 c 0.1017044,0.755693 0.5129346,1.437585 1.134796,1.880036 2.245e-4,1.59e-4 4.622e-4,2.98e-4 6.866e-4,4.57e-4 0.2759243,0.196627 0.5461892,0.355039 0.7949066,0.49347 l -0.01419,-0.0078 c 0.097501,0.05575 0.081183,0.04883 0.1435088,0.08766 -0.00387,0.01391 0.00165,0.0289 -0.0032,0.04257 l -0.015564,0.04395 -0.012588,0.04486 c -0.3885038,1.377899 -0.325273,2.841494 0.1679993,4.18396 0.7008019,2.480428 3.2387264,4.014492 5.7632449,3.46527 l 0.01579,-0.0034 0.01579,-0.0039 c 2.495626,-0.603277 4.954464,-1.345471 7.378464,-2.190857 0.752986,0.714231 1.702438,2.169545 2.392274,4.17595 l -0.0021,-0.006 c 0.583086,1.720364 2.206222,2.888529 4.022599,2.894897 h 0.0025 19.131775 4.58e-4 c 1.469587,-10e-4 2.838991,-0.764664 3.612441,-2.014389 0.773495,-1.249789 0.845943,-2.815917 0.191575,-4.131775 l 0.02358,0.04967 C 47.192756,51.278562 46.495234,48.616329 46.2495,45.893986 l -0.0018,-0.01968 -0.0023,-0.01968 c -0.306166,-2.581112 0.07971,-5.196414 1.116256,-7.579651 0.633681,-1.311442 1.412833,-2.547237 2.324295,-3.683167 l 0.01717,-0.02152 0.01648,-0.0222 c 0.556388,-0.752013 1.155452,-1.563104 1.729202,-2.47055 l 0.967119,-2.125889 -5.163668,-0.03178 -0.420226,0.594863 c -0.286636,0.405693 -0.586989,0.813339 -0.896302,1.231156 l 0.0309,-0.04028 c -1.136987,1.424921 -2.106856,2.975513 -2.890778,4.621352 l -0.0098,0.0206 -0.0089,0.02083 c -1.37727,3.150058 -1.891369,6.609726 -1.490937,10.024109 0.27922,3.022932 1.045858,5.975517 2.23526,8.765716 H 25.672836 c -0.472363,-1.420306 -1.146666,-2.758779 -2.002487,-3.979339 0.07019,-0.02364 0.256076,-0.08957 0.299606,-0.103455 2.050941,-0.645407 3.40504,-1.074202 4.472581,-1.931533 1.062928,-0.853628 1.485324,-2.245307 1.457748,-3.611527 -0.0021,-0.633614 -0.261195,-1.240502 -0.719376,-1.677704 -0.457727,-0.43678 -1.075328,-0.666805 -1.707229,-0.639954 -0.616771,0.01928 -1.203377,0.278677 -1.629868,0.725327 -0.431047,0.451422 -0.665457,1.057199 -0.65094,1.681137 2.03e-4,0.0087 2.86e-4,2.49e-4 4.58e-4,0.0087 -0.273202,0.124964 -1.023955,0.445271 -2.644729,0.955124 l -2.3e-4,2.28e-4 h -4.57e-4 c -0.33448,0.1054 -0.868459,0.294022 -1.595306,0.549317 h -2.3e-4 l -2.29e-4,2.29e-4 c -0.620673,0.218182 -1.393562,0.490075 -2.214889,0.774307 h -0.01602 l -0.232315,0.08446 c -2.595426,0.942055 -5.240145,1.742294 -7.921601,2.400742 -0.151263,0.02528 -0.267285,-0.0491 -0.301666,-0.201187 l -0.02449,-0.108262 -0.0412,-0.103224 c -0.177199,-0.443607 -0.197392,-0.933918 -0.05699,-1.39023 l 2.29e-4,-4.57e-4 v -2.29e-4 c 0.268121,-0.873009 0.30263,-1.801233 0.100021,-2.69165 l -0.01236,-0.05425 -0.01648,-0.05287 C 9.9524527,44.953029 9.4397176,44.233617 8.7792969,43.680267 8.881531,43.353811 8.9194411,43.008061 8.8726807,42.662659 8.7877237,42.035109 8.4523866,41.466168 7.9436493,41.08818 l -4.578e-4,-2.28e-4 -4.577e-4,-4.58e-4 c -0.036849,-0.02733 -0.1380315,-0.106569 -0.1915742,-0.146713 0.03292,-0.0656 0.059307,-0.105201 0.092468,-0.174638 l 0.00549,-0.01121 0.00504,-0.01121 c 0.4231939,-0.927737 0.548073,-1.964522 0.3572846,-2.966309 l -2.289e-4,-4.58e-4 C 7.8450582,35.84989 6.1422859,35.057157 5.3309632,34.64241 l -0.016708,-0.0082 c 0.2170479,-0.261778 0.4316235,-0.522665 0.6758881,-0.802917 0.3545803,-0.406821 0.7016804,-0.797694 0.9661101,-1.107559 0.1322149,-0.154932 0.2399116,-0.282702 0.3440094,-0.422516 0.052049,-0.06991 0.099247,-0.122078 0.1879121,-0.294342 0.044333,-0.08613 0.1289656,-0.16686 0.1609039,-0.555039 0.015969,-0.194089 0.013295,-0.532786 -0.2323151,-0.901794 -0.2456103,-0.369048 -0.715961,-0.583651 -1.0018162,-0.619395 l -0.086746,-0.01076 z m 3.302307,8.202438 0.0016,0.0082 c -2.869e-4,-0.0015 -8.554e-4,-0.0024 -0.00114,-0.0039 -2.751e-4,-0.0014 -1.807e-4,-0.0029 -4.579e-4,-0.0043 z m 37.1074674,8.024368 c 4.93e-4,0.0054 0.0016,0.0108 0.0021,0.01625 9.03e-4,0.0077 0.0011,0.01542 0.0021,0.02312 z M 7.5222779,50.81337 c 0.00376,0.01665 0.011993,0.03108 0.016022,0.04761 0.019385,0.05396 0.028339,0.110484 0.049667,0.16388 z m 18.2615661,4.644928 c 6.06e-4,0.0017 0.0026,0.0026 0.0032,0.0043 l 0.01053,0.03296 c -0.0039,-0.01271 -0.0098,-0.02461 -0.01373,-0.03731 z"
     id="Shape"
     inkscape:connector-curvature="0"
     sodipodi:nodetypes="ccsccccccccsccccccccccccccccccccccccccccccccccccccccccccccccscccsccccccccccccccccccccccscccccccccccscccscccccccccccccccccccccc" />
</svg>
