<?xml version="1.0" encoding="UTF-8" standalone="no"?>
<svg
   xmlns:dc="http://purl.org/dc/elements/1.1/"
   xmlns:cc="http://creativecommons.org/ns#"
   xmlns:rdf="http://www.w3.org/1999/02/22-rdf-syntax-ns#"
   xmlns:svg="http://www.w3.org/2000/svg"
   xmlns="http://www.w3.org/2000/svg"
   xmlns:sodipodi="http://sodipodi.sourceforge.net/DTD/sodipodi-0.dtd"
   xmlns:inkscape="http://www.inkscape.org/namespaces/inkscape"
   height="512"
   viewBox="0 0 55 60"
   width="512"
   version="1.1"
   id="svg7"
   sodipodi:docname="too_easy_filled_draft.svg"
   inkscape:version="0.92.5 (2060ec1f9f, 2020-04-08)"
   inkscape:export-filename="/home/andrei/Desktop/Coding/hatgame_warehouse/work/too_easy_filled.png"
   inkscape:export-xdpi="96"
   inkscape:export-ydpi="96">
  <metadata
     id="metadata13">
    <rdf:RDF>
      <cc:Work
         rdf:about="">
        <dc:format>image/svg+xml</dc:format>
        <dc:type
           rdf:resource="http://purl.org/dc/dcmitype/StillImage" />
        <dc:title></dc:title>
      </cc:Work>
    </rdf:RDF>
  </metadata>
  <defs
     id="defs11" />
  <sodipodi:namedview
     pagecolor="#ffffff"
     bordercolor="#666666"
     borderopacity="1"
     objecttolerance="10"
     gridtolerance="10"
     guidetolerance="10"
     inkscape:pageopacity="0"
     inkscape:pageshadow="2"
     inkscape:window-width="3840"
     inkscape:window-height="2051"
     id="namedview9"
     showgrid="false"
     inkscape:zoom="5.6568542"
     inkscape:cx="401.11747"
     inkscape:cy="326.50185"
     inkscape:window-x="0"
     inkscape:window-y="0"
     inkscape:window-maximized="1"
     inkscape:current-layer="g1486" />
  <path
     style="fill:#000000;fill-rule:nonzero;stroke:none;stroke-width:24;stroke-miterlimit:4;stroke-dasharray:none;stroke-opacity:1"
     d="M 284.93555 1.0097656 C 257.87393 0.92131361 228.1639 5.1691775 193.57227 13.152344 C 166.00965 19.509016 132.92142 29.424312 108.30664 55.460938 L 108.28516 55.484375 L 108.26172 55.509766 C 92.868254 71.970592 80.993234 91.395777 73.359375 112.60156 L 73.335938 112.66602 L 73.314453 112.73047 C 70.140571 121.87527 67.552868 131.21633 65.570312 140.69141 L 65.068359 142.88477 C 63.497975 148.5796 61.418978 154.11917 58.849609 159.43555 C 53.685103 168.48835 50.928217 178.71967 50.867188 189.15039 L 50.859375 190.52734 L 51.164062 191.87109 C 53.366479 201.59999 58.898258 210.24529 66.773438 216.33594 C 67.059377 216.61253 67.241396 216.80401 67.589844 217.13672 C 66.561069 219.50315 65.68657 221.93252 65.162109 224.46484 L 65.050781 224.99805 L 64.988281 225.53906 C 64.152894 232.87069 61.159749 239.78917 56.390625 245.41992 C 43.818083 258.97367 35.497673 268.24441 29.902344 276.27734 C 24.249227 284.39324 21.023697 292.75915 21.767578 300.92969 L 21.828125 301.58984 L 21.960938 302.24023 C 24.02458 312.35659 30.436304 321.04192 39.431641 326.07422 C 42.41937 328.10607 45.522608 329.96674 48.787109 331.52148 L 48.480469 331.36914 C 49.290564 331.78369 49.989909 332.20362 50.824219 332.65234 C 50.161409 333.92688 49.512686 335.20877 48.802734 336.46875 C 47.21962 339.26867 44.406032 343.68331 43.240234 350.11914 C 42.077537 356.53787 44.340501 366.11323 50.992188 371.78711 C 51.346594 372.09892 51.842458 372.45646 52.224609 372.7793 C 51.692769 375.60821 51.478707 378.50085 51.71875 381.40039 L 51.744141 381.70703 L 51.785156 382.00977 C 52.653032 388.45835 56.162213 394.27911 61.46875 398.05469 C 61.470666 398.05604 61.472694 398.05724 61.474609 398.05859 C 63.829121 399.73643 66.135398 401.08824 68.257812 402.26953 L 68.136719 402.20312 C 68.968727 402.67886 68.829481 402.61982 69.361328 402.95117 C 69.328304 403.06987 69.375371 403.1978 69.333984 403.31445 L 69.201172 403.68945 L 69.09375 404.07227 C 65.778516 415.83034 66.318086 428.31968 70.527344 439.77539 C 76.507519 460.94172 98.164478 474.03239 119.70703 469.3457 L 119.8418 469.31836 L 119.97656 469.2832 C 141.27257 464.13524 162.25465 457.80185 182.93945 450.58789 C 189.35828 456.67636 197.45086 469.07804 203.33594 486.17188 C 208.31161 500.85231 222.16237 510.82066 237.66211 510.875 L 237.68359 510.875 L 400.94141 510.875 L 400.94531 510.875 C 413.4858 510.86647 425.17138 504.34985 431.77148 493.68555 C 438.37195 483.02069 438.99018 469.6564 433.40625 458.42773 L 433.60742 458.85156 C 424.04521 437.57731 418.09302 414.85957 415.99609 391.62891 L 415.98047 391.46094 L 415.96094 391.29297 C 413.34832 369.26747 416.64122 346.95026 425.48633 326.61328 C 430.89375 315.42231 437.54251 304.87686 445.32031 295.18359 L 445.4668 295 L 445.60742 294.81055 C 461.61386 273.17631 482.06369 245.11504 482.70703 199.97852 C 483.20606 175.64806 480.2234 151.3697 473.84766 127.88477 L 473.81641 127.76953 L 473.7832 127.65625 C 464.91838 97.395275 446.50408 70.810017 421.29883 51.869141 C 378.12833 17.929479 336.5451 1.1784466 284.93555 1.0097656 z "
     id="Shape"
     transform="matrix(0.1171875,0,0,0.1171875,-2.5,0)" />
  <path
     style="fill:#ffffff;fill-rule:nonzero;stroke:#ffffff;stroke-width:2.81249952;stroke-miterlimit:4;stroke-dasharray:none;stroke-opacity:1;fill-opacity:1"
     d="m 34.814144,26.350815 c -0.220271,0.399772 -0.456739,0.809032 -0.700398,1.229837 -1.694818,2.926851 -3.832883,5.72293 -1.455377,8.395573 2.93935,3.196387 3.506912,11.138872 3.251345,14.254419 -0.0185,0.220054 0.0649,0.437429 0.23178,0.604263 0.166879,0.166834 0.403594,0.269455 0.657957,0.285199 h 0.06817 c 0.505089,0.0011 0.924907,-0.336367 0.960766,-0.772262 0.04131,-0.492934 0.633782,-11.201466 -3.965157,-15.669948 -1.303993,-2.43262 0.208242,-3.304304 1.971275,-6.350856 0.378581,-0.652883 0.752941,-1.319442 1.084794,-1.976225 z"
     id="path3"
     inkscape:connector-curvature="0"
     sodipodi:nodetypes="cccccccccccc" />
  <g
     id="g1486"
     transform="matrix(1.1507975,0,0,1.1526436,-5.9087257,1.2585399)"
     style="fill:#ffffff;fill-opacity:1;stroke:#ffffff;stroke-width:0.86826646;stroke-opacity:1">
    <path
       style="fill:#ffffff;fill-opacity:1;stroke:#ffffff;stroke-width:0;stroke-miterlimit:4;stroke-dasharray:none;stroke-opacity:1"
       d="m 300.88477,137.03125 c -3.14865,0.004 -6.18495,1.00838 -8.8418,2.68945 -0.9173,-0.96893 -1.94146,-2.02795 -3.31836,-1.67187 -4.4768,1.15904 -7.54105,2.67164 -8.9375,3.43945 -0.003,0.001 -0.0166,-0.001 -0.0195,0 -10.69117,0.18256 -15.38323,4.70149 -17.26367,8.0293 -3.76413,-0.22062 -7.1596,0.4326 -9.80079,2.40234 -3.13319,2.33623 -4.33443,5.53717 -4.91015,7.6836 -4.1935,1.84496 -7.42144,4.57223 -9.22461,8.29882 -1.9864,4.10667 -1.95338,8.363 -1.52734,11.4043 -0.082,0.81869 -0.13831,1.64514 -0.14063,2.4668 v 0.0195 c 0.005,0.32087 0.0255,0.63921 0.0449,0.95898 -1.19207,2.39678 -1.5842,4.82728 -1.04297,7.12891 0.51841,2.20893 1.77529,3.68584 2.85743,4.6875 -9.4e-4,3.77943 1.06622,7.24166 3.50976,10.04687 6.18665,7.09878 17.47007,8.0115 20.4082,8.1836 1.02589,7.77653 7.11676,15.28268 19.94727,17.15429 0.0412,0.006 0.0915,0.0117 0.17188,0.0195 0.15908,0.0167 1.61778,0.15429 4.08593,0.15429 2.09227,0 5.01679,-0.15167 8.34375,-0.51953 7.19233,6.87591 9.56914,16.131 11.29688,23.1875 0.63742,2.60074 1.18978,4.87754 1.95508,6.72461 0.58832,1.42127 1.98448,2.30469 3.49218,2.30469 0.19886,0 0.39822,-0.001 0.61328,-0.0371 l 12.5625,-2.07617 c 1.05794,-0.1742 2.01207,-0.76735 2.58985,-1.67188 0.57713,-0.90352 0.72522,-2.0265 0.42187,-3.05468 -0.52753,-1.7935 -0.72295,-3.74836 -0.86328,-5.72461 0.34606,0.0964 0.68666,0.2026 1.03516,0.28906 6.84794,1.69909 13.83666,1.34055 19.7168,-1.05664 6.17391,-2.5168 10.46829,-7.02836 11.9121,-12.67969 0.15123,-0.59478 0.24271,-1.20074 0.32618,-1.80664 4.86167,-0.87549 10.52365,-3.81831 14.80664,-11.94922 0.0383,-0.0718 0.0643,-0.14376 0.0957,-0.21094 0.14868,-0.32871 3.00819,-6.71413 3.85547,-14.61914 1.01084,-9.43766 -1.51499,-17.03656 -7.09766,-22.16797 0.0216,-0.0718 0.0614,-0.14059 0.0781,-0.21289 1.55989,-6.6331 -1.45658,-11.30656 -4.28711,-13.65234 -0.82681,-4.96016 -5.40454,-7.82983 -9.19727,-9.4375 -0.48688,-4.58419 -2.19623,-8.52166 -5.38867,-11.37305 -5.38738,-4.81062 -12.85344,-5.37359 -16.55273,-5.3789 -1.92814,-2.71971 -4.63609,-4.47401 -7.55664,-5.14844 -3.04301,-0.70268 -6.08165,-0.53627 -8.47852,-0.13477 -2.72199,-0.91119 -5.46525,-1.64556 -8.16992,-2.17187 -1.38373,-0.26852 -2.32735,0.83978 -3.1836,1.8457 -2.33978,-1.36427 -4.96913,-2.07587 -7.67187,-2.19141 l -0.11523,-0.17187 h -0.51758 z"
       transform="matrix(0.10183156,0,0,0.10166846,2.9620552,-1.0918725)"
       id="path981"
       inkscape:connector-curvature="0" />
  </g>
</svg>
