<?xml version="1.0" encoding="UTF-8" standalone="no"?>
<svg
   xmlns:dc="http://purl.org/dc/elements/1.1/"
   xmlns:cc="http://creativecommons.org/ns#"
   xmlns:rdf="http://www.w3.org/1999/02/22-rdf-syntax-ns#"
   xmlns:svg="http://www.w3.org/2000/svg"
   xmlns="http://www.w3.org/2000/svg"
   xmlns:sodipodi="http://sodipodi.sourceforge.net/DTD/sodipodi-0.dtd"
   xmlns:inkscape="http://www.inkscape.org/namespaces/inkscape"
   height="512"
   viewBox="0 0 55 60"
   width="512"
   version="1.1"
   id="svg7"
   sodipodi:docname="too_easy.svg"
   inkscape:version="0.92.5 (2060ec1f9f, 2020-04-08)">
  <metadata
     id="metadata13">
    <rdf:RDF>
      <cc:Work
         rdf:about="">
        <dc:format>image/svg+xml</dc:format>
        <dc:type
           rdf:resource="http://purl.org/dc/dcmitype/StillImage" />
        <dc:title />
      </cc:Work>
    </rdf:RDF>
  </metadata>
  <defs
     id="defs11" />
  <sodipodi:namedview
     pagecolor="#ffffff"
     bordercolor="#666666"
     borderopacity="1"
     objecttolerance="10"
     gridtolerance="10"
     guidetolerance="10"
     inkscape:pageopacity="0"
     inkscape:pageshadow="2"
     inkscape:window-width="3840"
     inkscape:window-height="2051"
     id="namedview9"
     showgrid="false"
     inkscape:zoom="0.65186405"
     inkscape:cx="-184.16855"
     inkscape:cy="316.11574"
     inkscape:window-x="0"
     inkscape:window-y="0"
     inkscape:window-maximized="1"
     inkscape:current-layer="svg7" />
  <path
     style="fill:#000000;fill-rule:nonzero;stroke:#000000;stroke-width:0.46875;stroke-miterlimit:4;stroke-dasharray:none;stroke-opacity:1"
     id="Shape"
     d="M 46.790728,6.2674592 C 39.010964,0.14625758 32.307334,-0.97629182 20.232903,1.8098422 16.95316,2.5661068 13.241976,3.7202495 10.567435,6.5488371 8.8257907,8.4110219 7.4820573,10.608722 6.6183159,13.007692 6.2516437,14.064006 5.952876,15.142682 5.7238404,16.23712 l -0.077995,0.341602 C 5.4270488,17.375751 5.1348819,18.150796 4.77309,18.893919 4.2475166,19.792956 3.9676403,20.814414 3.9615461,21.85579 c 0.1996375,0.881734 0.7094375,1.662384 1.436492,2.199684 0.4827798,0.443293 0.8006839,0.755277 0.8036457,1.039617 -0.042112,0.160436 -0.1062362,0.314268 -0.190545,0.457115 -0.1578448,0.280341 -0.2714064,0.583398 -0.3366624,0.898435 -0.1349345,1.184043 -0.6187894,2.301251 -1.3900898,3.209681 -3.1010456,3.340992 -3.98663557,4.49316 -3.8780348,5.685807 0.16909778,0.828816 0.696032,1.540438 1.4394538,1.943975 0.3254831,0.227462 0.6692439,0.427579 1.0277582,0.598298 0.4245303,0.217204 1.136359,0.580527 1.1847357,0.840185 0.064403,0.33455 0.026203,0.680753 -0.109588,0.993214 -0.1451301,0.310009 -0.2961839,0.576578 -0.4274921,0.809578 -0.3850391,0.681231 -0.9655596,1.710975 -0.055288,2.479087 0.2132524,0.188572 0.5785459,0.475874 0.9112592,0.730595 -0.2476591,0.433924 -0.3581444,0.932662 -0.3169168,1.430584 0.052,0.386318 0.261837,0.733787 0.5795332,0.959646 0.2201634,0.15698 0.4551359,0.296188 0.6910958,0.427497 0.5785459,0.330743 0.8036457,0.48476 0.8816408,0.789833 0.071538,0.369384 0.042904,0.751184 -0.082931,1.105765 -0.3272377,1.160422 -0.2714945,2.395443 0.158952,3.521666 0.5070117,1.875794 2.3959778,3.024385 4.2946664,2.611383 2.811651,-0.679564 5.584383,-1.511095 8.305985,-2.490934 1.362446,0.81254 2.657757,2.787121 3.591723,5.503158 0.40791,1.203329 1.535282,2.014555 2.805849,2.019009 h 19.909483 c 1.025033,-7.16e-4 1.976829,-0.53138 2.516331,-1.402956 0.539502,-0.871576 0.59001,-1.960148 0.133528,-2.877936 -1.232947,-2.742659 -2.000367,-5.671564 -2.270743,-8.666437 -0.350314,-2.952833 0.09271,-5.945679 1.283463,-8.670386 0.709887,-1.474144 1.585319,-2.862663 2.609381,-4.138722 1.952839,-2.639028 4.16632,-5.627556 4.238392,-10.717039 0.0588,-2.830171 -0.287962,-5.654181 -1.029733,-8.386046 -0.993858,-3.391805 -3.058818,-6.3708238 -5.886162,-8.4916868 z m 1.091931,26.4198958 c -1.113645,1.395446 -2.063685,2.913934 -2.831518,4.52574 -1.332228,3.046558 -1.828416,6.393141 -1.437479,9.695194 0.295956,3.222808 1.130258,6.373168 2.468199,9.320023 0.147085,0.305322 0.12729,0.664747 -0.05243,0.952069 -0.179726,0.287323 -0.494258,0.462381 -0.833156,0.463706 H 25.286788 c -0.427026,-0.0038 -0.804584,-0.27816 -0.93989,-0.683205 -0.64307,-2.095906 -1.751027,-4.019581 -3.241239,-5.627556 l 0.737498,-0.258671 c 0.729599,-0.256695 1.283463,-0.450204 1.555952,-0.537086 4.223583,-1.328893 6.336362,-3.258059 6.278112,-5.718387 0.0012,-0.264077 -0.106435,-0.516989 -0.297505,-0.699281 -0.191068,-0.182292 -0.448754,-0.277888 -0.712482,-0.264314 -0.261866,0.0059 -0.510633,0.115726 -0.69154,0.305152 -0.180906,0.189427 -0.279125,0.442981 -0.273032,0.704846 0.02369,1.017896 -0.80562,2.501794 -4.898882,3.789221 -0.288286,0.09083 -0.858934,0.291251 -1.61519,0.556832 -0.707879,0.248797 -1.579647,0.556832 -2.542245,0.888562 h -0.0079 C 15.86767,51.105739 13.044533,51.960665 10.181406,52.661231 9.258259,52.840127 8.3599215,52.253469 8.1525486,51.336287 7.8442545,50.564616 7.8094137,49.710659 8.0538206,48.916438 8.2577293,48.252612 8.2839418,47.546909 8.1298411,46.869785 7.8470722,45.964291 7.18436,45.226614 6.3142337,44.848801 6.2431496,44.808322 6.1720654,44.76883 6.1019686,44.727364 6.2070488,44.510476 6.3337324,44.304737 6.4800967,44.113269 6.6437035,43.903639 6.7158304,43.636873 6.6801504,43.373359 6.6444705,43.109845 6.5040008,42.871866 6.290539,42.713291 6.0535919,42.537554 5.4908424,42.114006 5.0860577,41.790175 5.136409,41.697369 5.1926839,41.592717 5.2450098,41.50386 5.3960636,41.236305 5.5698248,40.926295 5.7386496,40.572845 6.0535729,39.882572 6.1463722,39.111537 6.0042279,38.366251 5.7741917,37.154845 4.6220363,36.565433 3.7779121,36.133987 3.5192169,36.011761 3.2697631,35.870865 3.0315286,35.712414 2.8001724,35.551604 2.5819555,35.372671 2.3789367,35.177302 2.3957205,34.606648 4.5677359,32.263808 5.7356878,31.005012 6.773153,29.816238 7.4312529,28.344266 7.6253412,26.778421 7.6672584,26.664673 7.7174135,26.554133 7.7754077,26.447679 8.0219256,26.030525 8.160699,25.558555 8.1792051,25.074358 8.0802151,24.076838 7.5518536,23.171838 6.731853,22.595271 6.3369411,22.229973 5.9578257,21.884422 5.9153727,21.580336 6.0351724,20.922375 6.2577268,20.287355 6.5748756,19.69856 6.9881379,18.840405 7.318724,17.944837 7.5621553,17.02399 l 0.07997,-0.344564 C 7.8533607,15.666028 8.1280362,14.666897 8.464529,13.687935 9.2376857,11.540278 10.439918,9.5724796 11.998003,7.904387 14.305276,5.4628174 17.52677,4.455781 20.671256,3.7311097 33.552294,0.76133962 39.162018,2.7793616 45.572425,7.8214546 c 2.50677,1.8551437 4.335894,4.4812864 5.206913,7.4757644 0.689665,2.547548 1.011158,5.180694 0.9547,7.819341 -0.0622,4.451694 -1.902488,6.938679 -3.851379,9.570795 z"
     inkscape:connector-curvature="0" />
  <path
     style="fill:#000000;fill-rule:nonzero;stroke-width:8.53333378"
     d="m 316.95312,223.5957 c -1.95637,4.10388 -4.0566,8.30518 -6.2207,12.625 -15.0528,30.04587 -32.10254,64.10128 -4.59961,86.18555 32.09387,25.6768 33.22885,114.34714 30.95899,146.33008 -0.16436,2.25897 0.57644,4.49047 2.05859,6.20312 1.48216,1.71264 3.58458,2.7661 5.84375,2.92774 h 0.60547 c 4.48602,0.0111 8.2147,-3.45303 8.5332,-7.92774 0.36694,-5.06026 8.33744,-124.35573 -37.29883,-160.86133 -15.57333,-12.48426 -6.47702,-33.92064 9.18164,-65.19531 3.36243,-6.70223 6.68737,-13.54484 9.63477,-20.28711 z"
     transform="matrix(0.1171875,0,0,0.1171875,-2.5,0)"
     id="path3"
     inkscape:connector-curvature="0"
     sodipodi:nodetypes="cccccccccccc" />
  <g
     id="g1486"
     transform="matrix(1.1027026,0,0,1.1043689,-3.2807128,-1.5178793)"
     style="stroke-width:0.90617841">
    <path
       id="path981"
       d="m 41.04508,19.290847 c 0.0088,-0.01808 0.01552,-0.03703 0.02014,-0.05663 0.155364,-0.659598 -0.160534,-1.102543 -0.432641,-1.312377 -0.06173,-0.494699 -0.53563,-0.811181 -0.923489,-0.963955 -0.03951,-0.466007 -0.219292,-0.844422 -0.536071,-1.126905 -0.518465,-0.462219 -1.261285,-0.524583 -1.624497,-0.524583 -0.0038,0 -0.0074,0 -0.01111,0 -0.35386,-0.595177 -1.163577,-0.622679 -1.635719,-0.536385 -0.276948,-0.09312 -0.556207,-0.167174 -0.830954,-0.220552 -0.153053,-0.02966 -0.301925,0.06821 -0.332184,0.219036 -0.03026,0.150715 0.06943,0.297101 0.222703,0.326877 0.272767,0.05305 0.551145,0.128736 0.826993,0.22499 0.05116,0.01797 0.106398,0.02089 0.159214,0.0086 0.0095,-0.0022 0.942635,-0.210916 1.147292,0.355894 0.04346,0.120074 0.164717,0.195649 0.293673,0.183738 0.0089,-8.65e-4 0.899503,-0.07785 1.406525,0.37625 0.17836,0.15981 0.288501,0.365963 0.333504,0.625493 -0.381477,0.01797 -0.976524,0.14985 -1.286262,0.753364 -0.07042,0.137182 -0.01463,0.304463 0.124775,0.373866 0.04093,0.02025 0.08451,0.02988 0.127307,0.02988 0.103322,0 0.202897,-0.05587 0.25263,-0.152774 0.260774,-0.5078 0.908746,-0.456804 1.026369,-0.442945 0.104527,0.03379 0.724553,0.251302 0.699576,0.624194 -0.0074,0.110439 0.05248,0.214707 0.152503,0.265486 9.91e-4,4.32e-4 0.101344,0.05598 0.188373,0.172587 0.114322,0.153098 0.151842,0.341168 0.112011,0.559664 l -0.01903,0.02491 c -0.438913,0.04742 -1.098988,0.319189 -1.189103,1.122575 -0.01705,0.152773 0.09485,0.29028 0.250099,0.30717 0.01054,0.0011 0.02102,0.0016 0.03136,0.0016 0.14227,0 0.264734,-0.105353 0.280689,-0.247729 0.05711,-0.509099 0.50141,-0.610335 0.692974,-0.630257 1.239058,0.894335 0.364422,2.979999 0.306547,3.113717 -0.306766,0.577095 -0.691765,0.872356 -1.174361,0.899316 -0.206858,-0.170097 -0.74843,-0.548295 -1.694916,-0.771446 -0.151953,-0.03584 -0.304566,0.0563 -0.340985,0.205719 -0.03631,0.149524 0.05721,0.299699 0.209168,0.33543 0.808727,0.190668 1.270417,0.503903 1.440745,0.638595 -0.0022,0.07633 -0.01243,0.151798 -0.03125,0.225099 -0.201137,0.786279 -1.28263,1.198691 -2.410887,0.91913 -0.186722,-0.04634 -0.367614,-0.110114 -0.537611,-0.189695 -0.08362,-0.03919 -0.181441,-0.03551 -0.261873,0.0098 -0.08032,0.04515 -0.133138,0.126354 -0.14128,0.217087 -0.03234,0.360224 -0.01661,0.70724 0.04655,1.035307 l -0.742488,0.121482 c -0.03169,-0.110654 -0.06348,-0.240041 -0.09793,-0.380688 -0.165926,-0.676166 -0.405573,-1.651597 -1.110212,-2.451952 0.586576,-0.140538 1.150924,-0.233328 1.682813,-0.276313 0.155694,-0.01256 0.271556,-0.146926 0.258683,-0.300024 -0.01276,-0.153207 -0.149421,-0.267001 -0.304896,-0.25455 -0.702987,0.05673 -1.456698,0.195108 -2.240559,0.411112 -0.718612,0.09571 -1.221894,0.05739 -1.278229,0.05251 -1.225744,-0.181249 -1.56805,-0.910035 -1.488388,-1.479876 0.01276,-0.09127 -0.02124,-0.182873 -0.09077,-0.244589 -0.06954,-0.06172 -0.165487,-0.08554 -0.256482,-0.06367 l -0.204988,0.04937 c -0.357495,-0.0174 -1.251056,-0.153607 -1.653219,-0.614418 -0.174729,-0.200304 -0.241627,-0.442186 -0.204327,-0.739504 0.0143,-0.11477 -0.04489,-0.226291 -0.148762,-0.280103 -0.0012,-6.48e-4 -0.121584,-0.072 -0.151183,-0.197706 -0.03522,-0.149743 0.0669,-0.329042 0.158776,-0.453015 0.05556,-0.07503 0.06943,-0.172479 0.03697,-0.259639 -0.0022,-0.0058 -0.210709,-0.597775 0.0274,-1.089119 0.132476,-0.273388 0.386428,-0.474993 0.754921,-0.599074 0.106732,-0.03595 0.181331,-0.128953 0.190134,-0.239609 3.3e-4,-0.0036 0.03631,-0.356434 0.297523,-0.548077 0.180451,-0.13231 0.440784,-0.1662 0.773627,-0.100692 0.07548,0.01472 0.153714,-0.0012 0.216872,-0.04439 0.06316,-0.0432 0.105742,-0.109789 0.117843,-0.184606 9.91e-4,-0.006 0.127636,-0.585107 1.230915,-0.605679 0.167358,0.224883 0.536622,0.815729 0.262645,1.345076 -0.07086,0.136966 -0.01541,0.304572 0.123674,0.3743 0.04115,0.02057 0.08495,0.03032 0.128076,0.03032 0.102989,0 0.202346,-0.05554 0.252301,-0.152016 0.101893,-0.196948 0.148762,-0.394438 0.158445,-0.585107 0.152612,-0.06388 0.390279,-0.132526 0.579972,-0.07698 0.123345,0.03595 0.218192,0.124081 0.290042,0.269167 0.04897,0.09896 0.149641,0.156455 0.254501,0.156455 0.04148,0 0.08373,-0.009 0.123675,-0.02825 0.140399,-0.06724 0.198716,-0.23387 0.130277,-0.372026 -0.14117,-0.284976 -0.361562,-0.478243 -0.63752,-0.558906 -0.293892,-0.08586 -0.592957,-0.03107 -0.814228,0.04233 -0.07383,-0.248379 -0.189913,-0.464168 -0.292022,-0.623004 0.133137,-0.05706 0.312927,-0.12354 0.534309,-0.180815 0.151073,-0.03898 0.241408,-0.191211 0.201687,-0.339762 -0.03972,-0.148767 -0.194424,-0.237443 -0.345387,-0.198464 -0.446945,0.115528 -0.753161,0.26581 -0.888939,0.340411 -1.145312,2.16e-4 -1.588076,0.492533 -1.754773,0.81129 -0.394681,-0.0367 -0.727084,0.04374 -0.990718,0.240041 -0.307317,0.22878 -0.433192,0.558039 -0.483806,0.761376 -0.434512,0.179083 -0.74513,0.456804 -0.92459,0.827098 -0.260443,0.537575 -0.160095,1.11597 -0.09132,1.377883 -0.172969,0.274689 -0.230955,0.539632 -0.172199,0.789093 0.04973,0.211566 0.172639,0.358709 0.276178,0.449875 -0.0131,0.385453 0.104193,0.722723 0.349898,1.00434 0.609131,0.69782 1.823212,0.795375 2.062969,0.807935 0.06173,0.775992 0.662057,1.541699 1.984628,1.734317 0.0042,6.48e-4 0.0085,0.0012 0.01276,0.0016 0.01177,0.0012 0.158225,0.01526 0.405685,0.01526 0.224682,0 0.532989,-0.01169 0.899282,-0.05543 0.780119,0.725645 1.022077,1.710388 1.200217,2.436792 0.06491,0.264403 0.120924,0.492859 0.193985,0.668911 0.0439,0.105891 0.148321,0.173021 0.261653,0.173021 0.01541,0 0.03092,-0.0012 0.04655,-0.0038 l 1.27955,-0.209509 c 0.07967,-0.0131 0.149862,-0.059 0.192884,-0.126246 0.04302,-0.06724 0.0548,-0.149417 0.03224,-0.225749 -0.06976,-0.236793 -0.10761,-0.488961 -0.113222,-0.753365 0.08297,0.02729 0.167357,0.05143 0.252632,0.07255 0.67834,0.168039 1.369003,0.131551 1.944906,-0.102855 0.604949,-0.246213 1.014265,-0.679522 1.152574,-1.220021 0.01903,-0.07471 0.03234,-0.150716 0.04027,-0.227481 0.482705,-0.06604 1.063778,-0.348748 1.509294,-1.193169 0.0027,-0.005 0.0051,-0.01001 0.0074,-0.01505 0.01221,-0.02696 0.300385,-0.670752 0.384668,-1.45584 0.104086,-0.970235 -0.148542,-1.735184 -0.732586,-2.23194 z m 0,0"
       inkscape:connector-curvature="0"
       style="stroke:#000000;stroke-width:1.48669899;stroke-miterlimit:4;stroke-dasharray:none;stroke-opacity:1" />
    <path
       id="path983"
       d="m 31.010306,18.955504 c 0.003,0.01613 0.07647,0.399635 0.346818,0.775992 0.06447,0.08976 0.14348,0.183523 0.238987,0.27339 -0.05084,0.28584 -0.495139,0.442295 -0.505592,0.445868 -0.147441,0.04948 -0.226443,0.207018 -0.17671,0.35232 0.03983,0.116178 0.149863,0.189478 0.267925,0.189478 0.03004,0 0.06052,-0.0047 0.09044,-0.01472 0.261434,-0.08672 0.641261,-0.302732 0.809278,-0.649856 0.219841,0.09766 0.484906,0.160895 0.803225,0.160895 0.02025,0 0.04082,-3.26e-4 0.06151,-7.57e-4 0.156133,-0.004 0.279478,-0.131661 0.275407,-0.2853 -0.0039,-0.151257 -0.129617,-0.271224 -0.282559,-0.271224 -0.0025,0 -0.0048,1.11e-4 -0.0073,1.11e-4 -1.134638,0.02804 -1.355801,-1.028593 -1.365373,-1.0771 -0.02849,-0.150607 -0.175499,-0.250435 -0.328773,-0.222718 -0.153603,0.0275 -0.255381,0.17248 -0.227324,0.323628 z m 0,0"
       inkscape:connector-curvature="0"
       style="stroke:#000000;stroke-width:1.27431345;stroke-miterlimit:4;stroke-dasharray:none;stroke-opacity:1" />
    <path
       id="path985"
       d="m 36.183594,21.061744 c 0.490958,-0.844205 0.297084,-1.496984 0.04809,-1.89597 -0.263083,-0.42129 -0.64214,-0.64325 -0.658094,-0.652453 -0.134348,-0.07753 -0.306326,-0.03334 -0.385768,0.09831 -0.07944,0.131768 -0.0351,0.30219 0.09837,0.381013 0.0029,0.0016 0.286631,0.171396 0.473243,0.480191 0.235577,0.389783 0.21302,0.83132 -0.06679,1.312486 -0.07757,0.133392 -0.03047,0.303381 0.105075,0.379714 0.04424,0.02501 0.09254,0.03681 0.140069,0.03681 0.09826,0 0.193545,-0.05024 0.245808,-0.140106 z m 0,0"
       inkscape:connector-curvature="0"
       style="stroke:#000000;stroke-width:1.27431345;stroke-miterlimit:4;stroke-dasharray:none;stroke-opacity:1" />
  </g>
</svg>
