<?xml version="1.0" encoding="UTF-8" standalone="no"?>
<svg
   xmlns:dc="http://purl.org/dc/elements/1.1/"
   xmlns:cc="http://creativecommons.org/ns#"
   xmlns:rdf="http://www.w3.org/1999/02/22-rdf-syntax-ns#"
   xmlns:svg="http://www.w3.org/2000/svg"
   xmlns="http://www.w3.org/2000/svg"
   xmlns:sodipodi="http://sodipodi.sourceforge.net/DTD/sodipodi-0.dtd"
   xmlns:inkscape="http://www.inkscape.org/namespaces/inkscape"
   height="512"
   viewBox="0 0 55 60"
   width="512"
   version="1.1"
   id="svg7"
   sodipodi:docname="too_easy_outline.svg"
   inkscape:version="0.92.5 (2060ec1f9f, 2020-04-08)"
   inkscape:export-filename="/home/andrei/Desktop/Coding/hatgame_warehouse/work/too_easy_outline.png"
   inkscape:export-xdpi="96"
   inkscape:export-ydpi="96">
  <metadata
     id="metadata13">
    <rdf:RDF>
      <cc:Work
         rdf:about="">
        <dc:format>image/svg+xml</dc:format>
        <dc:type
           rdf:resource="http://purl.org/dc/dcmitype/StillImage" />
        <dc:title></dc:title>
      </cc:Work>
    </rdf:RDF>
  </metadata>
  <defs
     id="defs11" />
  <sodipodi:namedview
     pagecolor="#ffffff"
     bordercolor="#666666"
     borderopacity="1"
     objecttolerance="10"
     gridtolerance="10"
     guidetolerance="10"
     inkscape:pageopacity="0"
     inkscape:pageshadow="2"
     inkscape:window-width="3840"
     inkscape:window-height="2051"
     id="namedview9"
     showgrid="false"
     inkscape:zoom="2.6074562"
     inkscape:cx="409.23314"
     inkscape:cy="94.10586"
     inkscape:window-x="0"
     inkscape:window-y="0"
     inkscape:window-maximized="1"
     inkscape:current-layer="svg7" />
  <path
     style="fill:#000000;fill-rule:nonzero;stroke:#000000;stroke-width:2.81250024;stroke-miterlimit:4;stroke-dasharray:none;stroke-opacity:1"
     id="Shape"
     d="M 46.016757,7.1949794 C 38.542106,1.3129119 32.101384,0.23421661 20.500498,2.911506 17.349382,3.638226 13.783746,4.7472804 11.214097,7.4653649 9.5407581,9.2548006 8.2497243,11.366644 7.4198578,13.671895 7.067566,14.686942 6.7805156,15.723478 6.5604625,16.77516 l -0.074936,0.328257 c -0.2102157,0.765892 -0.4909242,1.510658 -0.838527,2.22475 -0.5049611,0.863915 -0.773861,1.845468 -0.7797162,2.846161 0.191808,0.847288 0.6816143,1.597441 1.3801546,2.11375 0.4638458,0.425975 0.769282,0.725771 0.7721277,0.999003 -0.04046,0.154168 -0.1020698,0.301991 -0.1830721,0.439257 -0.1516543,0.269389 -0.2607621,0.560607 -0.3234589,0.863336 -0.1296425,1.137787 -0.5945212,2.211349 -1.3355722,3.08429 -2.9794264,3.210471 -3.8302846,4.317628 -3.725943,5.463682 0.162466,0.796438 0.6687345,1.480259 1.3830002,1.868031 0.312718,0.218576 0.642997,0.410875 0.9874508,0.574925 0.4078807,0.208718 1.0917924,0.557848 1.1382718,0.807362 0.061877,0.32148 0.025175,0.654158 -0.1052901,0.954412 -0.1394383,0.297898 -0.2845679,0.554053 -0.4107264,0.777951 -0.3699383,0.654617 -0.9276915,1.644133 -0.05312,2.382237 0.2048889,0.181206 0.5558561,0.457284 0.8755208,0.702054 -0.2379462,0.416972 -0.3440984,0.896226 -0.3044877,1.374696 0.049961,0.371226 0.251568,0.70512 0.5568046,0.922156 0.2115288,0.150847 0.437286,0.284617 0.6639918,0.410796 0.5558561,0.317822 0.7721278,0.465822 0.847064,0.758977 0.068732,0.354953 0.041221,0.721838 -0.079679,1.062566 -0.3144038,1.115089 -0.2608468,2.301862 0.1527181,3.384087 0.4871274,1.802513 2.3020105,2.906233 4.1262347,2.509365 2.701381,-0.653015 5.36537,-1.452061 7.980234,-2.393621 1.309013,0.780796 2.553523,2.678237 3.45086,5.288168 0.391913,1.156319 1.47507,1.935854 2.695807,1.940134 h 19.128658 c 0.984832,-6.88e-4 1.8993,-0.510621 2.417644,-1.348148 0.518343,-0.837526 0.56687,-1.883572 0.128291,-2.765505 -1.184593,-2.635513 -1.921915,-5.449995 -2.181688,-8.327869 -0.336575,-2.837476 0.08908,-5.713402 1.233128,-8.331664 0.682046,-1.416555 1.523144,-2.750829 2.507044,-3.977037 1.876251,-2.53593 4.002922,-5.407707 4.072167,-10.298361 0.05649,-2.719606 -0.276668,-5.433292 -0.989348,-8.058433 -0.95488,-3.259298 -2.938855,-6.1219373 -5.655313,-8.1599456 z m 1.049107,25.3877626 c -1.069969,1.34093 -1.98275,2.800096 -2.720469,4.348935 -1.27998,2.927539 -1.756708,6.143383 -1.381103,9.316436 0.284349,3.096904 1.085931,6.12419 2.371399,8.955922 0.141317,0.293394 0.122298,0.638778 -0.05037,0.914875 -0.172677,0.276098 -0.474873,0.444317 -0.80048,0.445591 H 25.356175 c -0.410278,-0.0037 -0.773029,-0.267294 -0.903028,-0.656515 -0.61785,-2.014026 -1.682354,-3.86255 -3.114122,-5.407707 l 0.708574,-0.248565 c 0.700985,-0.246667 1.233128,-0.432617 1.49493,-0.516104 4.057939,-1.276978 5.009221,-1.827424 4.953255,-4.191636 0.0012,-0.25376 -0.102261,-0.496792 -0.285837,-0.671962 -0.183575,-0.175171 -0.431155,-0.267032 -0.68454,-0.253989 -0.251595,0.0057 -0.490606,0.111205 -0.664418,0.293231 -0.173811,0.182027 -0.268178,0.425676 -0.262324,0.67731 0.02276,0.978131 0.304612,1.100704 -3.628117,2.337836 -0.27698,0.08728 -0.825248,0.279872 -1.551844,0.535078 -0.680117,0.239078 -1.517696,0.535079 -2.442542,0.853849 h -0.0076 C 16.306464,50.281583 13.594047,51.10311 10.843208,51.776308 9.9562656,51.948215 9.0931598,51.384475 8.8939198,50.503125 8.5977166,49.7616 8.5642422,48.941004 8.7990638,48.177811 8.9949754,47.539918 9.0201599,46.861784 8.8721028,46.211113 8.6004238,45.340994 7.9637023,44.632135 7.1277013,44.269082 7.0594051,44.230184 6.9911087,44.192235 6.923761,44.152389 7.0247201,43.943974 7.1464353,43.746273 7.2870594,43.562285 7.4442497,43.360844 7.5135479,43.1045 7.4792672,42.85128 7.4449866,42.598061 7.310026,42.369379 7.1049359,42.216999 6.8772816,42.048127 6.3366024,41.641126 5.9476929,41.329946 c 0.048377,-0.08918 0.1024444,-0.189744 0.1527182,-0.27513 0.1451296,-0.257102 0.3120761,-0.555001 0.4742798,-0.894643 0.3025724,-0.663307 0.3917322,-1.40422 0.2551627,-2.12039 C 6.6088391,36.875702 5.5018698,36.309317 4.6908511,35.894726 4.4423016,35.777275 4.2026311,35.641883 3.9737399,35.489622 3.7514572,35.335094 3.5417985,35.163152 3.3467418,34.975415 c 0.016126,-0.548361 2.1029572,-2.799674 3.2251035,-4.009293 0.9967771,-1.142333 1.6290671,-2.5568 1.8155435,-4.061473 0.040273,-0.109304 0.088461,-0.215526 0.1441811,-0.317821 0.2368497,-0.400857 0.3701806,-0.854389 0.3879609,-1.31967 C 8.8244231,24.308608 8.3167833,23.438963 7.5289421,22.88492 7.1495182,22.533893 6.7852712,22.201842 6.7444832,21.909635 6.8595845,21.277379 7.0734106,20.667167 7.3781212,20.101374 7.7751758,19.276744 8.0927967,18.416163 8.326681,17.53129 L 8.403515,17.200187 C 8.6064657,16.226379 8.8703687,15.26628 9.1936647,14.325563 9.9364991,12.261807 11.091581,10.370884 12.58856,8.7679581 14.805345,6.4217722 17.900496,5.4540772 20.921659,4.7577163 33.297518,1.9039648 38.687236,3.8431497 44.846235,8.6882656 c 2.408457,1.7826694 4.165845,4.3062184 5.002704,7.1837124 0.662617,2.448024 0.971502,4.978302 0.917258,7.513866 -0.05976,4.277782 -1.827875,6.667609 -3.700333,9.196898 z"
     inkscape:connector-curvature="0"
     sodipodi:nodetypes="ccccccccccccccccccccccccccccccccsccccccccccccccccccccccccccccccccccscccccccccccccccccccccccc" />
  <path
     style="fill:#000000;fill-rule:nonzero;stroke:#000000;stroke-width:2.81249952;stroke-miterlimit:4;stroke-dasharray:none;stroke-opacity:1"
     d="m 34.814144,26.350816 c -0.220271,0.399772 -0.456739,0.809032 -0.700398,1.229837 -1.694818,2.926851 -3.832883,5.72293 -1.455377,8.395573 2.93935,3.196387 3.506912,11.138872 3.251345,14.254419 -0.0185,0.220054 0.0649,0.437429 0.23178,0.604263 0.166879,0.166834 0.403594,0.269455 0.657957,0.2852 h 0.06817 c 0.505088,0.0011 0.924906,-0.336369 0.960766,-0.772263 0.04131,-0.492934 0.633781,-11.201467 -3.965158,-15.669948 -1.303993,-2.43262 0.208242,-3.304304 1.971275,-6.350856 0.378581,-0.652883 0.752941,-1.319442 1.084794,-1.976225 z"
     id="path3"
     inkscape:connector-curvature="0"
     sodipodi:nodetypes="cccccccccccc" />
  <g
     id="g1486"
     transform="matrix(1.1507975,0,0,1.1526436,-5.9087262,1.2585404)"
     style="stroke-width:0.86826646">
    <path
       style="stroke:#000000;stroke-width:0.20349994;stroke-miterlimit:4;stroke-dasharray:none;stroke-opacity:1"
       d="m 33.602571,12.942451 a 1.5946311,1.592225 0 0 0 -0.880073,0.265697 c -0.05241,-0.128304 -0.193858,-0.201557 -0.333141,-0.165594 -0.446944,0.115528 -0.753013,0.265705 -0.88879,0.340306 -1.145313,2.13e-4 -1.588054,0.492632 -1.75475,0.811389 -0.394681,-0.0367 -0.727071,0.0437 -0.990706,0.239997 -0.307317,0.22878 -0.433218,0.558104 -0.483832,0.761441 -0.434512,0.179083 -0.74524,0.456638 -0.9247,0.826932 -0.19198,0.396263 -0.187411,0.813768 -0.144465,1.111282 a 2.9396234,2.716448 0 0 0 -0.0137,0.254711 2.9396234,2.716448 0 0 0 0.0046,0.120414 c -0.123622,0.235991 -0.160777,0.464182 -0.109801,0.680613 0.04973,0.211566 0.172522,0.358776 0.276061,0.449942 -0.0131,0.385453 0.104249,0.722722 0.349953,1.00434 0.609131,0.69782 1.823227,0.795305 2.062983,0.807865 0.06173,0.775992 0.661953,1.541661 1.984524,1.734279 0.0042,6.36e-4 0.0086,0.0013 0.01287,0.0017 0.01177,0.0012 0.158121,0.01534 0.405581,0.01534 0.224682,0 0.533083,-0.0118 0.899376,-0.05554 0.780119,0.725645 1.021998,1.710456 1.200138,2.43686 0.06491,0.264403 0.121012,0.492748 0.194072,0.6688 0.0439,0.105891 0.1482,0.173054 0.261532,0.173054 0.01541,0 0.03107,-0.0011 0.0467,-0.0037 l 1.279428,-0.209531 c 0.07967,-0.0131 0.150012,-0.05897 0.193034,-0.126215 0.04302,-0.06724 0.05473,-0.149366 0.03217,-0.225698 -0.06976,-0.236792 -0.107718,-0.488954 -0.113331,-0.753358 0.08297,0.02729 0.167539,0.05142 0.252814,0.07254 0.67834,0.168038 1.368976,0.131401 1.944879,-0.103005 0.604948,-0.246212 1.014296,-0.679382 1.152605,-1.219881 0.01903,-0.07471 0.03234,-0.150796 0.04027,-0.227561 0.482704,-0.06604 1.063684,-0.348725 1.5092,-1.193146 0.0027,-0.005 0.0052,-0.01009 0.0075,-0.01513 0.01221,-0.02696 0.300334,-0.670645 0.384617,-1.455733 0.104086,-0.970235 -0.148658,-1.735133 -0.732702,-2.231888 0.0088,-0.01808 0.01551,-0.03719 0.02013,-0.05679 0.155365,-0.659598 -0.160457,-1.10248 -0.432564,-1.312315 -0.06173,-0.494698 -0.535594,-0.811151 -0.923453,-0.963925 -0.03951,-0.466007 -0.219361,-0.844342 -0.536139,-1.126825 -0.518466,-0.462219 -1.261187,-0.52476 -1.6244,-0.52476 h -0.01121 c -0.35386,-0.595177 -1.163674,-0.62266 -1.635816,-0.536366 -0.276947,-0.09312 -0.556133,-0.167138 -0.83088,-0.220516 -0.14084,-0.02729 -0.276924,0.05408 -0.321518,0.184661 a 1.5946311,1.592225 0 0 0 -0.829012,-0.234608 z m 2.703319,0.819265 c 0.07967,0.01722 0.15675,0.04396 0.226453,0.08311 a 0.66230686,1.1140488 0 0 0 -0.0824,0.03979 1.1157324,1.2361364 0 0 0 -0.14405,-0.1229 z m 0.915982,0.544448 c 0.04889,-2.12e-4 0.107379,0.0013 0.173316,0.0052 a 0.8711883,0.92074353 0 0 0 -0.130557,0.113988 0.66230686,1.1140488 0 0 0 -0.04276,-0.11917 z m -7.777855,0.443518 a 2.9396234,2.716448 0 0 0 -0.224584,0.05886 c 0.0672,-0.0293 0.141914,-0.04934 0.224584,-0.05886 z m 9.308227,0.345695 c 0.02516,0.0682 0.04509,0.140483 0.05853,0.218029 -0.0284,0.0013 -0.05994,0.0047 -0.0905,0.0075 a 0.8711883,0.92074353 0 0 0 0.03196,-0.22549 z m 0.693889,0.959781 c 0.09226,0.05793 0.1792,0.128919 0.237661,0.21264 a 4.6208641,2.9555358 0 0 0 -0.237661,-0.21264 z m -9.020543,4.70108 a 3.1230314,2.2382717 0 0 0 1.150738,0.82859 c -0.647583,-0.152372 -0.999583,-0.476486 -1.150738,-0.82859 z"
       id="path981"
       inkscape:connector-curvature="0" />
  </g>
</svg>
