<?xml version="1.0" encoding="UTF-8" standalone="no"?>
<svg
   viewBox="0 0 256 256"
   width="512"
   height="512"
   version="1.1"
   id="svg904"
   sodipodi:docname="individual-no-arrows.svg"
   inkscape:version="1.2.2 (732a01da63, 2022-12-09)"
   style="fill:#000000"
   xmlns:inkscape="http://www.inkscape.org/namespaces/inkscape"
   xmlns:sodipodi="http://sodipodi.sourceforge.net/DTD/sodipodi-0.dtd"
   xmlns="http://www.w3.org/2000/svg"
   xmlns:svg="http://www.w3.org/2000/svg"
   xmlns:rdf="http://www.w3.org/1999/02/22-rdf-syntax-ns#"
   xmlns:cc="http://creativecommons.org/ns#"
   xmlns:dc="http://purl.org/dc/elements/1.1/">
  <metadata
     id="metadata910">
    <rdf:RDF>
      <cc:Work
         rdf:about="">
        <dc:format>image/svg+xml</dc:format>
        <dc:type
           rdf:resource="http://purl.org/dc/dcmitype/StillImage" />
      </cc:Work>
    </rdf:RDF>
  </metadata>
  <defs
     id="defs908" />
  <sodipodi:namedview
     pagecolor="#ffffff"
     bordercolor="#666666"
     borderopacity="1"
     objecttolerance="10"
     gridtolerance="10"
     guidetolerance="10"
     inkscape:pageopacity="0"
     inkscape:pageshadow="2"
     inkscape:window-width="2560"
     inkscape:window-height="1476"
     id="namedview906"
     showgrid="false"
     inkscape:zoom="0.40442272"
     inkscape:cx="-267.04731"
     inkscape:cy="-321.44583"
     inkscape:window-x="-12"
     inkscape:window-y="-12"
     inkscape:window-maximized="1"
     inkscape:current-layer="svg904"
     inkscape:showpageshadow="2"
     inkscape:pagecheckerboard="0"
     inkscape:deskcolor="#d1d1d1"
     showguides="true" />
  <g
     id="g308"
     transform="translate(-21.147534,-0.9398845)">
    <path
       d="m 86.773778,60.217716 c 9.654574,0 17.389862,-7.867928 17.389862,-17.614745 0,-9.746812 -7.735288,-17.614737 -17.389862,-17.614737 -9.654573,0 -17.448023,7.867925 -17.448023,17.614737 0,9.746817 7.79345,17.614745 17.448023,17.614745 z"
       id="path1499"
       inkscape:connector-curvature="0"
       style="stroke-width:0.576856" />
    <path
       d="m 87.507475,67.169076 c -10.378519,0 -31.180102,7.142114 -31.180102,21.365279 V 102.79534 H 118.68758 V 88.534355 c 0,-14.223165 -20.801583,-21.365279 -31.180105,-21.365279 z"
       id="path1497"
       inkscape:connector-curvature="0"
       style="stroke-width:0.544552"
       sodipodi:nodetypes="ssccss" />
  </g>
  <g
     id="g1558"
     transform="translate(-21.147534,129.15631)">
    <path
       d="m 86.773778,60.217716 c 9.654574,0 17.389862,-7.867928 17.389862,-17.614745 0,-9.746812 -7.735288,-17.614737 -17.389862,-17.614737 -9.654573,0 -17.448023,7.867925 -17.448023,17.614737 0,9.746817 7.79345,17.614745 17.448023,17.614745 z"
       id="path1554"
       inkscape:connector-curvature="0"
       style="stroke-width:0.576856" />
    <path
       d="m 87.507475,67.169076 c -10.378519,0 -31.180102,7.142114 -31.180102,21.365279 V 102.79534 H 118.68758 V 88.534355 c 0,-14.223165 -20.801583,-21.365279 -31.180105,-21.365279 z"
       id="path1556"
       inkscape:connector-curvature="0"
       style="stroke-width:0.544552"
       sodipodi:nodetypes="ssccss" />
  </g>
  <g
     id="g1578"
     transform="translate(102.13258,-0.9398845)">
    <path
       d="m 86.773778,60.217716 c 9.654574,0 17.389862,-7.867928 17.389862,-17.614745 0,-9.746812 -7.735288,-17.614737 -17.389862,-17.614737 -9.654573,0 -17.448023,7.867925 -17.448023,17.614737 0,9.746817 7.79345,17.614745 17.448023,17.614745 z"
       id="path1574"
       inkscape:connector-curvature="0"
       style="stroke-width:0.576856" />
    <path
       d="m 87.507475,67.169076 c -10.378519,0 -31.180102,7.142114 -31.180102,21.365279 V 102.79534 H 118.68758 V 88.534355 c 0,-14.223165 -20.801583,-21.365279 -31.180105,-21.365279 z"
       id="path1576"
       inkscape:connector-curvature="0"
       style="stroke-width:0.544552"
       sodipodi:nodetypes="ssccss" />
  </g>
  <g
     id="g1586"
     transform="translate(102.13258,129.15631)">
    <path
       d="m 86.773778,60.217716 c 9.654574,0 17.389862,-7.867928 17.389862,-17.614745 0,-9.746812 -7.735288,-17.614737 -17.389862,-17.614737 -9.654573,0 -17.448023,7.867925 -17.448023,17.614737 0,9.746817 7.79345,17.614745 17.448023,17.614745 z"
       id="path1582"
       inkscape:connector-curvature="0"
       style="stroke-width:0.576856" />
    <path
       d="m 87.507475,67.169076 c -10.378519,0 -31.180102,7.142114 -31.180102,21.365279 V 102.79534 H 118.68758 V 88.534355 c 0,-14.223165 -20.801583,-21.365279 -31.180105,-21.365279 z"
       id="path1584"
       inkscape:connector-curvature="0"
       style="stroke-width:0.544552"
       sodipodi:nodetypes="ssccss" />
  </g>
</svg>
