<?xml version="1.0" encoding="UTF-8" standalone="no"?>
<svg
   viewBox="0 0 256 256"
   width="512"
   height="512"
   version="1.1"
   id="svg904"
   sodipodi:docname="individual+.svg"
   inkscape:version="1.2.2 (732a01da63, 2022-12-09)"
   style="fill:#000000"
   xmlns:inkscape="http://www.inkscape.org/namespaces/inkscape"
   xmlns:sodipodi="http://sodipodi.sourceforge.net/DTD/sodipodi-0.dtd"
   xmlns="http://www.w3.org/2000/svg"
   xmlns:svg="http://www.w3.org/2000/svg"
   xmlns:rdf="http://www.w3.org/1999/02/22-rdf-syntax-ns#"
   xmlns:cc="http://creativecommons.org/ns#"
   xmlns:dc="http://purl.org/dc/elements/1.1/">
  <metadata
     id="metadata910">
    <rdf:RDF>
      <cc:Work
         rdf:about="">
        <dc:format>image/svg+xml</dc:format>
        <dc:type
           rdf:resource="http://purl.org/dc/dcmitype/StillImage" />
      </cc:Work>
    </rdf:RDF>
  </metadata>
  <defs
     id="defs908">
    <marker
       style="overflow:visible"
       id="TriangleStart"
       refX="0"
       refY="0"
       orient="auto-start-reverse"
       inkscape:stockid="TriangleStart"
       markerWidth="2.5"
       markerHeight="2.8901734"
       viewBox="0 0 5.3244081 6.1553851"
       inkscape:isstock="true"
       inkscape:collect="always"
       preserveAspectRatio="xMidYMid">
      <path
         transform="scale(0.5)"
         style="fill:context-stroke;fill-rule:evenodd;stroke:context-stroke;stroke-width:1pt"
         d="M 5.77,0 -2.88,5 V -5 Z"
         id="path135" />
    </marker>
    <marker
       style="overflow:visible"
       id="TriangleStart-9-0"
       refX="0"
       refY="0"
       orient="auto-start-reverse"
       inkscape:stockid="TriangleStart"
       markerWidth="2.5"
       markerHeight="2.8901734"
       viewBox="0 0 5.3244081 6.1553851"
       inkscape:isstock="true"
       inkscape:collect="always"
       preserveAspectRatio="xMidYMid">
      <path
         transform="scale(0.5)"
         style="fill:context-stroke;fill-rule:evenodd;stroke:context-stroke;stroke-width:1pt"
         d="M 5.77,0 -2.88,5 V -5 Z"
         id="path135-6-1" />
    </marker>
  </defs>
  <sodipodi:namedview
     pagecolor="#ffffff"
     bordercolor="#666666"
     borderopacity="1"
     objecttolerance="10"
     gridtolerance="10"
     guidetolerance="10"
     inkscape:pageopacity="0"
     inkscape:pageshadow="2"
     inkscape:window-width="2560"
     inkscape:window-height="1476"
     id="namedview906"
     showgrid="false"
     inkscape:zoom="4.5755208"
     inkscape:cx="285.21343"
     inkscape:cy="290.02163"
     inkscape:window-x="-12"
     inkscape:window-y="-12"
     inkscape:window-maximized="1"
     inkscape:current-layer="svg904"
     inkscape:showpageshadow="2"
     inkscape:pagecheckerboard="0"
     inkscape:deskcolor="#d1d1d1"
     showguides="true" />
  <g
     id="g308"
     transform="translate(-25.166762,-8.940239)">
    <path
       d="m 86.773778,60.217716 c 9.654574,0 17.389862,-7.867928 17.389862,-17.614745 0,-9.746812 -7.735288,-17.614737 -17.389862,-17.614737 -9.654573,0 -17.448023,7.867925 -17.448023,17.614737 0,9.746817 7.79345,17.614745 17.448023,17.614745 z"
       id="path1499"
       inkscape:connector-curvature="0"
       style="stroke-width:0.576856" />
    <path
       d="m 87.507475,67.169076 c -10.378519,0 -31.180102,7.142114 -31.180102,21.365279 V 103.79534 H 118.68758 V 88.534355 c 0,-14.223165 -20.801583,-21.365279 -31.180105,-21.365279 z"
       id="path1497"
       inkscape:connector-curvature="0"
       style="stroke-width:0.544552" />
  </g>
  <g
     id="g359"
     transform="translate(-25.166762,135.642)">
    <path
       d="m 86.773778,60.217716 c 9.654574,0 17.389862,-7.867928 17.389862,-17.614745 0,-9.746812 -7.735288,-17.614737 -17.389862,-17.614737 -9.654573,0 -17.448023,7.867925 -17.448023,17.614737 0,9.746817 7.79345,17.614745 17.448023,17.614745 z"
       id="path355"
       inkscape:connector-curvature="0"
       style="stroke-width:0.576856" />
    <path
       d="m 87.507475,67.169076 c -10.378519,0 -31.180102,7.142114 -31.180102,21.365279 V 103.79534 H 118.68758 V 88.534355 c 0,-14.223165 -20.801583,-21.365279 -31.180105,-21.365279 z"
       id="path357"
       inkscape:connector-curvature="0"
       style="stroke-width:0.544552" />
  </g>
  <g
     id="g1857"
     transform="matrix(1,0,0,-1,-3.573131,255.64849)">
    <path
       style="fill:#000000;fill-opacity:1;stroke:#000000;stroke-width:7.5;stroke-linecap:square;stroke-linejoin:round;stroke-dasharray:none;stroke-dashoffset:6.24;stroke-opacity:1;marker-end:url(#TriangleStart)"
       d="M 55.075695,108.98552 V 137.9078"
       id="path430"
       sodipodi:nodetypes="cc" />
    <path
       style="fill:#000000;fill-opacity:1;stroke:#000000;stroke-width:7.5;stroke-linecap:square;stroke-linejoin:round;stroke-dasharray:none;stroke-dashoffset:6.24;stroke-opacity:1;marker-end:url(#TriangleStart)"
       d="M 76.751996,146.66297 V 117.74069"
       id="path1835"
       sodipodi:nodetypes="cc" />
  </g>
  <g
     id="g1857-9-6"
     transform="matrix(0,1,1,0,0.175755,141.79872)"
     style="fill:#000000">
    <path
       style="fill:#000000;fill-opacity:1;stroke:#000000;stroke-width:7.5;stroke-linecap:square;stroke-linejoin:round;stroke-dasharray:none;stroke-dashoffset:6.24;stroke-opacity:1;marker-end:url(#TriangleStart-9-0)"
       d="M 55.075695,108.98552 V 137.9078"
       id="path430-6-8"
       sodipodi:nodetypes="cc" />
    <path
       style="fill:#000000;fill-opacity:1;stroke:#000000;stroke-width:7.5;stroke-linecap:square;stroke-linejoin:round;stroke-dasharray:none;stroke-dashoffset:6.24;stroke-opacity:1;marker-end:url(#TriangleStart-9-0)"
       d="M 76.751996,146.66297 V 117.74069"
       id="path1835-2-5"
       sodipodi:nodetypes="cc" />
  </g>
  <g
     id="g2149"
     transform="translate(106.79341,-8.940239)">
    <path
       d="m 86.773778,60.217716 c 9.654574,0 17.389862,-7.867928 17.389862,-17.614745 0,-9.746812 -7.735288,-17.614737 -17.389862,-17.614737 -9.654573,0 -17.448023,7.867925 -17.448023,17.614737 0,9.746817 7.79345,17.614745 17.448023,17.614745 z"
       id="path2145"
       inkscape:connector-curvature="0"
       style="stroke-width:0.576856" />
    <path
       d="m 87.507475,67.169076 c -10.378519,0 -31.180102,7.142114 -31.180102,21.365279 V 103.79534 H 118.68758 V 88.534355 c 0,-14.223165 -20.801583,-21.365279 -31.180105,-21.365279 z"
       id="path2147"
       inkscape:connector-curvature="0"
       style="stroke-width:0.544552" />
  </g>
  <g
     id="g2155"
     transform="translate(106.79341,135.642)">
    <path
       d="m 86.773778,60.217716 c 9.654574,0 17.389862,-7.867928 17.389862,-17.614745 0,-9.746812 -7.735288,-17.614737 -17.389862,-17.614737 -9.654573,0 -17.448023,7.867925 -17.448023,17.614737 0,9.746817 7.79345,17.614745 17.448023,17.614745 z"
       id="path2151"
       inkscape:connector-curvature="0"
       style="stroke-width:0.576856" />
    <path
       d="m 87.507475,67.169076 c -10.378519,0 -31.180102,7.142114 -31.180102,21.365279 V 103.79534 H 118.68758 V 88.534355 c 0,-14.223165 -20.801583,-21.365279 -31.180105,-21.365279 z"
       id="path2153"
       inkscape:connector-curvature="0"
       style="stroke-width:0.544552" />
  </g>
  <g
     id="g2161"
     transform="matrix(1,0,0,-1,128.38704,255.64849)">
    <path
       style="fill:#000000;fill-opacity:1;stroke:#000000;stroke-width:7.5;stroke-linecap:square;stroke-linejoin:round;stroke-dasharray:none;stroke-dashoffset:6.24;stroke-opacity:1;marker-end:url(#TriangleStart)"
       d="M 55.075695,108.98552 V 137.9078"
       id="path2157"
       sodipodi:nodetypes="cc" />
    <path
       style="fill:#000000;fill-opacity:1;stroke:#000000;stroke-width:7.5;stroke-linecap:square;stroke-linejoin:round;stroke-dasharray:none;stroke-dashoffset:6.24;stroke-opacity:1;marker-end:url(#TriangleStart)"
       d="M 76.751996,146.66297 V 117.74069"
       id="path2159"
       sodipodi:nodetypes="cc" />
  </g>
  <g
     id="g2520"
     transform="matrix(0,1,1,0,0.175755,-2.783519)"
     style="fill:#d40000">
    <path
       style="fill:#d40000;fill-opacity:1;stroke:#000000;stroke-width:7.5;stroke-linecap:square;stroke-linejoin:round;stroke-dasharray:none;stroke-dashoffset:6.24;stroke-opacity:1;marker-end:url(#TriangleStart-9-0)"
       d="M 55.075695,108.98552 V 137.9078"
       id="path2516"
       sodipodi:nodetypes="cc" />
    <path
       style="fill:#d40000;fill-opacity:1;stroke:#000000;stroke-width:7.5;stroke-linecap:square;stroke-linejoin:round;stroke-dasharray:none;stroke-dashoffset:6.24;stroke-opacity:1;marker-end:url(#TriangleStart-9-0)"
       d="M 76.751996,146.66297 V 117.74069"
       id="path2518"
       sodipodi:nodetypes="cc" />
  </g>
  <path
     style="color:#000000;fill:#d40000;stroke-width:7.5;stroke-linecap:square;stroke-linejoin:round;stroke-dashoffset:6.24;-inkscape-stroke:none"
     d="m 96.45458,159.9471 47.56573,-47.56573"
     id="path5974" />
  <path
     id="path5976"
     style="color:#000000;stroke-linecap:square;stroke-linejoin:round;stroke-dashoffset:6.24;-inkscape-stroke:none"
     d="m 152.86426,103.53906 -20.92383,5.59375 5.01269,5.0127 -45.801753,45.80176 5.302735,5.30273 45.802738,-45.80078 5.01171,5.01172 z m 7.70312,12.98242 -45.80078,45.80079 -5.01172,-5.01172 -5.5957,20.92187 20.92187,-5.5957 -5.01171,-5.01172 45.80078,-45.80078 z"
     sodipodi:nodetypes="cccccccccccccccc" />
  <path
     style="color:#000000;fill:#d40000;stroke-width:7.5;stroke-linecap:square;stroke-linejoin:round;stroke-dashoffset:6.24;-inkscape-stroke:none"
     d="m 160.56717,121.82365 -47.56573,47.56572"
     id="path5990" />
  <g
     id="g4765"
     style="display:inline">
    <path
       style="font-variation-settings:normal;opacity:1;vector-effect:none;fill:#d40000;fill-opacity:1;stroke:#000000;stroke-width:7.5;stroke-linecap:square;stroke-linejoin:round;stroke-miterlimit:4;stroke-dasharray:none;stroke-dashoffset:6.24;stroke-opacity:1;-inkscape-stroke:none;marker-end:url(#TriangleStart);stop-color:#000000;stop-opacity:1"
       d="m 109.44914,108.82908 47.56573,47.56573"
       id="path4703" />
    <path
       style="font-variation-settings:normal;opacity:1;vector-effect:none;fill:#d40000;fill-opacity:1;stroke:#000000;stroke-width:7.5;stroke-linecap:square;stroke-linejoin:round;stroke-miterlimit:4;stroke-dasharray:none;stroke-dashoffset:6.24;stroke-opacity:1;-inkscape-stroke:none;marker-end:url(#TriangleStart);stop-color:#000000;stop-opacity:1"
       d="M 147.57259,172.94167 100.00687,125.37594"
       id="path4721" />
  </g>
  <g
     id="g4893"
     style="fill:#d40000">
    <g
       id="path4889"
       style="fill:#338000;stroke:#00ff00;stroke-width:5">
      <g
         id="path4937">
        <path
           style="color:#000000;stroke:none;stroke-linecap:square;stroke-linejoin:round;stroke-dashoffset:6.24;-inkscape-stroke:none"
           d="m 109.44914,108.82908 47.56573,47.56573"
           id="path5106" />
        <path
           style="color:#000000;fill:#00ff00;stroke:none;stroke-linecap:square;stroke-linejoin:round;stroke-dashoffset:6.24;-inkscape-stroke:none"
           d="m 109.44922,105.29297 -3.53516,3.53516 1.76758,1.76953 47.56641,47.56445 1.76757,1.76758 3.53516,-3.53516 -1.76758,-1.76758 -47.5664,-47.5664 z"
           id="path5108" />
      </g>
      <g
         id="path4939">
        <path
           style="color:#000000;fill:#00ff00;stroke:none;stroke-linecap:square;stroke-linejoin:round;stroke-dashoffset:6.24;-inkscape-stroke:none"
           d="m 107.68164,101.75781 -5.30273,5.30274 c -0.97592,0.97632 -0.97592,2.55883 0,3.53515 l 44.0332,44.03516 -3.24414,3.24414 c -1.36168,1.36105 -0.73871,3.68581 1.12109,4.18359 l 20.92188,5.59571 c 1.85942,0.4986 3.5611,-1.20308 3.0625,-3.0625 l -5.59375,-20.92383 c -0.49777,-1.85981 -2.82255,-2.48279 -4.1836,-1.1211 l -3.24414,3.24415 -44.03515,-44.03321 c -0.97633,-0.97592 -2.55883,-0.97592 -3.53516,0 z"
           id="path5114"
           sodipodi:nodetypes="ccccccccccccc" />
        <path
           style="color:#000000;fill:#00ff00;stroke:none;stroke-linecap:square;stroke-linejoin:round;stroke-dashoffset:6.24;-inkscape-stroke:none"
           d="m 109.44922,107.06055 44.0332,44.03515 a 2.50025,2.50025 0 0 0 3.53711,0 l 1.94727,-1.94726 3.35742,12.55664 -12.55664,-3.35938 1.94726,-1.94726 a 2.50025,2.50025 0 0 0 0,-3.53516 l -44.0332,-44.03515 z"
           id="path5130" />
      </g>
      <g
         id="g4927">
        <g
           id="path4929" />
      </g>
    </g>
    <g
       id="path4891"
       style="fill:#338000;stroke:#00ff00;stroke-width:5">
      <g
         id="path4953">
        <path
           style="color:#000000;stroke:none;stroke-linecap:square;stroke-linejoin:round;stroke-dashoffset:6.24;-inkscape-stroke:none"
           d="M 147.57259,172.94167 100.00687,125.37594"
           id="path5118" />
        <path
           style="color:#000000;fill:#00ff00;stroke:none;stroke-linecap:square;stroke-linejoin:round;stroke-dashoffset:6.24;-inkscape-stroke:none"
           d="m 100.00781,121.83984 -3.537107,3.53516 1.767578,1.76953 47.566409,47.56445 1.76758,1.76758 3.53515,-3.53515 -1.76758,-1.76758 -47.56445,-47.56641 z"
           id="path5120" />
      </g>
      <g
         id="path4955">
        <path
           style="color:#000000;stroke:none;stroke-linecap:square;stroke-linejoin:round;stroke-dashoffset:6.24;-inkscape-stroke:none"
           d="m 91.164062,116.5332 5.595704,20.92188 5.011714,-5.01172 45.80079,45.80078 5.30273,-5.30273 -45.80078,-45.80079 5.01172,-5.01171 z"
           id="path5124" />
        <path
           style="color:#000000;fill:#00ff00;stroke:none;stroke-linecap:square;stroke-linejoin:round;stroke-dashoffset:6.24;-inkscape-stroke:none"
           d="m 91.810547,114.11719 a 2.50025,2.50025 0 0 0 -3.0625,3.0625 l 5.595703,20.92187 a 2.50025,2.50025 0 0 0 4.183594,1.1211 l 3.244136,-3.24414 44.03321,44.0332 a 2.50025,2.50025 0 0 0 3.53515,0 l 5.30274,-5.30274 a 2.50025,2.50025 0 0 0 0,-3.53515 l -44.0332,-44.0332 3.24414,-3.24415 a 2.50025,2.50025 0 0 0 -1.1211,-4.18359 z"
           id="path5126" />
      </g>
      <g
         id="g4943">
        <g
           id="path4945" />
      </g>
    </g>
  </g>
  <g
     id="g5072"
     transform="rotate(-90,128.51087,140.88537)"
     style="display:none">
    <path
       style="font-variation-settings:normal;opacity:1;vector-effect:none;fill:#d40000;fill-opacity:1;stroke:#000000;stroke-width:7.5;stroke-linecap:square;stroke-linejoin:round;stroke-miterlimit:4;stroke-dasharray:none;stroke-dashoffset:6.24;stroke-opacity:1;-inkscape-stroke:none;marker-end:url(#TriangleStart);stop-color:#000000;stop-opacity:1"
       d="m 109.44914,108.82908 47.56573,47.56573"
       id="path5068" />
    <path
       style="font-variation-settings:normal;opacity:1;vector-effect:none;fill:#d40000;fill-opacity:1;stroke:#000000;stroke-width:7.5;stroke-linecap:square;stroke-linejoin:round;stroke-miterlimit:4;stroke-dasharray:none;stroke-dashoffset:6.24;stroke-opacity:1;-inkscape-stroke:none;marker-end:url(#TriangleStart);stop-color:#000000;stop-opacity:1"
       d="M 147.57259,172.94167 100.00687,125.37594"
       id="path5070" />
  </g>
</svg>
