<?xml version="1.0" encoding="UTF-8" standalone="no"?>
<svg
   viewBox="0 0 256 256"
   width="512"
   height="512"
   version="1.1"
   id="svg904"
   sodipodi:docname="one_to_all_draft.svg"
   inkscape:version="1.2.2 (732a01da63, 2022-12-09)"
   style="fill:#000000"
   xmlns:inkscape="http://www.inkscape.org/namespaces/inkscape"
   xmlns:sodipodi="http://sodipodi.sourceforge.net/DTD/sodipodi-0.dtd"
   xmlns="http://www.w3.org/2000/svg"
   xmlns:svg="http://www.w3.org/2000/svg"
   xmlns:rdf="http://www.w3.org/1999/02/22-rdf-syntax-ns#"
   xmlns:cc="http://creativecommons.org/ns#"
   xmlns:dc="http://purl.org/dc/elements/1.1/">
  <metadata
     id="metadata910">
    <rdf:RDF>
      <cc:Work
         rdf:about="">
        <dc:format>image/svg+xml</dc:format>
        <dc:type
           rdf:resource="http://purl.org/dc/dcmitype/StillImage" />
      </cc:Work>
    </rdf:RDF>
  </metadata>
  <defs
     id="defs908" />
  <sodipodi:namedview
     pagecolor="#ffffff"
     bordercolor="#666666"
     borderopacity="1"
     objecttolerance="10"
     gridtolerance="10"
     guidetolerance="10"
     inkscape:pageopacity="0"
     inkscape:pageshadow="2"
     inkscape:window-width="2560"
     inkscape:window-height="1476"
     id="namedview906"
     showgrid="false"
     inkscape:zoom="1.1438802"
     inkscape:cx="178.34035"
     inkscape:cy="316.46671"
     inkscape:window-x="-12"
     inkscape:window-y="-12"
     inkscape:window-maximized="1"
     inkscape:current-layer="svg904"
     inkscape:showpageshadow="2"
     inkscape:pagecheckerboard="0"
     inkscape:deskcolor="#d1d1d1" />
  <path
     d="m 128.03553,66.126576 c 11.79656,0 21.24802,-9.613526 21.24802,-21.522797 0,-11.909265 -9.45146,-21.522788 -21.24802,-21.522788 -11.79655,0 -21.31908,9.613523 -21.31908,21.522788 0,11.909271 9.52253,21.522797 21.31908,21.522797 z"
     id="path1499"
     inkscape:connector-curvature="0"
     style="stroke-width:0.704839" />
  <path
     d="m 127.99999,74.620183 c -12.68112,0 -38.097793,8.726682 -38.097793,26.105437 v 18.64683 H 166.0978 v -18.64683 c 0,-17.378755 -25.41667,-26.105437 -38.09781,-26.105437 z"
     id="path1497"
     inkscape:connector-curvature="0"
     style="stroke-width:0.665368" />
  <g
     id="g2607"
     transform="translate(0,-8)">
    <path
       d="m 192.35071,188.18803 c 8.12136,0 14.62821,-6.61844 14.62821,-14.81739 0,-8.19893 -6.50685,-14.81737 -14.62821,-14.81737 -8.12135,0 -14.67713,6.61844 -14.67713,14.81737 0,8.19895 6.55578,14.81739 14.67713,14.81739 z"
       id="path1501"
       inkscape:connector-curvature="0"
       style="fill:#000000;stroke-width:0.485247" />
    <path
       d="m 192.32625,194.03546 c -8.73033,0 -26.22845,6.00787 -26.22845,17.97228 v 12.83742 h 52.4569 v -12.83742 c 0,-11.96441 -17.49812,-17.97228 -26.22845,-17.97228 z"
       id="path1497-8"
       inkscape:connector-curvature="0"
       style="fill:#000000;stroke-width:0.458072" />
  </g>
  <g
     id="g2579">
    <path
       d="m 156.26207,188.18803 c 8.12135,0 14.62821,-6.61844 14.62821,-14.81739 0,-8.19893 -6.50686,-14.81737 -14.62821,-14.81737 -8.12135,0 -14.67714,6.61844 -14.67714,14.81737 0,8.19895 6.55579,14.81739 14.67714,14.81739 z"
       id="path1499-8"
       inkscape:connector-curvature="0"
       style="fill:#000000;stroke-width:0.485247" />
    <path
       d="m 156.87925,194.03546 c -8.73032,0 -26.22845,6.00788 -26.22845,17.97229 v 12.83742 h 52.4569 v -12.83742 c 0,-11.96441 -17.49812,-17.97229 -26.22845,-17.97229 z"
       id="path1497-84"
       inkscape:connector-curvature="0"
       style="fill:#000000;stroke-width:0.458072" />
    <path
       style="color:#000000;fill:#00ff00;stroke-width:0.485247;-inkscape-stroke:none"
       d="m 156.87939,187.97005 c -5.75653,0 -12.79458,1.67652 -19.30467,5.24674 -6.51009,3.57021 -12.98983,9.85179 -12.98983,18.79099 v 18.90283 h 64.58805 v -18.90283 c 0,-8.9392 -6.47879,-15.22078 -12.98888,-18.79099 -6.51009,-3.57022 -13.54814,-5.24674 -19.30467,-5.24674 z"
       id="path1031" />
    <path
       d="m 156.26207,188.18803 c 8.12135,0 14.62821,-6.61844 14.62821,-14.81739 0,-8.19893 -6.50686,-14.81737 -14.62821,-14.81737 -8.12135,0 -14.67714,6.61844 -14.67714,14.81737 0,8.19895 6.55579,14.81739 14.67714,14.81739 z"
       id="path2363"
       inkscape:connector-curvature="0"
       style="fill:#000000;stroke-width:0.485247" />
    <path
       d="m 156.87925,194.03546 c -8.73032,0 -26.22845,6.00788 -26.22845,17.97229 v 12.83742 h 52.4569 v -12.83742 c 0,-11.96441 -17.49812,-17.97229 -26.22845,-17.97229 z"
       id="path2365"
       inkscape:connector-curvature="0"
       style="fill:#000000;stroke-width:0.458072" />
    <path
       style="color:#000000;fill:#00ff00;stroke-width:0.485247;-inkscape-stroke:none"
       d="m 156.87939,187.97005 c -5.75653,0 -12.79458,1.67652 -19.30467,5.24674 -6.51009,3.57021 -12.98983,9.85179 -12.98983,18.79099 v 18.90283 h 64.58805 v -18.90283 c 0,-8.9392 -6.47879,-15.22078 -12.98888,-18.79099 -6.51009,-3.57022 -13.54814,-5.24674 -19.30467,-5.24674 z"
       id="path2367" />
  </g>
  <g
     id="g2587"
     transform="translate(0,2)">
    <path
       d="m 120.17342,188.18803 c 8.12135,0 14.62821,-6.61844 14.62821,-14.81739 0,-8.19893 -6.50686,-14.81737 -14.62821,-14.81737 -8.12135,0 -14.67714,6.61844 -14.67714,14.81737 0,8.19895 6.55579,14.81739 14.67714,14.81739 z"
       id="path2423"
       inkscape:connector-curvature="0"
       style="fill:#000000;stroke-width:0.485247" />
    <path
       d="m 120.7906,194.03546 c -8.73032,0 -26.228451,6.00788 -26.228451,17.97229 v 12.83742 h 52.456901 v -12.83742 c 0,-11.96441 -17.49812,-17.97229 -26.22845,-17.97229 z"
       id="path2425"
       inkscape:connector-curvature="0"
       style="fill:#000000;stroke-width:0.458072" />
    <path
       style="color:#000000;fill:#00ff00;stroke-width:0.485247;-inkscape-stroke:none"
       d="m 120.79074,187.97005 c -5.75653,0 -12.79458,1.67652 -19.30467,5.24674 -6.510091,3.57021 -12.989831,9.85179 -12.989831,18.79099 v 18.90283 h 64.588051 v -18.90283 c 0,-8.9392 -6.47879,-15.22078 -12.98888,-18.79099 -6.51009,-3.57022 -13.54814,-5.24674 -19.30467,-5.24674 z"
       id="path2427" />
    <path
       d="m 120.17342,188.18803 c 8.12135,0 14.62821,-6.61844 14.62821,-14.81739 0,-8.19893 -6.50686,-14.81737 -14.62821,-14.81737 -8.12135,0 -14.67714,6.61844 -14.67714,14.81737 0,8.19895 6.55579,14.81739 14.67714,14.81739 z"
       id="path2429"
       inkscape:connector-curvature="0"
       style="fill:#000000;stroke-width:0.485247" />
    <path
       d="m 120.7906,194.03546 c -8.73032,0 -26.228451,6.00788 -26.228451,17.97229 v 12.83742 h 52.456901 v -12.83742 c 0,-11.96441 -17.49812,-17.97229 -26.22845,-17.97229 z"
       id="path2431"
       inkscape:connector-curvature="0"
       style="fill:#000000;stroke-width:0.458072" />
    <path
       style="color:#000000;fill:#00ff00;stroke-width:0.485247;-inkscape-stroke:none"
       d="m 120.79074,187.97005 c -5.75653,0 -12.79458,1.67652 -19.30467,5.24674 -6.510091,3.57021 -12.989831,9.85179 -12.989831,18.79099 v 18.90283 h 64.588051 v -18.90283 c 0,-8.9392 -6.47879,-15.22078 -12.98888,-18.79099 -6.51009,-3.57022 -13.54814,-5.24674 -19.30467,-5.24674 z"
       id="path2433" />
  </g>
  <g
     id="g2595">
    <path
       d="m 84.084763,188.18803 c 8.12135,0 14.62821,-6.61844 14.62821,-14.81739 0,-8.19893 -6.50686,-14.81737 -14.62821,-14.81737 -8.12135,0 -14.677141,6.61844 -14.677141,14.81737 0,8.19895 6.555791,14.81739 14.677141,14.81739 z"
       id="path2437"
       inkscape:connector-curvature="0"
       style="fill:#000000;stroke-width:0.485247" />
    <path
       d="m 84.701943,194.03546 c -8.73032,0 -26.228451,6.00788 -26.228451,17.97229 v 12.83742 H 110.9304 v -12.83742 c 0,-11.96441 -17.498127,-17.97229 -26.228457,-17.97229 z"
       id="path2439"
       inkscape:connector-curvature="0"
       style="fill:#000000;stroke-width:0.458072" />
    <path
       style="color:#000000;fill:#00ff00;stroke-width:0.485247;-inkscape-stroke:none"
       d="m 84.702083,187.97005 c -5.75653,0 -12.794581,1.67652 -19.304671,5.24674 -6.51009,3.57021 -12.98983,9.85179 -12.98983,18.79099 v 18.90283 h 64.588058 v -18.90283 c 0,-8.9392 -6.47879,-15.22078 -12.98889,-18.79099 -6.510087,-3.57022 -13.548137,-5.24674 -19.304667,-5.24674 z"
       id="path2441" />
    <path
       d="m 84.084763,188.18803 c 8.12135,0 14.62821,-6.61844 14.62821,-14.81739 0,-8.19893 -6.50686,-14.81737 -14.62821,-14.81737 -8.12135,0 -14.677141,6.61844 -14.677141,14.81737 0,8.19895 6.555791,14.81739 14.677141,14.81739 z"
       id="path2443"
       inkscape:connector-curvature="0"
       style="fill:#000000;stroke-width:0.485247" />
    <path
       d="m 84.701943,194.03546 c -8.73032,0 -26.228451,6.00788 -26.228451,17.97229 v 12.83742 H 110.9304 v -12.83742 c 0,-11.96441 -17.498127,-17.97229 -26.228457,-17.97229 z"
       id="path2445"
       inkscape:connector-curvature="0"
       style="fill:#000000;stroke-width:0.458072" />
    <path
       style="color:#000000;fill:#00ff00;stroke-width:0.485247;-inkscape-stroke:none"
       d="m 84.702083,187.97005 c -5.75653,0 -12.794581,1.67652 -19.304671,5.24674 -6.51009,3.57021 -12.98983,9.85179 -12.98983,18.79099 v 18.90283 h 64.588058 v -18.90283 c 0,-8.9392 -6.47879,-15.22078 -12.98889,-18.79099 -6.510087,-3.57022 -13.548137,-5.24674 -19.304667,-5.24674 z"
       id="path2447" />
  </g>
  <g
     id="g2603"
     transform="translate(0,-8)">
    <path
       d="m 47.996107,188.18803 c 8.12135,0 14.62821,-6.61844 14.62821,-14.81739 0,-8.19893 -6.50686,-14.81737 -14.62821,-14.81737 -8.12135,0 -14.677141,6.61844 -14.677141,14.81737 0,8.19895 6.555791,14.81739 14.677141,14.81739 z"
       id="path2451"
       inkscape:connector-curvature="0"
       style="fill:#000000;stroke-width:0.485247" />
    <path
       d="m 48.613287,194.03546 c -8.73032,0 -26.228451,6.00788 -26.228451,17.97229 v 12.83742 h 52.456908 v -12.83742 c 0,-11.96441 -17.498127,-17.97229 -26.228457,-17.97229 z"
       id="path2453"
       inkscape:connector-curvature="0"
       style="fill:#000000;stroke-width:0.458072" />
    <path
       style="color:#000000;fill:#00ff00;stroke-width:0.485247;-inkscape-stroke:none"
       d="m 48.613427,187.97005 c -5.75653,0 -12.794581,1.67652 -19.304671,5.24674 -6.51009,3.57021 -12.98983,9.85179 -12.98983,18.79099 v 18.90283 h 64.588058 v -18.90283 c 0,-8.9392 -6.47879,-15.22078 -12.988887,-18.79099 -6.51009,-3.57022 -13.54814,-5.24674 -19.30467,-5.24674 z"
       id="path2455" />
    <path
       d="m 47.996107,188.18803 c 8.12135,0 14.62821,-6.61844 14.62821,-14.81739 0,-8.19893 -6.50686,-14.81737 -14.62821,-14.81737 -8.12135,0 -14.677141,6.61844 -14.677141,14.81737 0,8.19895 6.555791,14.81739 14.677141,14.81739 z"
       id="path2457"
       inkscape:connector-curvature="0"
       style="fill:#000000;stroke-width:0.485247" />
    <path
       d="m 48.613287,194.03546 c -8.73032,0 -26.228451,6.00788 -26.228451,17.97229 v 12.83742 h 52.456908 v -12.83742 c 0,-11.96441 -17.498127,-17.97229 -26.228457,-17.97229 z"
       id="path2459"
       inkscape:connector-curvature="0"
       style="fill:#000000;stroke-width:0.458072" />
    <path
       style="color:#000000;fill:#00ff00;stroke-width:0.485247;-inkscape-stroke:none"
       d="m 48.613427,187.97005 c -5.75653,0 -12.794581,1.67652 -19.304671,5.24674 -6.51009,3.57021 -12.98983,9.85179 -12.98983,18.79099 v 18.90283 h 64.588058 v -18.90283 c 0,-8.9392 -6.47879,-15.22078 -12.988887,-18.79099 -6.51009,-3.57022 -13.54814,-5.24674 -19.30467,-5.24674 z"
       id="path2461" />
  </g>
</svg>
