<?xml version="1.0" encoding="UTF-8" standalone="no"?>
<svg
   viewBox="0 0 256 256"
   width="512"
   height="512"
   version="1.1"
   id="svg904"
   sodipodi:docname="one_to_all.svg"
   inkscape:version="1.2.2 (732a01da63, 2022-12-09)"
   style="fill:#000000"
   xmlns:inkscape="http://www.inkscape.org/namespaces/inkscape"
   xmlns:sodipodi="http://sodipodi.sourceforge.net/DTD/sodipodi-0.dtd"
   xmlns="http://www.w3.org/2000/svg"
   xmlns:svg="http://www.w3.org/2000/svg"
   xmlns:rdf="http://www.w3.org/1999/02/22-rdf-syntax-ns#"
   xmlns:cc="http://creativecommons.org/ns#"
   xmlns:dc="http://purl.org/dc/elements/1.1/">
  <metadata
     id="metadata910">
    <rdf:RDF>
      <cc:Work
         rdf:about="">
        <dc:format>image/svg+xml</dc:format>
        <dc:type
           rdf:resource="http://purl.org/dc/dcmitype/StillImage" />
      </cc:Work>
    </rdf:RDF>
  </metadata>
  <defs
     id="defs908" />
  <sodipodi:namedview
     pagecolor="#ffffff"
     bordercolor="#666666"
     borderopacity="1"
     objecttolerance="10"
     gridtolerance="10"
     guidetolerance="10"
     inkscape:pageopacity="0"
     inkscape:pageshadow="2"
     inkscape:window-width="2560"
     inkscape:window-height="1476"
     id="namedview906"
     showgrid="false"
     inkscape:zoom="0.40442272"
     inkscape:cx="-271.99263"
     inkscape:cy="205.2308"
     inkscape:window-x="-12"
     inkscape:window-y="-12"
     inkscape:window-maximized="1"
     inkscape:current-layer="svg904"
     inkscape:showpageshadow="2"
     inkscape:pagecheckerboard="0"
     inkscape:deskcolor="#d1d1d1" />
  <g
     id="g412"
     transform="translate(0,3)">
    <path
       d="m 128.03553,66.126576 c 11.79656,0 21.24802,-9.613526 21.24802,-21.522797 0,-11.909265 -9.45146,-21.522788 -21.24802,-21.522788 -11.79655,0 -21.31908,9.613523 -21.31908,21.522788 0,11.909271 9.52253,21.522797 21.31908,21.522797 z"
       id="path1499"
       inkscape:connector-curvature="0"
       style="stroke-width:0.704839" />
    <path
       d="m 127.99999,74.620183 c -12.68112,0 -38.097793,8.726682 -38.097793,26.105437 v 18.64683 H 166.0978 v -18.64683 c 0,-17.378755 -25.41667,-26.105437 -38.09781,-26.105437 z"
       id="path1497"
       inkscape:connector-curvature="0"
       style="stroke-width:0.665368" />
  </g>
  <g
     id="g408"
     transform="translate(7.530237,3)">
    <path
       d="m 192.35071,180.18803 c 8.12136,0 14.62821,-6.61844 14.62821,-14.81739 0,-8.19893 -6.50685,-14.81737 -14.62821,-14.81737 -8.12135,0 -14.67713,6.61844 -14.67713,14.81737 0,8.19895 6.55578,14.81739 14.67713,14.81739 z"
       id="path1501"
       inkscape:connector-curvature="0"
       style="fill:#000000;stroke-width:0.485247" />
    <path
       id="path1497-8"
       style="fill:#000000;stroke-width:0.458072"
       d="m 192.32617,186.03516 c -4.99644,0 -12.86037,1.97245 -18.67676,5.89843 0.85101,0.39703 1.6968,0.82398 2.53418,1.28321 6.51009,3.5702 12.98926,9.85182 12.98926,18.79101 v 4.83692 h 29.38184 v -12.83692 c 0,-11.9644 -17.4982,-17.97265 -26.22852,-17.97265 z" />
    <path
       d="m 156.26207,188.18803 c 8.12135,0 14.62821,-6.61844 14.62821,-14.81739 0,-8.19893 -6.50686,-14.81737 -14.62821,-14.81737 -8.12135,0 -14.67714,6.61844 -14.67714,14.81737 0,8.19895 6.55579,14.81739 14.67714,14.81739 z"
       id="path1499-8"
       inkscape:connector-curvature="0"
       style="fill:#000000;stroke-width:0.485247" />
    <path
       id="path2365"
       style="fill:#000000;stroke-width:0.458072"
       d="m 156.87891,194.03516 c -3.64925,0 -8.82824,1.05472 -13.62305,3.15039 5.29363,3.72692 9.82812,9.34388 9.82812,16.82226 v 10.83692 h 30.02344 v -12.83692 c 0,-11.9644 -17.49819,-17.97265 -26.22851,-17.97265 z" />
    <path
       d="m 120.17342,190.18803 c 8.12135,0 14.62821,-6.61844 14.62821,-14.81739 0,-8.19893 -6.50686,-14.81737 -14.62821,-14.81737 -8.12135,0 -14.67714,6.61844 -14.67714,14.81737 0,8.19895 6.55579,14.81739 14.67714,14.81739 z"
       id="path2423"
       inkscape:connector-curvature="0"
       style="fill:#000000;stroke-width:0.485247" />
    <path
       id="path2431"
       style="fill:#000000;stroke-width:0.458072"
       d="m 120.79102,196.03516 c -2.81281,0 -6.53638,0.62746 -10.29102,1.87304 3.73134,3.55617 6.49609,8.26089 6.49609,14.09961 v 14.83692 h 30.02344 v -12.83692 c 0,-11.9644 -17.49819,-17.97265 -26.22851,-17.97265 z" />
    <path
       d="m 84.084763,188.18803 c 8.12135,0 14.62821,-6.61844 14.62821,-14.81739 0,-8.19893 -6.50686,-14.81737 -14.62821,-14.81737 -8.12135,0 -14.677141,6.61844 -14.677141,14.81737 0,8.19895 6.555791,14.81739 14.677141,14.81739 z"
       id="path2437"
       inkscape:connector-curvature="0"
       style="fill:#000000;stroke-width:0.485247" />
    <path
       id="path2439"
       style="fill:#000000;stroke-width:0.458072"
       d="m 84.060547,194.03516 c -1.66587,0 -3.652555,0.22008 -5.774414,0.65722 1.614384,2.69184 2.621094,5.7968 2.621094,9.31543 v 20.83692 h 29.381833 v -12.83692 c 0,-11.9644 -17.498192,-17.97265 -26.228513,-17.97265 z" />
    <path
       d="m 47.996107,180.18803 c 8.12135,0 14.62821,-6.61844 14.62821,-14.81739 0,-8.19893 -6.50686,-14.81737 -14.62821,-14.81737 -8.12135,0 -14.677141,6.61844 -14.677141,14.81737 0,8.19895 6.555791,14.81739 14.677141,14.81739 z"
       id="path2451"
       inkscape:connector-curvature="0"
       style="fill:#000000;stroke-width:0.485247" />
    <path
       d="m 48.613287,186.03546 c -8.73032,0 -26.228451,6.00788 -26.228451,17.97229 v 12.83742 h 52.456908 v -12.83742 c 0,-11.96441 -17.498127,-17.97229 -26.228457,-17.97229 z"
       id="path2453"
       inkscape:connector-curvature="0"
       style="fill:#000000;stroke-width:0.458072" />
  </g>
</svg>
