<?xml version="1.0" encoding="UTF-8" standalone="no"?>
<svg
   xmlns:dc="http://purl.org/dc/elements/1.1/"
   xmlns:cc="http://creativecommons.org/ns#"
   xmlns:rdf="http://www.w3.org/1999/02/22-rdf-syntax-ns#"
   xmlns:svg="http://www.w3.org/2000/svg"
   xmlns="http://www.w3.org/2000/svg"
   xmlns:sodipodi="http://sodipodi.sourceforge.net/DTD/sodipodi-0.dtd"
   xmlns:inkscape="http://www.inkscape.org/namespaces/inkscape"
   height="512"
   viewBox="0 0 55 60"
   width="512"
   version="1.1"
   id="svg7"
   sodipodi:docname="too_hard.svg"
   inkscape:version="0.92.5 (2060ec1f9f, 2020-04-08)">
  <metadata
     id="metadata13">
    <rdf:RDF>
      <cc:Work
         rdf:about="">
        <dc:format>image/svg+xml</dc:format>
        <dc:type
           rdf:resource="http://purl.org/dc/dcmitype/StillImage" />
        <dc:title></dc:title>
      </cc:Work>
    </rdf:RDF>
  </metadata>
  <defs
     id="defs11" />
  <sodipodi:namedview
     pagecolor="#ffffff"
     bordercolor="#666666"
     borderopacity="1"
     objecttolerance="10"
     gridtolerance="10"
     guidetolerance="10"
     inkscape:pageopacity="0"
     inkscape:pageshadow="2"
     inkscape:window-width="3840"
     inkscape:window-height="2051"
     id="namedview9"
     showgrid="false"
     inkscape:zoom="1.3037281"
     inkscape:cx="276.53091"
     inkscape:cy="282.26209"
     inkscape:window-x="0"
     inkscape:window-y="0"
     inkscape:window-maximized="1"
     inkscape:current-layer="svg7" />
  <path
     style="fill:#000000;fill-rule:nonzero;stroke:#000000;stroke-width:4;stroke-miterlimit:4;stroke-dasharray:none;stroke-opacity:1"
     d="m 72.628906,218.04492 c -2.774099,4.83696 -2.018311,1.26748 -2.873047,7.66797 -0.854736,6.40049 -5.281517,19.63674 -11.863281,27.38867 -26.462256,28.5098 -34.018523,38.34228 -33.091797,48.51953 1.442968,7.07257 5.939337,13.14438 12.283203,16.58789 2.777456,1.94101 5.71021,3.64867 8.769532,5.10547 3.622658,1.85348 9.698513,4.95418 10.111328,7.16993 0.549572,2.85482 0.223203,5.80827 -0.935547,8.4746 -1.238444,2.64541 -2.527941,4.91994 -3.648438,6.90821 -3.285667,5.81317 -8.238354,14.60169 -0.470703,21.15625 1.819754,1.60915 4.936237,4.06075 7.775391,6.23437 -2.113358,3.70282 -3.056887,7.9581 -2.705078,12.20703 0.443733,3.29658 2.234305,6.26213 4.945312,8.18946 1.878728,1.33956 3.884913,2.52598 5.898438,3.64648 4.936925,2.82234 6.857879,4.13695 7.523437,6.74024 0.610458,3.15207 0.364808,6.40978 -0.708984,9.43554 -2.792428,9.90227 -2.315722,20.4423 1.357422,30.05274 4.3265,16.00677 20.446296,25.80748 36.648436,22.2832 23.99276,-5.79895 47.65262,-12.89457 70.87695,-21.25586 11.62621,6.93368 22.6786,23.78409 30.64844,46.96094 3.48083,10.26841 13.10119,17.19051 23.94336,17.22851 h 169.89453 c 8.74695,-0.006 16.86891,-4.5352 21.47266,-11.97265 4.60375,-7.43745 5.03594,-16.72681 1.14062,-24.5586 -10.52114,-23.40402 -17.06974,-48.39687 -19.37695,-73.95312 -2.98935,-25.19751 0.79008,-50.7355 10.95117,-73.98633 6.0577,-12.57936 13.52892,-24.42932 22.26758,-35.31836 14.37809,-19.43026 27.68691,-34.04255 32.21002,-67.5136 l -14.0749,-5.70855 c -4.23746,27.72184 -17.71737,44.35764 -31.66637,63.19676 -9.5031,11.90781 -17.60993,24.86506 -24.16211,38.61914 -11.36834,25.9973 -15.60162,54.5549 -12.26562,82.73242 2.52549,27.5013 9.64345,54.38476 21.06054,79.53125 1.25513,2.60542 1.08635,5.67319 -0.44726,8.125 -1.53366,2.45183 -4.21745,3.94573 -7.10938,3.95703 H 237.11328 c -3.64395,-0.0324 -6.86492,-2.37369 -8.01953,-5.83007 -5.48753,-17.88507 -14.94173,-34.3001 -27.6582,-48.02149 l 6.29297,-2.20703 c 6.22591,-2.19046 10.9521,-3.84259 13.27734,-4.58398 36.04124,-11.33989 54.06934,-27.80208 53.57226,-48.79688 0.0102,-2.25346 -0.90664,-4.41124 -2.5371,-5.9668 -1.63045,-1.55555 -3.8296,-2.3717 -6.08008,-2.25585 -2.23459,0.0503 -4.35861,0.98708 -5.90235,2.60351 -1.54373,1.61644 -2.38207,3.78104 -2.33007,6.01563 0.20215,8.68604 -6.87357,21.34794 -41.80274,32.33398 -2.46004,0.77508 -7.32982,2.48566 -13.7832,4.75195 -6.04057,2.12307 -13.47919,4.75127 -21.69336,7.58203 h -0.0684 c -23.64395,8.5806 -47.734,15.87536 -72.16602,21.85352 -7.87752,1.52658 -15.542914,-3.47807 -17.312496,-11.30469 -2.630777,-6.58492 -2.929356,-13.87304 -0.84375,-20.65039 1.740021,-5.66465 1.96343,-11.68672 0.648437,-17.46484 -2.412961,-7.72688 -8.067109,-14.02209 -15.492187,-17.2461 -0.606585,-0.34542 -1.212388,-0.68131 -1.810547,-1.03515 0.896684,-1.85078 1.977587,-3.60638 3.226562,-5.24024 1.396112,-1.78884 2.011501,-4.0658 1.707032,-6.31445 -0.304469,-2.24865 -1.504632,-4.27964 -3.326172,-5.63281 -2.021949,-1.49962 -6.823181,-5.1136 -10.277344,-7.87695 0.429664,-0.79195 0.908954,-1.68512 1.355469,-2.44336 1.288992,-2.28314 2.772252,-4.92921 4.21289,-7.94532 2.687346,-5.89033 3.480543,-12.46835 2.267578,-18.82812 -1.962975,-10.33733 -11.794853,-15.36716 -18.998046,-19.04883 -2.207533,-1.043 -4.336207,-2.24554 -6.369141,-3.59766 -1.97424,-1.37224 -3.837884,-2.89925 -5.570313,-4.5664 0.143222,-4.86958 18.678009,-24.86179 28.644532,-35.60352 8.853036,-10.1442 14.46878,-22.70453 16.125,-36.0664 0.357693,-0.97065 2.715051,8.32871 1.28125,-2.82227 -1.433801,-11.15098 -12.280549,-12.47954 -15.054648,-7.64258 z"
     transform="matrix(0.1171875,0,0,0.1171875,-2.5,0)"
     id="Shape"
     inkscape:connector-curvature="0"
     sodipodi:nodetypes="zzccccccccccccccccccccsccccccccccccccccccsccccccccccccccscccccccccczz" />
  <g
     id="g3217"
     transform="matrix(1,0,0,0.99860962,-71.206513,29.583006)"
     style="stroke:#000000;stroke-width:0.23453811;stroke-miterlimit:4;stroke-dasharray:none;stroke-opacity:1">
    <path
       transform="matrix(0.1171875,0,0,0.1171875,-2.5,0)"
       sodipodi:nodetypes="scsscsccscccscccccccccccccccccccccccccsccccscccscsscsscccsscccscccccsccsccccccccscccsscccscccccccccccccscc"
       inkscape:connector-curvature="0"
       id="path2521"
       d="m 883.61914,-251.77539 c -24.91683,0 -48.19278,9.42786 -63.1543,25.10742 -11.77042,-7.34926 -26.35627,-11.44336 -41.38281,-11.44336 -37.44331,0 -67.9043,24.89793 -67.9043,55.5 0,1.32405 0.0571,2.64494 0.16993,3.95899 -26.55693,6.30222 -45.44727,26.3047 -45.44727,49.76953 0,19.29368 13.16443,37.03198 33.78516,45.904294 l 33.75586,48.283204 c 1.88706,2.699094 4.95924,4.269531 8.19336,4.269531 0.47104,0 0.94395,-0.03163 1.41796,-0.09961 3.73313,-0.534016 6.85055,-3.124139 8.0586,-6.697265 l 9.54883,-28.25 c 10.92838,5.845206 23.71844,8.992187 37.16992,8.992187 8.91531,0 17.67711,-1.413764 25.8164,-4.130859 6.27622,16.007563 11.05928,34.520499 14.10938,54.533203 L 784.375,-24.150391 c -1.72106,-0.583023 -3.56583,-0.686847 -5.33789,-0.298828 L 706.76562,-8.6816406 695.89844,-26.070312 c -2.05707,-3.291117 -5.83741,-5.10397 -9.68555,-4.626954 -2.77828,0.337376 -5.22052,1.823812 -6.82812,4.001954 l 14.39062,34.9335932 c 2.29145,3.3439328 6.3915,4.9889148 10.37305,4.1210938 L 780.58789,-4.3164062 862.8457,23.53125 c 2.04607,0.693026 4.25752,0.706192 6.3086,0.03516 L 963.85938,-7.3242188 1023.2559,22.96875 c 2.1086,1.076291 4.467,1.340866 6.6738,0.859375 l 53.3199,-51.082594 c -0.5449,-1.475698 2.378,-7.017186 1.7992,-8.485765 -1.226,-3.10611 -3.9157,-5.396398 -7.1758,-6.107422 -3.2581,-0.711023 -6.6603,0.251371 -9.0644,2.564453 L 1025.9961,1.9140625 969.25,-27.027344 c -2.36809,-1.209043 -5.11943,-1.424637 -7.64453,-0.599609 l -30.09375,9.816406 c 2.99708,-15.527546 7.08462,-30.011379 12.08984,-42.798828 8.13628,2.715095 16.89732,4.126953 25.8086,4.126953 10.25237,0 20.15814,-1.842191 29.14843,-5.320312 0.28587,0.596019 0.6232,1.171965 1.0293,1.708984 1.83211,2.422085 4.66601,3.880841 7.70121,3.964844 l 72.3808,1.998047 c 0.093,0.003 0.1852,0.0039 0.2774,0.0039 3.9351,0 7.5168,-2.311796 9.1289,-5.919922 1.65,-3.69213 0.9129,-8.016022 -1.8672,-10.953125 l -13.9649,-14.757812 c 17.2447,-9.451334 28.0957,-25.541332 28.0957,-43.126962 0,-23.46482 -18.8912,-43.46731 -45.4472,-49.76953 0.1126,-1.31404 0.1699,-2.63493 0.1699,-3.95898 0,-30.60308 -30.4629,-55.49805 -67.90625,-55.49805 -15.02652,0 -29.61041,4.09315 -41.38086,11.44141 -14.96252,-15.67855 -38.23934,-25.10547 -63.15625,-25.10547 z m 0,20.00195 c 22.42381,0 42.81072,9.36864 53.20313,24.45117 1.61902,2.34909 4.16499,3.89504 6.99609,4.24805 2.83315,0.35098 5.67808,-0.52034 7.82422,-2.39844 9.17726,-8.03128 22.48513,-12.63867 36.51367,-12.63867 26.41495,0 47.90425,15.92632 47.90425,35.5 0,2.99111 -0.5124,5.96293 -1.5214,8.83203 -1.0271,2.91711 -0.6458,6.1441 1.0312,8.74219 1.6781,2.59809 4.4619,4.27405 7.543,4.53906 21.4347,1.84607 38.2265,15.73173 38.2265,31.61328 0,11.57742 -8.857,22.31362 -22.5195,27.88282 l -29.0996,-30.75196 c -2.5071,-2.64909 -6.2561,-3.72376 -9.7832,-2.80273 -3.5282,0.91903 -6.2778,3.68463 -7.1738,7.21875 l -10.3926,41.003906 c -8.96138,6.36522 -20.54853,9.849609 -32.96094,9.849609 -9.50938,0 -18.70924,-2.089783 -26.60547,-6.044922 -3.83514,-1.919067 -8.46762,-1.185075 -11.51367,1.832031 -11.48246,11.3604 -28.85623,17.876953 -47.66993,17.876954 -18.81364,0 -36.18947,-6.516554 -47.67187,-17.876954 -3.04811,-3.016105 -7.67854,-3.750098 -11.51367,-1.832031 -7.89628,3.955139 -17.09714,6.044922 -26.60547,6.044922 -11.2274,0.001 -22.06037,-2.983313 -30.63867,-8.3125 l 8.36718,-24.750005 c 1.22905,-3.63711 0.26851,-7.6576 -2.47461,-10.3457 -2.7431,-2.68709 -6.7804,-3.56572 -10.39453,-2.26367 l -56.23242,20.29297 c -12.58744,-5.80221 -20.55859,-16.1321 -20.55859,-27.02149 0,-15.88155 16.79181,-29.76822 38.22656,-31.61328 3.08111,-0.26504 5.86491,-1.94097 7.54297,-4.53906 1.67806,-2.59909 2.05929,-5.82508 1.03125,-8.74219 -1.01004,-2.8691 -1.52149,-5.84092 -1.52149,-8.83203 0,-19.57368 21.48938,-35.5 47.9043,-35.5 14.0275,0 27.33635,4.60639 36.51367,12.63867 2.14608,1.87807 4.99207,2.75345 7.82618,2.39844 2.83109,-0.35405 5.37507,-1.89896 6.99414,-4.24805 10.39236,-15.08253 30.77937,-24.45117 53.20312,-24.45117 z m 144.06636,126.96875 28.4024,30.015628 -35.7598,-0.988282 z m -277.71675,8.503909 -11.4707,33.93164 -16.63282,-23.789062 z M 918.625,-49.34375 c -3.59714,12.064424 -6.51228,25.031165 -8.65039,38.556641 L 866.11328,3.5195312 858.92969,1.0878906 c -2.18308,-17.8966286 -5.66862,-34.8962346 -10.30078,-50.4257816 10.74338,4.23915 22.66084,6.519532 34.99023,6.519532 12.33451,0 24.25847,-2.282242 35.00586,-6.525391 z"
       style="stroke:#000000;stroke-width:2.00139189;stroke-miterlimit:4;stroke-dasharray:none;stroke-opacity:1" />
    <path
       style="stroke:#000000;stroke-width:0.23453811;stroke-miterlimit:4;stroke-dasharray:none;stroke-opacity:1"
       d="m 111.76479,-14.510405 c 0.22407,0.249619 0.54212,0.389194 0.87214,0.389194 0.0567,0 0.11379,-0.0041 0.17074,-0.01242 0.38873,-0.05719 0.72308,-0.305518 0.89019,-0.661312 l 2.93694,-6.253462 c 0.1704,-0.36306 0.14356,-0.787996 -0.0715,-1.126446 -0.21504,-0.338449 -0.5883,-0.543652 -0.98921,-0.543652 h -8.54808 c -0.46243,0 -0.88163,0.272002 -1.07019,0.694361 -0.18856,0.422358 -0.11086,0.915969 0.19782,1.260278 z m 1.96413,-5.864268 -1.40068,2.982526 -2.6763,-2.982526 z"
       id="path2531"
       inkscape:connector-curvature="0" />
    <path
       style="stroke:#000000;stroke-width:0.23453811;stroke-miterlimit:4;stroke-dasharray:none;stroke-opacity:1"
       d="m 102.68736,-14.396026 c 0.17309,-0.440054 0.0647,-0.940931 -0.27493,-1.27024 l -6.273507,-6.082948 c -0.27165,-0.263447 -0.654163,-0.379583 -1.026598,-0.311378 -0.372435,0.06809 -0.689087,0.311964 -0.849991,0.654632 l -2.946315,6.273502 c -0.172271,0.366927 -0.142739,0.796786 0.07805,1.136642 0.21657,0.333176 0.586544,0.533456 0.982652,0.533456 0.0081,0 0.01629,-1.17e-4 0.02438,-2.34e-4 l 9.219809,-0.190554 c 0.47287,-0.0098 0.89347,-0.302706 1.06645,-0.742878 z m -8.447175,-1.448957 1.44591,-3.078624 3.078624,2.985105 z"
       id="path2533"
       inkscape:connector-curvature="0" />
  </g>
</svg>
