<?xml version="1.0" encoding="UTF-8" standalone="no"?>
<svg
   xmlns:dc="http://purl.org/dc/elements/1.1/"
   xmlns:cc="http://creativecommons.org/ns#"
   xmlns:rdf="http://www.w3.org/1999/02/22-rdf-syntax-ns#"
   xmlns:svg="http://www.w3.org/2000/svg"
   xmlns="http://www.w3.org/2000/svg"
   xmlns:sodipodi="http://sodipodi.sourceforge.net/DTD/sodipodi-0.dtd"
   xmlns:inkscape="http://www.inkscape.org/namespaces/inkscape"
   height="512"
   viewBox="0 0 55 60"
   width="512"
   version="1.1"
   id="svg7"
   sodipodi:docname="too_easy_filled.svg"
   inkscape:version="0.92.5 (2060ec1f9f, 2020-04-08)"
   inkscape:export-filename="/home/andrei/Desktop/Coding/hatgame_warehouse/work/too_easy_filled.png"
   inkscape:export-xdpi="96"
   inkscape:export-ydpi="96">
  <metadata
     id="metadata13">
    <rdf:RDF>
      <cc:Work
         rdf:about="">
        <dc:format>image/svg+xml</dc:format>
        <dc:type
           rdf:resource="http://purl.org/dc/dcmitype/StillImage" />
        <dc:title></dc:title>
      </cc:Work>
    </rdf:RDF>
  </metadata>
  <defs
     id="defs11" />
  <sodipodi:namedview
     pagecolor="#ffffff"
     bordercolor="#666666"
     borderopacity="1"
     objecttolerance="10"
     gridtolerance="10"
     guidetolerance="10"
     inkscape:pageopacity="0"
     inkscape:pageshadow="2"
     inkscape:window-width="3840"
     inkscape:window-height="2051"
     id="namedview9"
     showgrid="false"
     inkscape:zoom="2"
     inkscape:cx="395.12261"
     inkscape:cy="214.83155"
     inkscape:window-x="0"
     inkscape:window-y="0"
     inkscape:window-maximized="1"
     inkscape:current-layer="svg7" />
  <path
     style="fill:#000000;fill-rule:nonzero;stroke:none;stroke-width:24;stroke-miterlimit:4;stroke-dasharray:none;stroke-opacity:1"
     d="M 284.93555 1.0097656 C 257.87393 0.92131367 228.1639 5.1691771 193.57227 13.152344 C 166.00965 19.509016 132.92142 29.424312 108.30664 55.460938 L 108.28516 55.484375 L 108.26172 55.509766 C 92.868252 71.970592 80.993234 91.395781 73.359375 112.60156 L 73.335938 112.66602 L 73.314453 112.73047 C 70.140571 121.87527 67.552868 131.21633 65.570312 140.69141 L 65.068359 142.88477 C 63.497975 148.5796 61.418978 154.11917 58.849609 159.43555 C 53.685103 168.48835 50.928215 178.71967 50.867188 189.15039 L 50.859375 190.52734 L 51.164062 191.87109 C 53.366479 201.59999 58.898257 210.24529 66.773438 216.33594 C 67.059376 216.61253 67.241396 216.80401 67.589844 217.13672 C 66.561069 219.50315 65.68657 221.93252 65.162109 224.46484 L 65.050781 224.99805 L 64.988281 225.53906 C 64.152894 232.87069 61.159749 239.78917 56.390625 245.41992 C 43.818083 258.97367 35.497673 268.24441 29.902344 276.27734 C 24.249227 284.39324 21.023697 292.75915 21.767578 300.92969 L 21.828125 301.58984 L 21.960938 302.24023 C 24.02458 312.35659 30.436304 321.04192 39.431641 326.07422 C 42.41937 328.10607 45.522608 329.96674 48.787109 331.52148 L 48.480469 331.36914 C 49.290564 331.78369 49.989909 332.20362 50.824219 332.65234 C 50.161409 333.92688 49.512686 335.20877 48.802734 336.46875 C 47.21962 339.26867 44.406032 343.68331 43.240234 350.11914 C 42.077537 356.53787 44.340501 366.11323 50.992188 371.78711 C 51.346592 372.09892 51.842458 372.45646 52.224609 372.7793 C 51.692769 375.60821 51.478707 378.50085 51.71875 381.40039 L 51.744141 381.70703 L 51.785156 382.00977 C 52.653032 388.45835 56.162213 394.27911 61.46875 398.05469 C 61.470666 398.05604 61.472694 398.05724 61.474609 398.05859 C 63.829121 399.73643 66.135399 401.08824 68.257812 402.26953 L 68.136719 402.20312 C 68.968727 402.67886 68.829481 402.61982 69.361328 402.95117 C 69.328304 403.06987 69.375371 403.1978 69.333984 403.31445 L 69.201172 403.68945 L 69.09375 404.07227 C 65.778516 415.83034 66.318086 428.31968 70.527344 439.77539 C 76.507519 460.94172 98.16448 474.03239 119.70703 469.3457 L 119.8418 469.31836 L 119.97656 469.2832 C 141.27257 464.13524 162.25465 457.80185 182.93945 450.58789 C 189.35828 456.67636 197.45086 469.07802 203.33594 486.17188 C 208.31161 500.85231 222.16237 510.82066 237.66211 510.875 L 237.68359 510.875 L 400.94141 510.875 L 400.94531 510.875 C 413.4858 510.86647 425.17138 504.34985 431.77148 493.68555 C 438.37195 483.02069 438.99018 469.6564 433.40625 458.42773 L 433.60742 458.85156 C 424.04521 437.57731 418.09302 414.85957 415.99609 391.62891 L 415.98047 391.46094 L 415.96094 391.29297 C 413.34832 369.26747 416.64122 346.95026 425.48633 326.61328 C 430.89375 315.42231 437.54251 304.87686 445.32031 295.18359 L 445.4668 295 L 445.60742 294.81055 C 461.61386 273.17631 482.06369 245.11504 482.70703 199.97852 C 483.20606 175.64806 480.2234 151.3697 473.84766 127.88477 L 473.81641 127.76953 L 473.7832 127.65625 C 464.91838 97.395275 446.50408 70.810017 421.29883 51.869141 C 378.12833 17.929479 336.5451 1.1784466 284.93555 1.0097656 z M 300.88477 137.03125 L 300.9043 137.03125 L 301.42188 137.03125 L 301.53711 137.20312 C 304.23985 137.31866 306.8692 138.03026 309.20898 139.39453 C 310.06523 138.38861 311.00885 137.28031 312.39258 137.54883 C 315.09725 138.07514 317.84051 138.80951 320.5625 139.7207 C 322.95937 139.3192 325.99801 139.15279 329.04102 139.85547 C 331.96157 140.5299 334.66952 142.2842 336.59766 145.00391 C 340.29695 145.00922 347.76301 145.57219 353.15039 150.38281 C 356.34283 153.2342 358.05218 157.17167 358.53906 161.75586 C 362.33179 163.36353 366.90952 166.2332 367.73633 171.19336 C 370.56686 173.53914 373.58333 178.2126 372.02344 184.8457 C 372.00674 184.918 371.96691 184.98679 371.94531 185.05859 C 377.52798 190.19 380.05381 197.7889 379.04297 207.22656 C 378.19569 215.13157 375.33618 221.51699 375.1875 221.8457 C 375.1561 221.91288 375.1301 221.98484 375.0918 222.05664 C 370.80881 230.18755 365.14683 233.13037 360.28516 234.00586 C 360.20169 234.61176 360.11021 235.21772 359.95898 235.8125 C 358.51517 241.46383 354.22079 245.97539 348.04688 248.49219 C 344.31052 250.01541 340.12547 250.70797 335.81445 250.58008 C 328.50215 262.79791 322.14455 270.92997 319.69922 276 C 317.09545 281.39851 316.59361 282.17853 320.80078 290.06641 C 342.17234 312.65731 350.34887 345.68781 353.9668 373.98438 C 355.84377 388.6644 356.42271 402.10033 356.51562 412.2168 C 356.60847 422.3241 356.29041 428.33651 356.09961 430.61719 L 356.09961 430.63477 C 355.19926 441.46781 345.58073 448.23813 335.91602 448.2168 L 334.98242 448.2168 L 334.61719 448.19922 C 329.69571 447.8946 324.94663 445.97884 321.25 442.2832 C 317.5576 438.59182 315.33931 433.17993 315.79883 427.65039 C 316.76215 415.90689 316.1679 392.6965 312.2832 370.11719 C 308.39851 347.53788 300.63317 325.3931 291.18359 315.11719 L 291.11719 315.05078 L 291.05078 314.9668 C 278.33825 300.67617 277.144 282.71639 281.76758 268.31641 C 285.76841 255.85598 292.81973 244.78319 299.16016 234.23242 C 298.03312 232.61478 296.74239 231.05656 295.22656 229.60742 C 291.8996 229.97528 288.97508 230.12695 286.88281 230.12695 C 284.41466 230.12695 282.95596 229.98936 282.79688 229.97266 C 282.71649 229.96486 282.6662 229.95912 282.625 229.95312 C 269.79449 228.08152 263.70362 220.57536 262.67773 212.79883 C 259.7396 212.62673 248.45618 211.71401 242.26953 204.61523 C 239.82599 201.81002 238.75883 198.34779 238.75977 194.56836 C 237.67763 193.5667 236.42075 192.08979 235.90234 189.88086 C 235.36111 187.57923 235.75324 185.14873 236.94531 182.75195 C 236.92591 182.43218 236.90539 182.11384 236.90039 181.79297 L 236.90039 181.77344 C 236.90271 180.95178 236.95902 180.12533 237.04102 179.30664 C 236.61498 176.26534 236.58196 172.00901 238.56836 167.90234 C 240.37153 164.17575 243.59947 161.44848 247.79297 159.60352 C 248.36869 157.45709 249.56993 154.25615 252.70312 151.91992 C 255.34432 149.95018 258.73978 149.29696 262.50391 149.51758 C 264.38435 146.18977 269.07641 141.67084 279.76758 141.48828 C 279.77048 141.48728 279.78411 141.48928 279.78711 141.48828 C 281.18356 140.72047 284.24781 139.20787 288.72461 138.04883 C 290.10151 137.69275 291.12567 138.75177 292.04297 139.7207 C 294.69982 138.03963 297.73612 137.03525 300.88477 137.03125 z "
     id="Shape"
     transform="matrix(0.1171875,0,0,0.1171875,-2.5,0)" />
  <g
     id="g1486"
     transform="matrix(1.1507975,0,0,1.1526436,-5.9087257,1.2585399)"
     style="fill:#ffffff;fill-opacity:1;stroke:#ffffff;stroke-width:0.86826646;stroke-opacity:1" />
</svg>
