<?xml version="1.0" encoding="UTF-8" standalone="no"?>
<svg
   xmlns:dc="http://purl.org/dc/elements/1.1/"
   xmlns:cc="http://creativecommons.org/ns#"
   xmlns:rdf="http://www.w3.org/1999/02/22-rdf-syntax-ns#"
   xmlns:svg="http://www.w3.org/2000/svg"
   xmlns="http://www.w3.org/2000/svg"
   xmlns:sodipodi="http://sodipodi.sourceforge.net/DTD/sodipodi-0.dtd"
   xmlns:inkscape="http://www.inkscape.org/namespaces/inkscape"
   height="512"
   viewBox="0 0 55 60"
   width="512"
   version="1.1"
   id="svg7"
   sodipodi:docname="too_easy.svg"
   inkscape:version="0.92.5 (2060ec1f9f, 2020-04-08)"
   inkscape:export-filename="/home/andrei/Desktop/Coding/hatgame_warehouse/work/too_easy.png"
   inkscape:export-xdpi="96"
   inkscape:export-ydpi="96">
  <metadata
     id="metadata13">
    <rdf:RDF>
      <cc:Work
         rdf:about="">
        <dc:format>image/svg+xml</dc:format>
        <dc:type
           rdf:resource="http://purl.org/dc/dcmitype/StillImage" />
        <dc:title></dc:title>
      </cc:Work>
    </rdf:RDF>
  </metadata>
  <defs
     id="defs11" />
  <sodipodi:namedview
     pagecolor="#ffffff"
     bordercolor="#666666"
     borderopacity="1"
     objecttolerance="10"
     gridtolerance="10"
     guidetolerance="10"
     inkscape:pageopacity="0"
     inkscape:pageshadow="2"
     inkscape:window-width="3840"
     inkscape:window-height="2051"
     id="namedview9"
     showgrid="false"
     inkscape:zoom="1.84375"
     inkscape:cx="473.45945"
     inkscape:cy="151.44239"
     inkscape:window-x="0"
     inkscape:window-y="0"
     inkscape:window-maximized="1"
     inkscape:current-layer="svg7" />
  <g
     id="g870"
     style="stroke-width:2.92707372;stroke-miterlimit:4;stroke-dasharray:none"
     transform="matrix(0.96078123,0,0,0.96093347,1.0611041,1.1723681)">
    <path
       inkscape:connector-curvature="0"
       d="M 46.790728,6.2674592 C 39.010964,0.14625758 32.307334,-0.97629182 20.232903,1.8098422 16.95316,2.5661068 13.241976,3.7202495 10.567435,6.5488371 8.8257907,8.4110219 7.4820573,10.608722 6.6183159,13.007692 6.2516437,14.064006 5.952876,15.142682 5.7238404,16.23712 l -0.077995,0.341602 C 5.4270488,17.375751 5.1348819,18.150796 4.77309,18.893919 4.2475166,19.792956 3.9676403,20.814414 3.9615461,21.85579 c 0.1996375,0.881734 0.7094375,1.662384 1.436492,2.199684 0.4827798,0.443293 0.8006839,0.755277 0.8036457,1.039617 -0.042112,0.160436 -0.1062362,0.314268 -0.190545,0.457115 -0.1578448,0.280341 -0.2714064,0.583398 -0.3366624,0.898435 -0.1349345,1.184043 -0.6187894,2.301251 -1.3900898,3.209681 -3.1010456,3.340992 -3.98663557,4.49316 -3.8780348,5.685807 0.16909778,0.828816 0.696032,1.540438 1.4394538,1.943975 0.3254831,0.227462 0.6692439,0.427579 1.0277582,0.598298 0.4245303,0.217204 1.136359,0.580527 1.1847357,0.840185 0.064403,0.33455 0.026203,0.680753 -0.109588,0.993214 -0.1451301,0.310009 -0.2961839,0.576578 -0.4274921,0.809578 -0.3850391,0.681231 -0.9655596,1.710975 -0.055288,2.479087 0.2132524,0.188572 0.5785459,0.475874 0.9112592,0.730595 -0.2476591,0.433924 -0.3581444,0.932662 -0.3169168,1.430584 0.052,0.386318 0.261837,0.733787 0.5795332,0.959646 0.2201634,0.15698 0.4551359,0.296188 0.6910958,0.427497 0.5785459,0.330743 0.8036457,0.48476 0.8816408,0.789833 0.071538,0.369384 0.042904,0.751184 -0.082931,1.105765 -0.3272377,1.160422 -0.2714945,2.395443 0.158952,3.521666 0.5070117,1.875794 2.3959778,3.024385 4.2946664,2.611383 2.811651,-0.679564 5.584383,-1.511095 8.305985,-2.490934 1.362446,0.81254 2.657757,2.787121 3.591723,5.503158 0.40791,1.203329 1.535282,2.014555 2.805849,2.019009 h 19.909483 c 1.025033,-7.16e-4 1.976829,-0.53138 2.516331,-1.402956 0.539502,-0.871576 0.59001,-1.960148 0.133528,-2.877936 -1.232947,-2.742659 -2.000367,-5.671564 -2.270743,-8.666437 -0.350314,-2.952833 0.09271,-5.945679 1.283463,-8.670386 0.709887,-1.474144 1.585319,-2.862663 2.609381,-4.138722 1.952839,-2.639028 4.16632,-5.627556 4.238392,-10.717039 0.0588,-2.830171 -0.287962,-5.654181 -1.029733,-8.386046 -0.993858,-3.391805 -3.058818,-6.3708238 -5.886162,-8.4916868 z m 1.091931,26.4198958 c -1.113645,1.395446 -2.063685,2.913934 -2.831518,4.52574 -1.332228,3.046558 -1.828416,6.393141 -1.437479,9.695194 0.295956,3.222808 1.130258,6.373168 2.468199,9.320023 0.147085,0.305322 0.12729,0.664747 -0.05243,0.952069 -0.179726,0.287323 -0.494258,0.462381 -0.833156,0.463706 H 25.286788 c -0.427026,-0.0038 -0.804584,-0.27816 -0.93989,-0.683205 -0.64307,-2.095906 -1.751027,-4.019581 -3.241239,-5.627556 l 0.737498,-0.258671 c 0.729599,-0.256695 1.283463,-0.450204 1.555952,-0.537086 4.223583,-1.328893 6.336362,-3.258059 6.278112,-5.718387 0.0012,-0.264077 -0.106435,-0.516989 -0.297505,-0.699281 -0.191068,-0.182292 -0.448754,-0.277888 -0.712482,-0.264314 -0.261866,0.0059 -0.510633,0.115726 -0.69154,0.305152 -0.180906,0.189427 -0.279125,0.442981 -0.273032,0.704846 0.02369,1.017896 -0.80562,2.501794 -4.898882,3.789221 -0.288286,0.09083 -0.858934,0.291251 -1.61519,0.556832 -0.707879,0.248797 -1.579647,0.556832 -2.542245,0.888562 h -0.0079 C 15.86767,51.105739 13.044533,51.960665 10.181406,52.661231 9.258259,52.840127 8.3599215,52.253469 8.1525486,51.336287 7.8442545,50.564616 7.8094137,49.710659 8.0538206,48.916438 8.2577293,48.252612 8.2839418,47.546909 8.1298411,46.869785 7.8470722,45.964291 7.18436,45.226614 6.3142337,44.848801 6.2431496,44.808322 6.1720654,44.76883 6.1019686,44.727364 6.2070488,44.510476 6.3337324,44.304737 6.4800967,44.113269 6.6437035,43.903639 6.7158304,43.636873 6.6801504,43.373359 6.6444705,43.109845 6.5040008,42.871866 6.290539,42.713291 6.0535919,42.537554 5.4908424,42.114006 5.0860577,41.790175 5.136409,41.697369 5.1926839,41.592717 5.2450098,41.50386 5.3960636,41.236305 5.5698248,40.926295 5.7386496,40.572845 6.0535729,39.882572 6.1463722,39.111537 6.0042279,38.366251 5.7741917,37.154845 4.6220363,36.565433 3.7779121,36.133987 3.5192169,36.011761 3.2697631,35.870865 3.0315286,35.712414 2.8001724,35.551604 2.5819555,35.372671 2.3789367,35.177302 2.3957205,34.606648 4.5677359,32.263808 5.7356878,31.005012 6.773153,29.816238 7.4312529,28.344266 7.6253412,26.778421 7.6672584,26.664673 7.7174135,26.554133 7.7754077,26.447679 8.0219256,26.030525 8.160699,25.558555 8.1792051,25.074358 8.0802151,24.076838 7.5518536,23.171838 6.731853,22.595271 6.3369411,22.229973 5.9578257,21.884422 5.9153727,21.580336 6.0351724,20.922375 6.2577268,20.287355 6.5748756,19.69856 6.9881379,18.840405 7.318724,17.944837 7.5621553,17.02399 l 0.07997,-0.344564 C 7.8533607,15.666028 8.1280362,14.666897 8.464529,13.687935 9.2376857,11.540278 10.439918,9.5724796 11.998003,7.904387 14.305276,5.4628174 17.52677,4.455781 20.671256,3.7311097 33.552294,0.76133962 39.162018,2.7793616 45.572425,7.8214546 c 2.50677,1.8551437 4.335894,4.4812864 5.206913,7.4757644 0.689665,2.547548 1.011158,5.180694 0.9547,7.819341 -0.0622,4.451694 -1.902488,6.938679 -3.851379,9.570795 z"
       id="Shape"
       style="fill:#000000;fill-rule:nonzero;stroke:#000000;stroke-width:2.92707372;stroke-miterlimit:4;stroke-dasharray:none;stroke-opacity:1" />
    <path
       sodipodi:nodetypes="cccccccccccc"
       inkscape:connector-curvature="0"
       id="path3"
       transform="matrix(0.1171875,0,0,0.1171875,-2.5,0)"
       d="m 316.95312,223.5957 c -1.95637,4.10388 -4.0566,8.30518 -6.2207,12.625 -15.0528,30.04587 -32.10254,64.10128 -4.59961,86.18555 32.09387,25.6768 33.22885,114.34714 30.95899,146.33008 -0.16436,2.25897 0.57644,4.49047 2.05859,6.20312 1.48216,1.71264 3.58458,2.7661 5.84375,2.92774 h 0.60547 c 4.48602,0.0111 8.2147,-3.45303 8.5332,-7.92774 0.36694,-5.06026 8.33744,-124.35573 -37.29883,-160.86133 -15.57333,-12.48426 -6.47702,-33.92064 9.18164,-65.19531 3.36243,-6.70223 6.68737,-13.54484 9.63477,-20.28711 z"
       style="fill:#000000;fill-rule:nonzero;stroke:#000000;stroke-width:24.97769165;stroke-miterlimit:4;stroke-dasharray:none;stroke-opacity:1" />
  </g>
  <g
     id="g1486"
     transform="matrix(1.1507975,0,0,1.1526436,-5.9087262,1.2585404)"
     style="stroke-width:0.86826646">
    <path
       style="stroke:#000000;stroke-width:0.20349994;stroke-miterlimit:4;stroke-dasharray:none;stroke-opacity:1"
       d="m 33.602571,12.942451 a 1.5946311,1.592225 0 0 0 -0.880073,0.265697 c -0.05241,-0.128304 -0.193858,-0.201557 -0.333141,-0.165594 -0.446944,0.115528 -0.753013,0.265705 -0.88879,0.340306 -1.145313,2.13e-4 -1.588054,0.492632 -1.75475,0.811389 -0.394681,-0.0367 -0.727071,0.0437 -0.990706,0.239997 -0.307317,0.22878 -0.433218,0.558104 -0.483832,0.761441 -0.434512,0.179083 -0.74524,0.456638 -0.9247,0.826932 -0.19198,0.396263 -0.187411,0.813768 -0.144465,1.111282 a 2.9396234,2.716448 0 0 0 -0.0137,0.254711 2.9396234,2.716448 0 0 0 0.0046,0.120414 c -0.123622,0.235991 -0.160777,0.464182 -0.109801,0.680613 0.04973,0.211566 0.172522,0.358776 0.276061,0.449942 -0.0131,0.385453 0.104249,0.722722 0.349953,1.00434 0.609131,0.69782 1.823227,0.795305 2.062983,0.807865 0.06173,0.775992 0.661953,1.541661 1.984524,1.734279 0.0042,6.36e-4 0.0086,0.0013 0.01287,0.0017 0.01177,0.0012 0.158121,0.01534 0.405581,0.01534 0.224682,0 0.533083,-0.0118 0.899376,-0.05554 0.780119,0.725645 1.021998,1.710456 1.200138,2.43686 0.06491,0.264403 0.121012,0.492748 0.194072,0.6688 0.0439,0.105891 0.1482,0.173054 0.261532,0.173054 0.01541,0 0.03107,-0.0011 0.0467,-0.0037 l 1.279428,-0.209531 c 0.07967,-0.0131 0.150012,-0.05897 0.193034,-0.126215 0.04302,-0.06724 0.05473,-0.149366 0.03217,-0.225698 -0.06976,-0.236792 -0.107718,-0.488954 -0.113331,-0.753358 0.08297,0.02729 0.167539,0.05142 0.252814,0.07254 0.67834,0.168038 1.368976,0.131401 1.944879,-0.103005 0.604948,-0.246212 1.014296,-0.679382 1.152605,-1.219881 0.01903,-0.07471 0.03234,-0.150796 0.04027,-0.227561 0.482704,-0.06604 1.063684,-0.348725 1.5092,-1.193146 0.0027,-0.005 0.0052,-0.01009 0.0075,-0.01513 0.01221,-0.02696 0.300334,-0.670645 0.384617,-1.455733 0.104086,-0.970235 -0.148658,-1.735133 -0.732702,-2.231888 0.0088,-0.01808 0.01551,-0.03719 0.02013,-0.05679 0.155365,-0.659598 -0.160457,-1.10248 -0.432564,-1.312315 -0.06173,-0.494698 -0.535594,-0.811151 -0.923453,-0.963925 -0.03951,-0.466007 -0.219361,-0.844342 -0.536139,-1.126825 -0.518466,-0.462219 -1.261187,-0.52476 -1.6244,-0.52476 h -0.01121 c -0.35386,-0.595177 -1.163674,-0.62266 -1.635816,-0.536366 -0.276947,-0.09312 -0.556133,-0.167138 -0.83088,-0.220516 -0.14084,-0.02729 -0.276924,0.05408 -0.321518,0.184661 a 1.5946311,1.592225 0 0 0 -0.829012,-0.234608 z m 2.703319,0.819265 c 0.07967,0.01722 0.15675,0.04396 0.226453,0.08311 a 0.66230686,1.1140488 0 0 0 -0.0824,0.03979 1.1157324,1.2361364 0 0 0 -0.14405,-0.1229 z m 0.915982,0.544448 c 0.04889,-2.12e-4 0.107379,0.0013 0.173316,0.0052 a 0.8711883,0.92074353 0 0 0 -0.130557,0.113988 0.66230686,1.1140488 0 0 0 -0.04276,-0.11917 z m -7.777855,0.443518 a 2.9396234,2.716448 0 0 0 -0.224584,0.05886 c 0.0672,-0.0293 0.141914,-0.04934 0.224584,-0.05886 z m 9.308227,0.345695 c 0.02516,0.0682 0.04509,0.140483 0.05853,0.218029 -0.0284,0.0013 -0.05994,0.0047 -0.0905,0.0075 a 0.8711883,0.92074353 0 0 0 0.03196,-0.22549 z m 0.693889,0.959781 c 0.09226,0.05793 0.1792,0.128919 0.237661,0.21264 a 4.6208641,2.9555358 0 0 0 -0.237661,-0.21264 z m -9.020543,4.70108 a 3.1230314,2.2382717 0 0 0 1.150738,0.82859 c -0.647583,-0.152372 -0.999583,-0.476486 -1.150738,-0.82859 z"
       id="path981"
       inkscape:connector-curvature="0" />
  </g>
</svg>
